<svg width="24" height="24" viewBox="0 0 24 24" fill="none" xmlns="http://www.w3.org/2000/svg">
<mask id="path-1-inside-1_1416_7937" fill="white">
<path fill-rule="evenodd" clip-rule="evenodd" d="M12 17C17.5 17 20 12 20 12C20 12 17.5 7 12 7C6.5 7 4 12 4 12C4 12 6.5 17 12 17ZM12 15C13.6569 15 15 13.6569 15 12C15 10.3431 13.6569 9 12 9C10.3431 9 9 10.3431 9 12C9 13.6569 10.3431 15 12 15Z"/>
</mask>
<path fill-rule="evenodd" clip-rule="evenodd" d="M12 17C17.5 17 20 12 20 12C20 12 17.5 7 12 7C6.5 7 4 12 4 12C4 12 6.5 17 12 17ZM12 15C13.6569 15 15 13.6569 15 12C15 10.3431 13.6569 9 12 9C10.3431 9 9 10.3431 9 12C9 13.6569 10.3431 15 12 15Z" fill="black"/>
<path d="M20 12L20.8944 12.4472L21.118 12L20.8944 11.5528L20 12ZM4 12L3.10557 11.5528L2.88197 12L3.10557 12.4472L4 12ZM20 12C19.1056 11.5528 19.1058 11.5524 19.1059 11.5521C19.106 11.552 19.1061 11.5517 19.1062 11.5515C19.1064 11.5511 19.1066 11.5508 19.1067 11.5506C19.1069 11.5502 19.107 11.55 19.1069 11.5502C19.1067 11.5505 19.106 11.552 19.1046 11.5546C19.1019 11.5598 19.0969 11.5694 19.0895 11.5833C19.0746 11.611 19.0502 11.6554 19.0163 11.7141C18.9483 11.8315 18.8424 12.0055 18.6978 12.2171C18.4076 12.6417 17.9674 13.2096 17.3728 13.7759C16.1854 14.9068 14.4199 16 12 16V18C15.0801 18 17.3146 16.5932 18.7522 15.2241C19.4701 14.5404 19.9986 13.8583 20.3491 13.3454C20.5248 13.0883 20.6572 12.8716 20.7474 12.7156C20.7926 12.6376 20.8273 12.5745 20.8517 12.529C20.8639 12.5063 20.8736 12.4879 20.8807 12.4741C20.8843 12.4672 20.8872 12.4615 20.8895 12.4571C20.8906 12.4548 20.8916 12.4529 20.8924 12.4512C20.8928 12.4504 20.8932 12.4497 20.8935 12.449C20.8937 12.4486 20.8939 12.4482 20.894 12.448C20.8942 12.4476 20.8944 12.4472 20 12ZM12 8C14.4199 8 16.1854 9.09321 17.3728 10.2241C17.9674 10.7904 18.4076 11.3583 18.6978 11.7829C18.8424 11.9945 18.9483 12.1685 19.0163 12.2859C19.0502 12.3446 19.0746 12.389 19.0895 12.4167C19.0969 12.4306 19.1019 12.4402 19.1046 12.4454C19.106 12.448 19.1067 12.4495 19.1069 12.4498C19.107 12.45 19.1069 12.4498 19.1067 12.4494C19.1066 12.4492 19.1064 12.4489 19.1062 12.4485C19.1061 12.4483 19.106 12.448 19.1059 12.4479C19.1058 12.4476 19.1056 12.4472 20 12C20.8944 11.5528 20.8942 11.5524 20.894 11.552C20.8939 11.5518 20.8937 11.5514 20.8935 11.551C20.8932 11.5503 20.8928 11.5496 20.8924 11.5488C20.8916 11.5471 20.8906 11.5452 20.8895 11.5429C20.8872 11.5385 20.8843 11.5328 20.8807 11.5259C20.8736 11.5121 20.8639 11.4937 20.8517 11.471C20.8273 11.4255 20.7926 11.3624 20.7474 11.2844C20.6572 11.1284 20.5248 10.9117 20.3491 10.6546C19.9986 10.1417 19.4701 9.4596 18.7522 8.77586C17.3146 7.40679 15.0801 6 12 6V8ZM4 12C4.89443 12.4472 4.89424 12.4476 4.89407 12.4479C4.89403 12.448 4.89386 12.4483 4.89377 12.4485C4.89359 12.4489 4.89344 12.4492 4.89333 12.4494C4.89312 12.4498 4.89305 12.45 4.89313 12.4498C4.89328 12.4495 4.89403 12.448 4.89538 12.4454C4.89806 12.4402 4.90311 12.4306 4.91055 12.4167C4.92543 12.389 4.94979 12.3446 4.98373 12.2859C5.0517 12.1685 5.15761 11.9945 5.30221 11.7829C5.59239 11.3583 6.03258 10.7904 6.62716 10.2241C7.81463 9.09321 9.5801 8 12 8V6C8.9199 6 6.68537 7.40679 5.24784 8.77586C4.52992 9.4596 4.00136 10.1417 3.65092 10.6546C3.4752 10.9117 3.34284 11.1284 3.2526 11.2844C3.20744 11.3624 3.17272 11.4255 3.14829 11.471C3.13607 11.4937 3.12641 11.5121 3.1193 11.5259C3.11575 11.5328 3.11283 11.5385 3.11054 11.5429C3.1094 11.5452 3.10841 11.5471 3.10758 11.5488C3.10717 11.5496 3.10679 11.5503 3.10646 11.551C3.10629 11.5514 3.10607 11.5518 3.10599 11.552C3.10577 11.5524 3.10557 11.5528 4 12ZM12 16C9.5801 16 7.81463 14.9068 6.62716 13.7759C6.03258 13.2096 5.59239 12.6417 5.30221 12.2171C5.15761 12.0055 5.0517 11.8315 4.98373 11.7141C4.94979 11.6554 4.92543 11.611 4.91055 11.5833C4.90311 11.5694 4.89806 11.5598 4.89538 11.5546C4.89403 11.552 4.89328 11.5505 4.89313 11.5502C4.89305 11.55 4.89312 11.5502 4.89333 11.5506C4.89344 11.5508 4.89359 11.5511 4.89377 11.5515C4.89386 11.5517 4.89403 11.552 4.89407 11.5521C4.89424 11.5524 4.89443 11.5528 4 12C3.10557 12.4472 3.10577 12.4476 3.10599 12.448C3.10607 12.4482 3.10629 12.4486 3.10646 12.449C3.10679 12.4497 3.10717 12.4504 3.10758 12.4512C3.10841 12.4529 3.1094 12.4548 3.11054 12.4571C3.11283 12.4615 3.11575 12.4672 3.1193 12.4741C3.12641 12.4879 3.13607 12.5063 3.14829 12.529C3.17272 12.5745 3.20744 12.6376 3.2526 12.7156C3.34284 12.8716 3.4752 13.0883 3.65092 13.3454C4.00136 13.8583 4.52992 14.5404 5.24784 15.2241C6.68537 16.5932 8.9199 18 12 18V16ZM14 12C14 13.1046 13.1046 14 12 14V16C14.2091 16 16 14.2091 16 12H14ZM12 10C13.1046 10 14 10.8954 14 12H16C16 9.79086 14.2091 8 12 8V10ZM10 12C10 10.8954 10.8954 10 12 10V8C9.79086 8 8 9.79086 8 12H10ZM12 14C10.8954 14 10 13.1046 10 12H8C8 14.2091 9.79086 16 12 16V14Z" fill="black" mask="url(#path-1-inside-1_1416_7937)"/>
</svg>
