<svg width="24" height="24" viewBox="0 0 24 24" fill="none" xmlns="http://www.w3.org/2000/svg">
<path d="M4.88938 12.4992C4.75067 12.2962 4.64498 12.125 4.57166 12C4.64498 11.8751 4.75067 11.7038 4.88938 11.5008C5.19463 11.0541 5.65692 10.4577 6.28233 9.86207C7.53231 8.67161 9.41505 7.5 12 7.5C14.5849 7.5 16.4677 8.67161 17.7177 9.86207C18.3431 10.4577 18.8054 11.0541 19.1106 11.5008C19.2493 11.7038 19.355 11.8751 19.4283 12C19.355 12.125 19.2493 12.2962 19.1106 12.4992C18.8054 12.9459 18.3431 13.5423 17.7177 14.1379C16.4677 15.3284 14.5849 16.5 12 16.5C9.41505 16.5 7.53231 15.3284 6.28233 14.1379C5.65692 13.5423 5.19463 12.9459 4.88938 12.4992Z" stroke="black"/>
<circle cx="12" cy="12" r="2.5" stroke="black"/>
</svg>
