<svg width="24" height="24" viewBox="0 0 24 24" fill="none" xmlns="http://www.w3.org/2000/svg">
<mask id="mask0_1269_7344" style="mask-type:alpha" maskUnits="userSpaceOnUse" x="8" y="4" width="8" height="10">
<path fill-rule="evenodd" clip-rule="evenodd" d="M15 10V8C15 6.34315 13.6569 5 12 5C10.3431 5 9 6.34315 9 8V10C9 11.6569 10.3431 13 12 13C13.6569 13 15 11.6569 15 10ZM12 4C9.79086 4 8 5.79086 8 8V10C8 12.2091 9.79086 14 12 14C14.2091 14 16 12.2091 16 10V8C16 5.79086 14.2091 4 12 4Z" fill="black"/>
</mask>
<g mask="url(#mask0_1269_7344)">
<path d="M8 4H16V9H8V4Z" fill="black"/>
</g>
<rect x="6.5" y="9.5" width="11" height="10" rx="1.5" stroke="black"/>
</svg>
