<svg fill="currentColor" height="24" viewBox="0 0 24 24" width="24" xmlns="http://www.w3.org/2000/svg">
  <path clip-rule="evenodd"
    d="m8.64815 16.5062-2.64815 1.0312v-10.23829l2.64815-1.03125zm1-.0132 4.18515 1.3038v-10.28978l-4.18515-1.30385zm4.68515-9.87762 4.0031-1.38569c.3248-.11243.6636.1288.6636.4725v10.97041c0 .4262-.2701.8055-.6729.9449l-3.9938 1.3825-5.18515-1.6154-2.78527 1.0847c-.6556.2553-1.36288-.2283-1.36288-.9319v-10.23829c0-.41224.25293-.78222.63708-.93182l3.51107-1.36729zm.5 11.15332 3.1667-1.0961v-10.26823l-3.1667 1.09615z"
    fill-rule="evenodd" />
</svg>