<svg fill="none" height="20" viewBox="0 0 20 20" width="20" xmlns="http://www.w3.org/2000/svg"><path clip-rule="evenodd" d="m7.12378 13.6086-1.95679.762v-8.17422l1.95679-.76201zm1-.0132 3.32102 1.0346v-8.22571l-3.32102-1.03461zm3.82102-8.08274 3.3359-1.15475c.2707-.09369.553.10733.553.39375v9.14194c0 .3552-.2252.6713-.5608.7875l-3.3281 1.1521-4.32102-1.3462-2.32106.9039c-.54633.2127-1.13573-.1902-1.13573-.7765v-8.53197c0-.34354.21078-.65185.5309-.77652l2.92589-1.13941zm.5 9.08924 2.3889-.8269v-8.20413l-2.3889.82693z" fill="#000" fill-rule="evenodd"/></svg>