<svg width="20" height="20" viewBox="0 0 20 20" xmlns="http://www.w3.org/2000/svg">
<path fill-rule="evenodd" clip-rule="evenodd" d="M7.12378 13.6086L5.16699 14.3706V6.19638L7.12378 5.43437V13.6086ZM8.12378 13.5954L11.4448 14.63V6.40429L8.12378 5.36968V13.5954ZM11.9448 5.51266L15.2807 4.35791C15.5514 4.26422 15.8337 4.46524 15.8337 4.75166V13.8936C15.8337 14.2488 15.6085 14.5649 15.2729 14.6811L11.9448 15.8332L7.62378 14.487L5.30272 15.3909C4.75639 15.6036 4.16699 15.2007 4.16699 14.6144V6.08243C4.16699 5.73889 4.37777 5.43058 4.69789 5.30591L7.62378 4.1665L11.9448 5.51266ZM12.4448 14.6019L14.8337 13.775V5.57087L12.4448 6.3978V14.6019Z"/>
</svg>
