<svg width="24" height="24" viewBox="0 0 24 24" fill="none" xmlns="http://www.w3.org/2000/svg">
<path d="M8 17.9773V15.5664C8 15.2656 8.26359 15.0329 8.56202 15.0703L12 15.5L8.83448 18.349C8.51272 18.6386 8 18.4102 8 17.9773Z" fill="black"/>
<path d="M12 15.5L8.83448 18.349C8.51272 18.6386 8 18.4102 8 17.9773V15.5664C8 15.2656 8.26359 15.0329 8.56202 15.0703L12 15.5ZM12 15.5H13" stroke="black"/>
<path d="M5 8C5 6.89543 5.89543 6 7 6H17C18.1046 6 19 6.89543 19 8V14C19 15.1046 18.1046 16 17 16H12H10.25H8.5H6.75V16C5.7835 16 5 15.2165 5 14.25V8Z" fill="black"/>
</svg>
