<svg width="24" height="24" viewBox="0 0 24 24" fill="none" xmlns="http://www.w3.org/2000/svg">
<path d="M8 15V17.9773C8 18.4102 8.51272 18.6386 8.83448 18.349L11.8574 15.6284C11.9492 15.5457 12.0683 15.5 12.1919 15.5H13" stroke="black"/>
<path fill-rule="evenodd" clip-rule="evenodd" d="M7 7H17C17.5523 7 18 7.44772 18 8V14C18 14.5523 17.5523 15 17 15H12V16H17C18.1046 16 19 15.1046 19 14V8C19 6.89543 18.1046 6 17 6H7C5.89543 6 5 6.89543 5 8V14.25C5 15.2165 5.7835 16 6.75 16H8V15H6.75C6.33579 15 6 14.6642 6 14.25V8C6 7.44772 6.44772 7 7 7Z" fill="black"/>
</svg>
