<svg width="24" height="24" viewBox="0 0 24 24" fill="black" xmlns="http://www.w3.org/2000/svg">
<path fill-rule="evenodd" clip-rule="evenodd" d="M14.5 11H9.5V10H14.5V11ZM16 11H8C7.44772 11 7 11.4477 7 12V18C7 18.5523 7.44772 19 8 19H16C16.5523 19 17 18.5523 17 18V12C17 11.4477 16.5523 11 16 11ZM8 10C6.89543 10 6 10.8954 6 12V18C6 19.1046 6.89543 20 8 20H16C17.1046 20 18 19.1046 18 18V12C18 10.8954 17.1046 10 16 10H8Z" fill=""/>
<path fill-rule="evenodd" clip-rule="evenodd" d="M12.5024 5L12.5024 15H11.5024L11.5025 5H12.5024Z" fill=""/>
<path fill-rule="evenodd" clip-rule="evenodd" d="M16.1741 7.99219L12.002 4L11.2795 4.69136L15.4516 8.68355L16.1741 7.99219Z" fill=""/>
<path fill-rule="evenodd" clip-rule="evenodd" d="M7.83008 7.99479L12.0013 4.00342L12.7238 4.69477L8.55259 8.68614L7.83008 7.99479Z" fill=""/>
</svg>
