<svg width="24" height="24" viewBox="0 0 24 24" fill="none" xmlns="http://www.w3.org/2000/svg">
<path fill-rule="evenodd" clip-rule="evenodd" d="M14.5 11.5H9.5V10H14.5V11.5ZM16 11.5H8C7.72386 11.5 7.5 11.7239 7.5 12V18C7.5 18.2761 7.72386 18.5 8 18.5H16C16.2761 18.5 16.5 18.2761 16.5 18V12C16.5 11.7239 16.2761 11.5 16 11.5ZM8 10C6.89543 10 6 10.8954 6 12V18C6 19.1046 6.89543 20 8 20H16C17.1046 20 18 19.1046 18 18V12C18 10.8954 17.1046 10 16 10H8Z" fill="currentColor"/>
<path fill-rule="evenodd" clip-rule="evenodd" d="M12.75 5L12.75 15L11.25 15L11.25 5L12.75 5Z" fill="currentColor"/>
<path fill-rule="evenodd" clip-rule="evenodd" d="M16.1716 7.99202L11.9995 3.99983L10.916 5.03662L15.0881 9.02881L16.1716 7.99202Z" fill="currentColor"/>
<path fill-rule="evenodd" clip-rule="evenodd" d="M7.82751 7.99487L11.9988 4.0035L13.0825 5.04053L8.91127 9.0319L7.82751 7.99487Z" fill="currentColor"/>
</svg>
