<svg width="82" height="28" viewBox="0 0 82 28" fill="none" xmlns="http://www.w3.org/2000/svg">
<g clip-path="url(#clip0_6476_49588)">
<path fill-rule="evenodd" clip-rule="evenodd" d="M28.2691 27.202C26.4921 27.202 24.9098 26.8125 23.5223 26.0335C22.1591 25.2302 21.088 24.1227 20.3091 22.7108C19.5301 21.2989 19.1406 19.6558 19.1406 17.7814C19.1406 15.8827 19.5179 14.2153 20.2726 12.7791C21.0515 11.3429 22.1226 10.2231 23.4858 9.4198C24.8733 8.6165 26.4799 8.21484 28.3056 8.21484C30.0826 8.21484 31.6283 8.6165 32.9428 9.4198C34.2573 10.1988 35.2797 11.2455 36.01 12.56C36.7402 13.8745 37.1054 15.3228 37.1054 16.9051C37.1054 17.1485 37.0932 17.4163 37.0689 17.7084C37.0689 17.9762 37.0567 18.2805 37.0324 18.6213H22.9381C23.0598 20.3739 23.6318 21.7127 24.6542 22.6378C25.7009 23.5384 26.9059 23.9888 28.2691 23.9888C29.3645 23.9888 30.2773 23.7453 31.0076 23.2585C31.7622 22.7473 32.3221 22.0657 32.6872 21.2137L32.7853 21.2249L36.1699 21.762L36.1848 21.7644L36.1719 21.8076C35.6911 23.3993 35.0423 24.3847 33.6366 25.4858C32.2004 26.6299 30.4112 27.202 28.2691 27.202ZM28.2719 11.2061C26.9817 11.2061 25.8376 11.5955 24.8396 12.3745C23.8415 13.1291 23.233 14.2732 23.0139 15.8068H33.2377C33.1647 14.3949 32.6657 13.2752 31.7407 12.4475C30.8156 11.6199 29.6594 11.2061 28.2719 11.2061Z" fill="white"/>
<path d="M67.7266 9.87695L72.1703 6.73823L68.3347 3.97428L69.5508 2.80312L73.4332 5.33283L73.3396 0.226562L75.7252 0.601334V4.20852L78.4849 2.24096L81.6189 4.81752L77.4559 7.86255L81.6189 10.5328L80.0753 12.4067L75.7719 9.31479L75.8187 15.0769L73.6671 14.5148L73.5735 10.7202L71.0009 12.594L67.7266 9.87695Z" fill="white"/>
<path fill-rule="evenodd" clip-rule="evenodd" d="M0.597656 0.46582V26.7557H4.46811V17.4082C4.46811 15.5095 4.94279 14.0489 5.89214 13.0265C6.86584 12.0042 8.08296 11.493 9.54351 11.493C12.3429 11.493 13.7426 13.2456 13.7426 16.7509V26.7557H17.5765V16.3493C17.5765 13.6473 16.9558 11.6147 15.7143 10.2515C14.4728 8.88832 12.7689 8.20673 10.6024 8.20673C9.28792 8.20673 8.08296 8.51101 6.98755 9.11957C5.91649 9.70379 5.07667 10.5193 4.46811 11.566V1.08325L0.597656 0.46582ZM39.0768 26.7557V8.64489H42.8742V12.0772C43.5071 10.8844 44.3835 9.94721 45.5032 9.26562C46.6473 8.55969 48.0227 8.20673 49.6293 8.20673V12.2598H48.5704C47.4993 12.2598 46.5378 12.4423 45.6858 12.8075C44.8581 13.1482 44.1887 13.7446 43.6775 14.5966C43.1907 15.4243 42.9473 16.5805 42.9473 18.0654V26.7557H39.0768ZM53.9821 26.0254C55.3696 26.8044 56.9519 27.1939 58.7289 27.1939C60.871 27.1939 62.6602 26.6218 64.0964 25.4777C65.5021 24.3765 66.1509 23.3912 66.6317 21.7995L66.6446 21.7563L66.6297 21.7539L63.2451 21.2168L63.147 21.2056C62.7819 22.0576 62.222 22.7392 61.4674 23.2504C60.7371 23.7372 59.8243 23.9807 58.7289 23.9807C57.3657 23.9807 56.1607 23.5303 55.114 22.6296C54.0916 21.7046 53.5196 20.3658 53.3979 18.6131H67.4922C67.5165 18.2723 67.5287 17.9681 67.5287 17.7003C67.553 17.4082 67.5652 17.1404 67.5652 16.897C67.5652 15.3147 67.2001 13.8664 66.4698 12.5519C65.7395 11.2374 64.7171 10.1906 63.4026 9.41168C62.0881 8.60838 60.5424 8.20673 58.7654 8.20673C56.9397 8.20673 55.3331 8.60838 53.9456 9.41168C52.5824 10.215 51.5113 11.3347 50.7324 12.7709C49.9778 14.2071 49.6004 15.8746 49.6004 17.7733C49.6004 19.6477 49.9899 21.2908 50.7689 22.7027C51.5478 24.1145 52.6189 25.2221 53.9821 26.0254ZM55.2966 12.5519C56.2946 11.7729 57.4387 11.3834 58.7289 11.3834C60.1164 11.3834 61.2727 11.7972 62.1977 12.6249C63.1227 13.4525 63.6217 14.5723 63.6947 15.9841H53.4709C53.69 14.4506 54.2986 13.3065 55.2966 12.5519Z" fill="white"/>
</g>
<defs>
<clipPath id="clip0_6476_49588">
<rect width="82" height="28" fill="white"/>
</clipPath>
</defs>
</svg>
