<svg width="20" height="20" viewBox="0 0 20 20" fill="none" xmlns="http://www.w3.org/2000/svg">
<path d="M14.833 5.16992L12.1943 6.08398V14.6396L14.833 13.7275V5.16992ZM7.87305 13.5762L11.3613 14.6641V6.08887L7.87305 5.00195V13.5762ZM15.6562 13.8584C15.6085 14.1583 15.3991 14.413 15.1055 14.5146L11.7773 15.667L7.45703 14.3203L5.13574 15.2246L5.0332 15.2568C4.55255 15.3773 4.06923 15.0472 4.00684 14.5557L4 14.4482V5.91602C4 5.61544 4.16125 5.34157 4.41602 5.19434L4.53125 5.13965L7.45703 4L11.7773 5.3457L15.1133 4.19141C15.3839 4.09774 15.6669 4.29865 15.667 4.58496V13.7275L15.6562 13.8584ZM4.83301 14.4482L7.04004 13.5879V5.05566L4.83301 5.91602V14.4482Z" fill="black"/>
</svg>
