<svg width="24" height="24" viewBox="0 0 24 24" fill="none" xmlns="http://www.w3.org/2000/svg">
<path d="M16 10C17.1046 10 18 10.8954 18 12V18C18 19.1046 17.1046 20 16 20H8C6.89543 20 6 19.1046 6 18V12C6 10.8954 6.89543 10 8 10H9.5V11.5H8C7.72386 11.5 7.5 11.7239 7.5 12V18C7.5 18.2761 7.72386 18.5 8 18.5H16C16.2761 18.5 16.5 18.2761 16.5 18V12C16.5 11.7239 16.2761 11.5 16 11.5H14.5V10H16Z" fill="#DAFF70"/>
<path fill-rule="evenodd" clip-rule="evenodd" d="M12.75 5L12.75 15L11.25 15L11.25 5L12.75 5Z" fill="#DAFF70"/>
<path fill-rule="evenodd" clip-rule="evenodd" d="M16.1697 7.99226L11.9976 4.00007L10.9141 5.03687L15.0862 9.02906L16.1697 7.99226Z" fill="#DAFF70"/>
<path fill-rule="evenodd" clip-rule="evenodd" d="M7.82702 7.99487L11.9983 4.0035L13.082 5.04053L8.91078 9.0319L7.82702 7.99487Z" fill="#DAFF70"/>
</svg>
