<svg width="20" height="20" viewBox="0 0 24 24" fill="none" xmlns="http://www.w3.org/2000/svg">
<path d="M13 8.5H7C6.17157 8.5 5.5 9.17157 5.5 10V17C5.5 17.8284 6.17157 18.5 7 18.5H13C13.8284 18.5 14.5 17.8284 14.5 17V10C14.5 9.17157 13.8284 8.5 13 8.5Z" stroke="currentColor" stroke-width="1.5"/>
<path d="M9.5 7C9.5 6.17157 10.1716 5.5 11 5.5H17C17.8284 5.5 18.5 6.17157 18.5 7V14C18.5 14.8284 17.8284 15.5 17 15.5H11C10.1716 15.5 9.5 14.8284 9.5 14V7Z" stroke="currentColor" stroke-width="1.5"/>
</svg>
