<svg width="222" height="88" viewBox="0 0 222 88" fill="none" xmlns="http://www.w3.org/2000/svg">
<g clip-path="url(#clip0_6810_39734)">
<rect y="37.508" width="216" height="51" rx="16" transform="rotate(-10 0 37.508)" fill="#6295DF"/>
<path d="M35.3316 64.9901L34.3887 58.8172L29.833 62.9326L28.5813 61.3886L33.3526 57.5202L27.546 55.5171L28.1942 53.6381L33.8827 55.9472L32.6574 49.8241L34.583 49.4845L35.5259 55.6575L40.0816 51.542L41.3333 53.086L36.562 56.9544L42.3686 58.9575L41.7204 60.8365L36.0319 58.5274L37.2572 64.6505L35.3316 64.9901Z" fill="black"/>
<path d="M60.8925 59.4268C60.0731 59.5713 59.2773 59.5112 58.505 59.2466C57.7326 58.9821 57.0536 58.479 56.4679 57.7374C55.8909 56.9835 55.4876 55.9553 55.2579 54.6527L55.2023 54.3376C55.0356 53.3921 55.0181 52.5558 55.1498 51.8285C55.2816 51.1013 55.5239 50.4791 55.8768 49.962C56.2297 49.4448 56.6659 49.0321 57.1856 48.7239C57.714 48.4032 58.2828 48.1892 58.8921 48.0818C59.4908 47.9762 60.051 47.9587 60.5725 48.0292C61.1045 48.0979 61.5855 48.2459 62.0155 48.4734C62.4456 48.7008 62.8141 49.0095 63.1211 49.3994C63.4387 49.7875 63.6771 50.2491 63.8365 50.7843L62.2608 51.0621C61.9878 50.3737 61.5834 49.8926 61.0477 49.6188C60.512 49.345 59.8713 49.2739 59.1255 49.4054C58.6107 49.4961 58.1402 49.7145 57.7138 50.0605C57.2874 50.4064 56.9808 50.91 56.7941 51.5711C56.6056 52.2217 56.6002 53.0513 56.778 54.0597L56.8336 54.3749C56.9744 55.1732 57.1822 55.8298 57.4571 56.3445C57.7425 56.8574 58.0671 57.2551 58.431 57.5375C58.7931 57.8094 59.1657 57.9874 59.5488 58.0715C59.9423 58.1538 60.3125 58.1643 60.6591 58.1032C61.4785 57.9587 62.0841 57.6461 62.4759 57.1655C62.8677 56.6848 63.0553 56.121 63.0387 55.474L64.6144 55.1962C64.6378 55.8203 64.5624 56.3752 64.388 56.8608C64.2137 57.3465 63.9572 57.7654 63.6186 58.1175C63.2886 58.4573 62.8887 58.739 62.4191 58.9626C61.9581 59.1739 61.4492 59.3286 60.8925 59.4268ZM71.8386 57.4967C71.2084 57.6078 70.5806 57.6102 69.9553 57.5038C69.3386 57.3851 68.7594 57.1406 68.2175 56.7705C67.6757 56.4003 67.2061 55.8873 66.8089 55.2317C66.4222 54.5742 66.1418 53.7517 65.9677 52.7643L65.9121 52.4491C65.7454 51.5037 65.7332 50.6665 65.8754 49.9373C66.0281 49.2064 66.2967 48.5796 66.6811 48.0569C67.0636 47.5237 67.5253 47.1011 68.066 46.7891C68.6172 46.4753 69.2079 46.2628 69.8382 46.1517C70.4685 46.0406 71.091 46.0391 71.7058 46.1473C72.3311 46.2537 72.9147 46.492 73.4566 46.8622C73.9966 47.2219 74.4581 47.72 74.8411 48.3565C75.2346 48.9911 75.5147 49.7811 75.6814 50.7265L75.737 51.0417C75.9111 52.0291 75.9236 52.8988 75.7746 53.6508C75.6361 54.4009 75.3756 55.0426 74.993 55.5758C74.6104 56.1089 74.1445 56.5377 73.5951 56.862C73.0544 57.174 72.4689 57.3855 71.8386 57.4967ZM71.6053 56.1731C72.183 56.0712 72.6937 55.8349 73.1375 55.4643C73.5917 55.0917 73.9208 54.5625 74.1248 53.8767C74.3288 53.1909 74.3409 52.3385 74.1613 51.3195L74.1057 51.0044C73.9353 50.038 73.6397 49.2831 73.219 48.7399C72.7965 48.1862 72.3081 47.812 71.7538 47.6173C71.2101 47.4208 70.6494 47.3734 70.0716 47.4753C69.5044 47.5753 68.9936 47.8116 68.5394 48.1841C68.0852 48.5566 67.7542 49.0753 67.5465 49.7402C67.337 50.3945 67.3174 51.2049 67.4878 52.1713L67.5434 52.4864C67.723 53.5054 68.026 54.3022 68.4523 54.8769C68.8786 55.4516 69.3688 55.8363 69.923 56.0311C70.4773 56.2258 71.038 56.2731 71.6053 56.1731ZM79.2203 56.0326L77.2754 45.0028L78.8196 44.7305L83.7431 51.0922L86.1939 43.4302L87.675 43.1691L89.6199 54.1989L88.1387 54.4601L86.6662 46.1089L84.5548 52.655L83.4518 52.8495L79.2289 47.4203L80.7015 55.7715L79.2203 56.0326ZM92.9344 53.6145L90.9895 42.5846L92.4707 42.3235L94.4155 53.3533L92.9344 53.6145ZM97.7316 52.7686L95.7868 41.7387L97.2364 41.4831L104.675 49.026L103.161 40.4385L104.611 40.1828L106.555 51.2127L105.106 51.4683L97.667 43.9254L99.1813 52.513L97.7316 52.7686ZM113.907 50.079C113.045 50.2309 112.213 50.1773 111.409 49.9183C110.615 49.6574 109.926 49.1562 109.34 48.4146C108.753 47.6626 108.344 46.6352 108.114 45.3327L108.059 45.0175C107.892 44.0721 107.875 43.2358 108.006 42.5085C108.138 41.7813 108.386 41.1581 108.749 40.6392C109.123 40.1183 109.58 39.7019 110.121 39.39C110.66 39.0675 111.255 38.8488 111.906 38.734C112.442 38.6395 112.955 38.6303 113.445 38.7064C113.933 38.772 114.386 38.9141 114.803 39.1329C115.221 39.3517 115.592 39.6437 115.916 40.009C116.251 40.3723 116.527 40.8003 116.744 41.2928L115.168 41.5706C114.94 41.1343 114.658 40.7942 114.322 40.55C113.997 40.3041 113.644 40.1443 113.263 40.0707C112.892 39.9953 112.518 39.9909 112.14 40.0576C111.572 40.1576 111.065 40.3824 110.618 40.7321C110.17 41.0818 109.848 41.5881 109.651 42.2511C109.462 42.9017 109.457 43.7312 109.634 44.7397L109.69 45.0548C109.831 45.8532 110.044 46.5088 110.329 47.0217C110.615 47.5346 110.939 47.9323 111.303 48.2147C111.676 48.4848 112.064 48.66 112.468 48.7404C112.883 48.8189 113.285 48.8239 113.673 48.7554C114.261 48.6517 114.752 48.4568 115.146 48.1708C115.548 47.8724 115.84 47.4689 116.021 46.9604C116.211 46.4395 116.266 45.8016 116.187 45.0465L113.43 45.5327L113.208 44.2721L117.383 43.5359L117.467 44.0086C117.617 44.8594 117.645 45.6343 117.551 46.3331C117.467 47.0196 117.265 47.6239 116.945 48.146C116.634 48.6557 116.221 49.0752 115.705 49.4045C115.199 49.7319 114.6 49.9567 113.907 50.079ZM128.247 47.5504C127.364 47.706 126.605 47.6991 125.968 47.5297C125.342 47.3585 124.831 47.0695 124.435 46.6629C124.036 46.2458 123.734 45.7628 123.529 45.2141L125.01 44.9529C125.211 45.4158 125.547 45.7844 126.018 46.0588C126.487 46.3227 127.152 46.3787 128.013 46.2269C128.896 46.0713 129.533 45.7856 129.925 45.3698C130.328 44.9521 130.486 44.4965 130.399 44.0027C130.327 43.5931 130.175 43.2841 129.943 43.0758C129.71 42.857 129.358 42.7025 128.887 42.6122C128.425 42.5096 127.806 42.44 127.03 42.4034C126.179 42.3693 125.47 42.2778 124.902 42.1288C124.334 41.9798 123.888 41.7227 123.564 41.3575C123.24 40.9922 123.018 40.4735 122.9 39.8012C122.803 39.2549 122.87 38.7396 123.098 38.2552C123.336 37.7585 123.72 37.3278 124.251 36.9633C124.783 36.5989 125.448 36.3462 126.246 36.2055C127.034 36.0665 127.714 36.0821 128.285 36.2521C128.857 36.4221 129.329 36.7017 129.7 37.0911C130.071 37.4699 130.351 37.9241 130.542 38.4537L129.061 38.7148C128.878 38.2922 128.586 37.9591 128.186 37.7156C127.794 37.4597 127.225 37.3975 126.48 37.529C125.723 37.6624 125.163 37.9237 124.798 38.3129C124.442 38.6898 124.303 39.0988 124.381 39.54C124.483 40.1178 124.773 40.5052 125.252 40.7024C125.729 40.8891 126.459 41.0041 127.441 41.0475C128.15 41.0742 128.763 41.1395 129.279 41.2433C129.806 41.3454 130.245 41.5008 130.596 41.7097C130.956 41.9063 131.235 42.1711 131.435 42.5042C131.645 42.8354 131.793 43.2479 131.88 43.7416C131.98 44.3088 131.904 44.8584 131.651 45.3904C131.407 45.91 130.999 46.361 130.428 46.7435C129.856 47.1259 129.129 47.3949 128.247 47.5504ZM139.113 45.6343C138.483 45.7455 137.855 45.7479 137.23 45.6415C136.613 45.5228 136.034 45.2783 135.492 44.9081C134.95 44.5379 134.481 44.025 134.084 43.3693C133.697 42.7118 133.416 41.8894 133.242 40.9019L133.187 40.5868C133.02 39.6414 133.008 38.8041 133.15 38.075C133.303 37.344 133.571 36.7172 133.956 36.1945C134.338 35.6613 134.8 35.2387 135.341 34.9268C135.892 34.613 136.483 34.4005 137.113 34.2894C137.743 34.1782 138.366 34.1768 138.981 34.285C139.606 34.3913 140.189 34.6296 140.731 34.9998C141.271 35.3595 141.733 35.8576 142.116 36.4941C142.509 37.1288 142.789 37.9188 142.956 38.8642L143.012 39.1793C143.186 40.1668 143.198 41.0365 143.049 41.7884C142.911 42.5386 142.65 43.1802 142.268 43.7134C141.885 44.2466 141.419 44.6754 140.87 44.9997C140.329 45.3117 139.744 45.5232 139.113 45.6343ZM138.88 44.3108C139.458 44.2089 139.968 43.9726 140.412 43.6019C140.866 43.2294 141.195 42.7002 141.399 42.0144C141.603 41.3285 141.616 40.4761 141.436 39.4572L141.38 39.142C141.21 38.1756 140.914 37.4208 140.494 36.8776C140.071 36.3239 139.583 35.9497 139.029 35.755C138.485 35.5584 137.924 35.5111 137.346 35.6129C136.779 35.713 136.268 35.9492 135.814 36.3218C135.36 36.6943 135.029 37.213 134.821 37.8778C134.612 38.5321 134.592 39.3425 134.762 40.309L134.818 40.6241C134.998 41.643 135.301 42.4399 135.727 43.0146C136.153 43.5893 136.643 43.974 137.198 44.1687C137.752 44.3634 138.313 44.4108 138.88 44.3108ZM150.777 43.5777C150.147 43.6888 149.519 43.6912 148.894 43.5848C148.277 43.4661 147.698 43.2217 147.156 42.8515C146.614 42.4813 146.145 41.9683 145.747 41.3127C145.361 40.6552 145.08 39.8327 144.906 38.8453L144.851 38.5301C144.684 37.5847 144.672 36.7475 144.814 36.0184C144.967 35.2874 145.235 34.6606 145.62 34.1379C146.002 33.6047 146.464 33.1821 147.004 32.8701C147.556 32.5563 148.146 32.3438 148.777 32.2327C149.407 32.1216 150.03 32.1201 150.644 32.2283C151.27 32.3347 151.853 32.573 152.395 32.9432C152.935 33.3029 153.397 33.801 153.78 34.4375C154.173 35.0721 154.453 35.8621 154.62 36.8076L154.675 37.1227C154.85 38.1101 154.862 38.9798 154.713 39.7318C154.575 40.4819 154.314 41.1236 153.932 41.6568C153.549 42.19 153.083 42.6187 152.534 42.943C151.993 43.255 151.407 43.4666 150.777 43.5777ZM150.544 42.2541C151.122 42.1522 151.632 41.916 152.076 41.5453C152.53 41.1727 152.859 40.6436 153.063 39.9577C153.267 39.2719 153.279 38.4195 153.1 37.4005L153.044 37.0854C152.874 36.119 152.578 35.3642 152.158 34.821C151.735 34.2673 151.247 33.893 150.692 33.6983C150.149 33.5018 149.588 33.4544 149.01 33.5563C148.443 33.6563 147.932 33.8926 147.478 34.2651C147.024 34.6377 146.693 35.1563 146.485 35.8212C146.275 36.4755 146.256 37.2859 146.426 38.2523L146.482 38.5674C146.662 39.5864 146.965 40.3832 147.391 40.9579C147.817 41.5326 148.307 41.9174 148.862 42.1121C149.416 42.3068 149.977 42.3541 150.544 42.2541ZM158.159 42.1136L156.214 31.0838L157.664 30.8282L165.102 38.371L163.588 29.7835L165.038 29.5279L166.983 40.5578L165.533 40.8134L158.094 33.2705L159.608 41.858L158.159 42.1136Z" fill="black"/>
<path d="M186.996 38.2484L186.053 32.0755L181.497 36.1909L180.245 34.6469L185.017 30.7785L179.21 28.7754L179.858 26.8964L185.547 29.2055L184.321 23.0824L186.247 22.7428L187.19 28.9158L191.746 24.8003L192.997 26.3443L188.226 30.2127L194.033 32.2158L193.384 34.0948L187.696 31.7857L188.921 37.9088L186.996 38.2484Z" fill="black"/>
</g>
<defs>
<clipPath id="clip0_6810_39734">
<rect y="37.508" width="216" height="51" rx="16" transform="rotate(-10 0 37.508)" fill="white"/>
</clipPath>
</defs>
</svg>
