<svg width="263" height="153" viewBox="0 0 263 153" fill="none" xmlns="http://www.w3.org/2000/svg">
<g clip-path="url(#clip0_5889_79808)">
<ellipse cx="131" cy="76.4991" rx="115" ry="55.5" transform="rotate(-7 131 76.4991)" fill="black"/>
<path d="M81.7191 77.1891C80.7186 77.3119 79.8659 77.2595 79.1609 77.0317C78.4678 76.8025 77.9104 76.4477 77.4887 75.9675C77.0656 75.4754 76.755 74.9151 76.5569 74.2866L78.2363 74.0804C78.4346 74.6122 78.7901 75.0461 79.3029 75.3821C79.8142 75.7062 80.5582 75.8083 81.5349 75.6884C82.5353 75.5655 83.2683 75.2821 83.7336 74.8381C84.2109 74.3926 84.4152 73.8899 84.3464 73.3301C84.2894 72.8656 84.1369 72.5096 83.8888 72.2619C83.6393 72.0024 83.2528 71.8081 82.7291 71.6789C82.2159 71.5364 81.5248 71.4218 80.6558 71.335C79.7019 71.2466 78.9104 71.102 78.2812 70.9012C77.652 70.7004 77.166 70.3853 76.8231 69.9559C76.4802 69.5264 76.262 68.9306 76.1684 68.1683C76.0923 67.549 76.197 66.9739 76.4825 66.4432C76.7784 65.8991 77.2356 65.4379 77.8541 65.0597C78.4726 64.6815 79.2345 64.4368 80.1397 64.3257C81.033 64.216 81.7957 64.2735 82.4278 64.4981C83.0599 64.7228 83.5734 65.0647 83.9683 65.524C84.3617 65.9714 84.6501 66.4982 84.8333 67.1044L83.1539 67.3106C82.9734 66.825 82.6654 66.4336 82.23 66.1365C81.8049 65.8259 81.1696 65.7226 80.324 65.8264C79.4664 65.9317 78.8213 66.1923 78.3888 66.6081C77.9667 67.0105 77.7864 67.4619 77.8478 67.9621C77.9282 68.6172 78.2316 69.0696 78.758 69.3193C79.2829 69.5571 80.0959 69.7293 81.1971 69.8359C81.9918 69.9076 82.6762 70.017 83.2504 70.1641C83.8365 70.3098 84.3206 70.5103 84.7025 70.7656C85.095 71.0076 85.3934 71.3216 85.598 71.7075C85.8145 72.092 85.9571 72.5641 86.0258 73.1239C86.1048 73.7671 85.9866 74.3801 85.6713 74.9629C85.3664 75.5323 84.8816 76.0149 84.2169 76.4109C83.5522 76.8068 82.7196 77.0662 81.7191 77.1891ZM91.9322 75.7537L90.5765 64.7126L86.2351 65.2457L86.0553 63.7807L96.4174 62.5084L96.5973 63.9734L92.2559 64.5064L93.6116 75.5475L91.9322 75.7537ZM97.2391 75.1021L100.492 62.0082L102.171 61.8019L108.495 73.7201L106.672 73.9439L105.094 70.9822L99.8052 71.6315L98.9899 74.8872L97.2391 75.1021ZM100.179 70.0985L104.36 69.5852L101.559 64.0533L100.179 70.0985ZM110.637 73.4571L109.101 60.951L113.479 60.4135C114.527 60.2848 115.417 60.3448 116.148 60.5935C116.891 60.8288 117.476 61.2104 117.903 61.7382C118.329 62.2541 118.586 62.8694 118.674 63.584C118.776 64.4178 118.616 65.181 118.193 65.8737C117.781 66.553 117.108 67.0769 116.174 67.4455L120.106 72.2944L118.123 72.5379L114.521 67.8661L111.698 68.2127L112.316 73.2509L110.637 73.4571ZM111.522 66.7834L114.041 66.4741C115.197 66.3323 115.999 66.0222 116.448 65.5439C116.896 65.0537 117.078 64.4692 116.994 63.7903C116.911 63.1114 116.594 62.5942 116.042 62.2387C115.489 61.8714 114.635 61.7586 113.48 61.9005L110.961 62.2098L111.522 66.7834ZM125.518 71.6299L124.162 60.5888L119.821 61.1219L119.641 59.6569L130.003 58.3846L130.183 59.8496L125.842 60.3826L127.197 71.4237L125.518 71.6299ZM141.421 69.6773L140.813 64.7285L135.008 57.7701L136.937 57.5332L141.422 62.8946L144.226 56.6382L146.084 56.41L142.492 64.5223L143.1 69.4711L141.421 69.6773ZM153.884 68.3284C153.169 68.4161 152.464 68.3818 151.768 68.2255C151.082 68.0558 150.445 67.7471 149.858 67.2993C149.271 66.8515 148.774 66.2476 148.366 65.4876C147.971 64.7262 147.704 63.7856 147.567 62.666L147.523 62.3087C147.391 61.2368 147.427 60.2954 147.629 59.4847C147.844 58.6725 148.183 57.9841 148.645 57.4195C149.106 56.843 149.65 56.3954 150.276 56.0768C150.914 55.7567 151.59 55.5527 152.304 55.465C153.019 55.3772 153.719 55.4123 154.403 55.57C155.099 55.7263 155.741 56.0284 156.328 56.4762C156.913 56.9121 157.402 57.4989 157.795 58.2365C158.2 58.9727 158.468 59.8767 158.6 60.9487L158.643 61.306C158.781 62.4256 158.744 63.4034 158.532 64.2394C158.332 65.074 158.002 65.7795 157.541 66.356C157.08 66.9325 156.531 67.3868 155.895 67.7188C155.269 68.0374 154.598 68.2406 153.884 68.3284ZM153.7 66.8277C154.355 66.7472 154.942 66.5118 155.463 66.1215C155.995 65.7297 156.396 65.1546 156.665 64.3961C156.935 63.6376 156.999 62.6807 156.857 61.5253L156.813 61.168C156.678 60.0723 156.391 59.2069 155.95 58.5718C155.508 57.9249 154.981 57.4757 154.37 57.2243C153.771 56.9715 153.144 56.8853 152.489 56.9657C151.845 57.0447 151.258 57.2801 150.726 57.6718C150.193 58.0636 149.791 58.6269 149.518 59.3615C149.245 60.0843 149.175 60.9936 149.309 62.0894L149.353 62.4467C149.495 63.602 149.789 64.515 150.234 65.1858C150.679 65.8566 151.207 66.3176 151.818 66.569C152.429 66.8204 153.056 66.9066 153.7 66.8277ZM167.019 66.7155C166.031 66.8369 165.144 66.7524 164.359 66.4619C163.572 66.1595 162.928 65.6402 162.426 64.9038C161.923 64.1555 161.597 63.1739 161.448 61.959L160.549 54.634L162.228 54.4278L163.128 61.7528C163.294 63.1106 163.701 64.0582 164.347 64.5954C164.993 65.1326 165.823 65.3391 166.835 65.2148C167.848 65.0905 168.602 64.6895 169.099 64.0119C169.597 63.3343 169.762 62.3165 169.595 60.9587L168.696 53.6337L170.375 53.4275L171.274 60.7525C171.424 61.9674 171.345 62.9987 171.038 63.8464C170.729 64.6823 170.23 65.342 169.54 65.8258C168.86 66.2961 168.02 66.5927 167.019 66.7155ZM175.313 65.5158L173.778 53.0097L178.155 52.4723C179.203 52.3436 180.093 52.4036 180.825 52.6522C181.567 52.8876 182.152 53.2691 182.579 53.797C183.005 54.3129 183.262 54.9282 183.35 55.6428C183.452 56.4765 183.292 57.2397 182.87 57.9324C182.457 58.6117 181.784 59.1357 180.85 59.5042L184.782 64.3532L182.799 64.5967L179.197 59.9248L176.374 60.2714L176.993 65.3096L175.313 65.5158ZM176.199 58.8422L178.718 58.5329C179.873 58.391 180.675 58.0809 181.124 57.6026C181.572 57.1124 181.754 56.5279 181.671 55.849C181.587 55.1701 181.27 54.6529 180.719 54.2975C180.166 53.9301 179.312 53.8174 178.156 53.9592L175.637 54.2685L176.199 58.8422Z" fill="#FFFBF7"/>
<path d="M76.7977 100.281L76.3559 95.8428L72.9524 98.608L72.1173 97.4599L75.6653 94.8789L71.5983 93.233L72.1309 91.9169L76.1022 93.7767L75.4571 89.3632L76.8433 89.193L77.2851 93.6314L80.6886 90.8662L81.5237 92.0143L77.9757 94.5953L82.0427 96.2412L81.5101 97.5573L77.5388 95.6975L78.1839 100.111L76.7977 100.281Z" fill="#FFFBF7"/>
<path d="M94.4414 99.6259L92.9059 87.1198L97.1937 86.5933C98.3014 86.4573 99.227 86.5129 99.9707 86.7601C100.725 86.994 101.31 87.3815 101.727 87.9227C102.143 88.452 102.397 89.0918 102.489 89.8422C102.58 90.5807 102.488 91.2629 102.214 91.8889C101.941 92.515 101.467 93.0386 100.793 93.4598C100.13 93.8677 99.2446 94.1396 98.137 94.2756L95.5285 94.5959L96.1208 99.4197L94.4414 99.6259ZM95.3487 93.1309L97.8677 92.8216C99.0588 92.6754 99.8662 92.3586 100.29 91.8713C100.726 91.3826 100.899 90.7749 100.81 90.0484C100.72 89.3219 100.405 88.7742 99.8644 88.4054C99.3354 88.0351 98.4753 87.9231 97.2842 88.0693L94.7652 88.3786L95.3487 93.1309ZM106.148 98.1884L104.613 85.6824L106.292 85.4762L107.648 96.5172L114.008 95.7363L114.188 97.2013L106.148 98.1884ZM115.449 97.0465L118.702 83.9525L120.381 83.7463L126.705 95.6645L124.882 95.8882L123.304 92.9265L118.015 93.5759L117.2 96.8315L115.449 97.0465ZM118.389 92.0429L122.57 91.5295L119.769 85.9977L118.389 92.0429ZM130.337 95.2185L129.729 90.2696L123.924 83.3113L125.854 83.0743L130.338 88.4357L133.143 82.1793L135.001 81.9512L131.409 90.0634L132.016 95.0123L130.337 95.2185ZM138.495 94.2167L136.96 81.7107L138.639 81.5045L139.995 92.5455L146.355 91.7646L146.535 93.2296L138.495 94.2167ZM148.863 92.9437L147.328 80.4377L149.007 80.2315L150.543 92.7375L148.863 92.9437ZM158.255 91.9719C157.254 92.0948 156.402 92.0423 155.697 91.8145C155.004 91.5853 154.446 91.2306 154.024 90.7504C153.601 90.2583 153.291 89.698 153.093 89.0694L154.772 88.8632C154.97 89.395 155.326 89.8289 155.839 90.1649C156.35 90.489 157.094 90.5911 158.071 90.4712C159.071 90.3484 159.804 90.0649 160.269 89.6209C160.747 89.1754 160.951 88.6728 160.882 88.113C160.825 87.6485 160.673 87.2924 160.425 87.0448C160.175 86.7853 159.789 86.5909 159.265 86.4618C158.752 86.3193 158.061 86.2046 157.192 86.1179C156.238 86.0295 155.446 85.8849 154.817 85.684C154.188 85.4832 153.702 85.1681 153.359 84.7387C153.016 84.3093 152.798 83.7134 152.704 82.9512C152.628 82.3318 152.733 81.7568 153.018 81.226C153.314 80.6819 153.771 80.2207 154.39 79.8426C155.008 79.4644 155.77 79.2197 156.675 79.1085C157.569 78.9989 158.331 79.0563 158.964 79.281C159.596 79.5056 160.109 79.8476 160.504 80.3069C160.897 80.7543 161.186 81.2811 161.369 81.8872L159.69 82.0934C159.509 81.6078 159.201 81.2164 158.766 80.9193C158.341 80.6088 157.705 80.5054 156.86 80.6093C156.002 80.7146 155.357 80.9751 154.925 81.3909C154.502 81.7934 154.322 82.2447 154.384 82.745C154.464 83.4 154.767 83.8524 155.294 84.1022C155.819 84.34 156.632 84.5122 157.733 84.6187C158.527 84.6904 159.212 84.7998 159.786 84.947C160.372 85.0926 160.856 85.2931 161.238 85.5485C161.631 85.7905 161.929 86.1044 162.134 86.4904C162.35 86.8748 162.493 87.347 162.562 87.9068C162.641 88.55 162.522 89.1629 162.207 89.7457C161.902 90.3151 161.417 90.7978 160.753 91.1937C160.088 91.5897 159.255 91.8491 158.255 91.9719ZM168.468 90.5366L167.112 79.4955L162.771 80.0285L162.591 78.5636L172.953 77.2912L173.133 78.7562L168.792 79.2893L170.147 90.3304L168.468 90.5366Z" fill="#FFFBF7"/>
<path d="M188.954 86.51L188.512 82.0715L185.109 84.8368L184.274 83.6887L187.822 81.1077L183.755 79.4617L184.287 78.1457L188.258 80.0054L187.613 75.592L189 75.4218L189.441 79.8602L192.845 77.095L193.68 78.243L190.132 80.824L194.199 82.47L193.666 83.786L189.695 81.9263L190.34 86.3397L188.954 86.51Z" fill="#FFFBF7"/>
</g>
<defs>
<clipPath id="clip0_5889_79808">
<rect width="230" height="111" fill="white" transform="translate(10.0938 35.4277) rotate(-7)"/>
</clipPath>
</defs>
</svg>
