<svg width="181" height="60" viewBox="0 0 181 60" fill="none" xmlns="http://www.w3.org/2000/svg">
<rect x="0.839844" width="180" height="57.1462" rx="10.2735" transform="rotate(0.840254 0.839844 0)" fill="#DAFF70"/>
<g clip-path="url(#clip0_5733_71713)">
<path d="M143.333 26.5987L143.512 21.8288L139.5 24.2635L138.783 22.9244L142.921 20.7062L138.849 18.3675L139.606 17.05L143.545 19.6014L143.505 14.8283L145 14.8502L144.82 19.6201L148.832 17.1853L149.55 18.5244L145.412 20.7427L149.483 23.0814L148.726 24.3988L144.788 21.8475L144.827 26.6206L143.333 26.5987Z" fill="black"/>
<path d="M32.8366 44.2432L33.0162 39.4733L29.0043 41.908L28.2865 40.569L32.4247 38.3507L28.3534 36.012L29.1101 34.6946L33.0488 37.2459L33.0092 32.4728L34.5037 32.4947L34.3241 37.2646L38.336 34.8299L39.0537 36.1689L34.9155 38.3872L38.9869 40.7259L38.2302 42.0433L34.2914 39.492L34.3311 44.2651L32.8366 44.2432Z" fill="black"/>
<path d="M71.054 44.9291L71.0714 43.7427L75.4407 40.0617C75.8879 39.6983 76.2316 39.3797 76.4719 39.1059C76.7124 38.8217 76.8756 38.5518 76.9616 38.2962C77.0578 38.0407 77.1081 37.7641 77.1124 37.4662C77.1213 36.8601 76.9489 36.3593 76.5951 35.9636C76.2414 35.5577 75.7513 35.3502 75.1247 35.341C74.3748 35.33 73.7965 35.527 73.3899 35.932C72.9834 36.3268 72.7747 36.894 72.7638 37.6336L71.3154 37.6123C71.3258 36.9035 71.4891 36.2792 71.8053 35.7393C72.1317 35.1995 72.5797 34.7797 73.1492 34.4798C73.7289 34.1801 74.3938 34.0357 75.1436 34.0467C75.873 34.0574 76.4923 34.2155 77.0015 34.5209C77.5212 34.8162 77.9108 35.2226 78.1704 35.7402C78.4403 36.2476 78.5705 36.83 78.5608 37.4874C78.5536 37.9805 78.4494 38.431 78.2482 38.8391C78.0471 39.2368 77.7694 39.6129 77.4148 39.9673C77.0706 40.3219 76.6696 40.691 76.2119 41.0748L72.9524 43.6932L78.6227 43.7764L78.6042 45.0399L71.054 44.9291ZM84.0732 45.2742C83.2206 45.2617 82.5085 45.1228 81.937 44.8576C81.376 44.5822 80.9549 44.2164 80.6739 43.7602C80.3931 43.2937 80.2568 42.778 80.2651 42.213C80.2741 41.5967 80.4774 41.05 80.8748 40.5729C81.2724 40.0856 81.8528 39.7447 82.6159 39.5504C82.0639 39.3574 81.596 39.0372 81.2121 38.5897C80.8283 38.1423 80.6409 37.6053 80.6501 36.9786C80.6579 36.4445 80.7986 35.9636 81.072 35.5361C81.3557 35.1087 81.7613 34.7756 82.2888 34.5368C82.8267 34.2878 83.4757 34.1689 84.2359 34.18C85.0063 34.1913 85.6516 34.3292 86.1717 34.5937C86.692 34.8479 87.0825 35.1927 87.3433 35.6281C87.6143 36.0636 87.7459 36.5484 87.738 37.0826C87.729 37.6989 87.5261 38.22 87.1295 38.6457C86.7431 39.0715 86.2658 39.3882 85.6976 39.5956C86.4643 39.8637 87.0346 40.2112 87.4085 40.6379C87.7927 41.0648 87.9796 41.6275 87.9694 42.326C87.9611 42.891 87.8097 43.4025 87.5153 43.8605C87.2211 44.3083 86.7844 44.6615 86.2052 44.9202C85.6365 45.1687 84.9258 45.2867 84.0732 45.2742ZM84.0922 43.9799C84.688 43.9886 85.1617 43.9134 85.5134 43.7541C85.865 43.5949 86.1199 43.3829 86.2779 43.118C86.436 42.8429 86.5175 42.541 86.5223 42.2123C86.5308 41.6371 86.3116 41.1664 85.8649 40.8002C85.4182 40.434 84.8462 40.2048 84.1489 40.1123C83.4492 40.1843 82.8707 40.3915 82.4136 40.7342C81.9565 41.0768 81.7236 41.546 81.7149 42.1418C81.71 42.4705 81.7826 42.7747 81.9327 43.0543C82.0828 43.3237 82.3313 43.5431 82.6782 43.7125C83.025 43.882 83.4964 43.9711 84.0922 43.9799ZM84.1647 39.0337C84.7822 38.9606 85.2885 38.7728 85.6833 38.4704C86.0783 38.1576 86.2801 37.7137 86.2885 37.1384C86.2962 36.6145 86.1274 36.2113 85.7822 35.9288C85.4475 35.6363 84.9257 35.4848 84.2169 35.4744C83.4978 35.4638 82.9667 35.5999 82.6235 35.8825C82.2804 36.1549 82.1051 36.553 82.0974 37.0769C82.089 37.6522 82.2776 38.1019 82.6633 38.4261C83.0491 38.74 83.5496 38.9425 84.1647 39.0337ZM94.5741 45.2741L94.6123 42.67L89.1268 42.5896L89.1431 41.4802L94.5782 34.4858L96.1807 34.5093L96.0792 41.4278L97.466 41.4481L97.4474 42.7116L96.0607 42.6913L96.0225 45.2953L94.5741 45.2741ZM90.6862 41.3487L94.6308 41.4065L94.7074 36.183L90.6862 41.3487ZM106.966 45.6099C106.103 45.5973 105.386 45.4532 104.814 45.1777C104.253 44.9023 103.822 44.5364 103.52 44.0799C103.219 43.6131 103.021 43.1016 102.927 42.5454L104.375 42.5666C104.481 43.0408 104.732 43.4503 105.127 43.7952C105.523 44.1298 106.142 44.3033 106.985 44.3156C107.848 44.3283 108.502 44.1735 108.949 43.8512C109.406 43.5292 109.638 43.1267 109.645 42.6439C109.651 42.2433 109.563 41.9235 109.381 41.6845C109.2 41.4353 108.895 41.2253 108.466 41.0546C108.047 40.8738 107.474 40.6959 106.748 40.5208C105.949 40.3344 105.294 40.1194 104.784 39.8756C104.274 39.6318 103.899 39.3077 103.658 38.9035C103.417 38.4993 103.302 37.9684 103.312 37.311C103.319 36.7768 103.475 36.3014 103.779 35.8846C104.094 35.4576 104.535 35.1199 105.104 34.8714C105.673 34.6229 106.348 34.5043 107.128 34.5158C107.899 34.5271 108.539 34.6649 109.049 34.9292C109.559 35.1936 109.954 35.5436 110.236 35.9792C110.517 36.4046 110.7 36.8851 110.785 37.4206L109.336 37.3994C109.24 36.9664 109.024 36.5985 108.69 36.2956C108.366 35.9826 107.839 35.8208 107.109 35.8101C106.37 35.7993 105.792 35.9449 105.377 36.2471C104.972 36.5391 104.766 36.9008 104.76 37.3322C104.752 37.8972 104.956 38.3163 105.373 38.5896C105.791 38.8526 106.46 39.0936 107.382 39.3126C108.047 39.4662 108.615 39.6389 109.085 39.8307C109.565 40.0227 109.952 40.2493 110.246 40.5105C110.551 40.7615 110.767 41.0627 110.896 41.4139C111.034 41.7653 111.1 42.1824 111.093 42.6652C111.085 43.2199 110.913 43.7259 110.578 44.1834C110.253 44.6307 109.785 44.9834 109.175 45.2416C108.565 45.4998 107.829 45.6226 106.966 45.6099ZM113.434 45.5507L113.592 34.7647L117.29 34.8189C118.246 34.833 119.024 34.9882 119.626 35.2847C120.238 35.5711 120.69 35.9682 120.98 36.4759C121.271 36.9733 121.412 37.5456 121.402 38.1928C121.393 38.8297 121.235 39.3976 120.93 39.8966C120.625 40.3956 120.162 40.7844 119.541 41.0629C118.931 41.3314 118.149 41.4586 117.193 41.4446L114.944 41.4116L114.883 45.5719L113.434 45.5507ZM114.962 40.1481L117.135 40.18C118.162 40.1951 118.884 40.0207 119.3 39.6569C119.727 39.2933 119.944 38.7982 119.954 38.1716C119.963 37.5449 119.76 37.0436 119.344 36.6677C118.938 36.2918 118.222 36.0964 117.195 36.0813L115.022 36.0495L114.962 40.1481ZM127.689 45.9139C127.073 45.9048 126.478 45.7934 125.906 45.5795C125.344 45.3555 124.841 45.0193 124.395 44.571C123.95 44.1226 123.598 43.5524 123.341 42.8602C123.095 42.1682 122.978 41.3394 122.993 40.3738L122.997 40.0656C123.011 39.1411 123.151 38.3469 123.417 37.6829C123.694 37.0192 124.062 36.4749 124.52 36.05C124.979 35.615 125.492 35.2988 126.06 35.1017C126.638 34.9047 127.235 34.8107 127.852 34.8197C128.468 34.8288 129.057 34.9401 129.619 35.1539C130.191 35.3678 130.7 35.6989 131.146 36.1472C131.591 36.5853 131.938 37.1401 132.185 37.8115C132.442 38.4831 132.564 39.2812 132.55 40.2057L132.546 40.5139C132.532 41.4795 132.386 42.3045 132.109 42.9888C131.842 43.6733 131.479 44.2331 131.021 44.6681C130.562 45.1032 130.044 45.4244 129.465 45.6317C128.897 45.8289 128.305 45.9229 127.689 45.9139ZM127.708 44.6196C128.273 44.6278 128.799 44.4968 129.286 44.2266C129.783 43.9565 130.19 43.5155 130.507 42.9037C130.824 42.2918 130.99 41.4877 131.005 40.4913L131.01 40.1831C131.023 39.2381 130.881 38.4705 130.581 37.8805C130.282 37.2802 129.887 36.8377 129.398 36.5531C128.92 36.2687 128.398 36.1223 127.833 36.114C127.278 36.1059 126.752 36.2369 126.255 36.507C125.758 36.7771 125.351 37.2078 125.034 37.7991C124.717 38.3801 124.552 39.1432 124.538 40.0882L124.533 40.3964C124.519 41.3928 124.661 42.2014 124.96 42.8223C125.259 43.4432 125.653 43.8959 126.142 44.1805C126.631 44.4651 127.153 44.6114 127.708 44.6196ZM137.148 45.8985L137.287 36.376L133.543 36.3211L133.561 35.0576L142.498 35.1887L142.48 36.4522L138.736 36.3972L138.596 45.9197L137.148 45.8985ZM147.428 46.2034C146.565 46.1907 145.848 46.0466 145.277 45.7711C144.716 45.4957 144.284 45.1298 143.983 44.6733C143.682 44.2065 143.484 43.695 143.389 43.1388L144.837 43.1601C144.943 43.6342 145.194 44.0438 145.59 44.3886C145.986 44.7232 146.605 44.8967 147.447 44.9091C148.31 44.9217 148.965 44.7669 149.411 44.4447C149.868 44.1226 150.1 43.7202 150.107 43.2374C150.113 42.8367 150.025 42.5169 149.844 42.278C149.662 42.0287 149.357 41.8187 148.928 41.6481C148.51 41.4672 147.937 41.2893 147.21 41.1143C146.411 40.9279 145.757 40.7128 145.247 40.469C144.737 40.2252 144.361 39.9012 144.121 39.4969C143.88 39.0927 143.764 38.5619 143.774 37.9044C143.782 37.3703 143.938 36.8948 144.242 36.478C144.556 36.0511 144.998 35.7134 145.567 35.4648C146.135 35.2163 146.81 35.0978 147.591 35.1092C148.361 35.1205 149.001 35.2583 149.511 35.5227C150.021 35.787 150.417 36.137 150.698 36.5727C150.979 36.9981 151.163 37.4785 151.247 38.014L149.799 37.9928C149.702 37.5598 149.487 37.1919 149.152 36.8891C148.828 36.5761 148.301 36.4142 147.572 36.4035C146.832 36.3927 146.255 36.5383 145.839 36.8405C145.434 37.1325 145.229 37.4942 145.222 37.9257C145.214 38.4907 145.419 38.9098 145.836 39.183C146.253 39.446 146.923 39.687 147.844 39.906C148.51 40.0596 149.077 40.2323 149.547 40.4242C150.027 40.6162 150.414 40.8427 150.709 41.1039C151.013 41.355 151.23 41.6561 151.358 42.0073C151.497 42.3587 151.563 42.7758 151.555 43.2586C151.547 43.8133 151.376 44.3194 151.04 44.7768C150.715 45.2241 150.247 45.5769 149.637 45.8351C149.027 46.0933 148.291 46.216 147.428 46.2034Z" fill="black"/>
<path d="M32.9806 25.259C32.3951 25.2504 31.8877 25.1659 31.4586 25.0055C31.0294 24.8451 30.6678 24.6292 30.3738 24.3577C30.0901 24.0864 29.8736 23.7853 29.7244 23.4543C29.5751 23.1233 29.4928 22.7831 29.4773 22.4335L30.9257 22.4548C30.9714 22.8459 31.1718 23.193 31.5269 23.4962C31.8924 23.7995 32.3833 23.9557 32.9996 23.9647C33.6981 23.975 34.2509 23.7673 34.6578 23.3417C35.0649 22.9059 35.2742 22.2976 35.2856 21.5169C35.2944 20.9211 35.1935 20.4419 34.9831 20.0792C34.7728 19.7062 34.4942 19.435 34.1474 19.2655C33.8108 19.0962 33.4525 19.0087 33.0724 19.0032C32.5177 18.995 32.0796 19.0913 31.7581 19.2921C31.4469 19.493 31.2072 19.7258 31.0389 19.9905L29.7446 19.9715L29.8282 14.2704L36.2228 14.3642L36.2043 15.6277L31.2581 15.5551L31.214 18.5598C31.4855 18.2658 31.7969 18.0495 32.1483 17.9108C32.4996 17.7721 32.891 17.7059 33.3225 17.7122C34.0415 17.7228 34.6558 17.8756 35.1652 18.1708C35.6746 18.4659 36.0638 18.898 36.3329 19.4671C36.6124 20.026 36.7461 20.7164 36.734 21.5382C36.7227 22.3086 36.5537 22.974 36.227 23.5343C35.9105 24.0947 35.4727 24.525 34.9135 24.825C34.3542 25.1251 33.71 25.2697 32.9806 25.259ZM42.8456 25.2496L43.0037 14.4636L46.7018 14.5178C47.6571 14.5319 48.4357 14.6871 49.0376 14.9836C49.6498 15.27 50.1012 15.6671 50.3918 16.1748C50.6824 16.6722 50.823 17.2445 50.8135 17.8917C50.8042 18.5286 50.6469 19.0965 50.3416 19.5955C50.0363 20.0945 49.5734 20.4832 48.9528 20.7618C48.3427 21.0303 47.56 21.1575 46.6046 21.1435L44.355 21.1105L44.294 25.2708L42.8456 25.2496ZM44.3735 19.847L46.5461 19.8789C47.5733 19.894 48.2951 19.7196 48.7114 19.3558C49.138 18.9922 49.3559 18.4971 49.3651 17.8705C49.3743 17.2438 49.171 16.7425 48.7553 16.3666C48.3498 15.9907 47.6335 15.7953 46.6062 15.7802L44.4336 15.7483L44.3735 19.847ZM52.9424 25.3977L53.1006 14.6117L54.549 14.6329L54.4093 24.1554L59.8947 24.2359L59.8762 25.4994L52.9424 25.3977ZM60.9638 25.5153L65.2515 14.7899L66.6999 14.8111L70.6712 25.6577L69.0995 25.6346L68.1065 22.9384L63.5456 22.8715L62.4739 25.5375L60.9638 25.5153ZM64.0418 21.615L67.6474 21.6679L65.9178 16.6491L64.0418 21.615ZM73.804 25.7036L73.8666 21.4355L69.7556 14.856L71.4197 14.8804L74.5973 19.9512L77.7064 14.9726L79.3089 14.9961L75.315 21.4567L75.2524 25.7249L73.804 25.7036ZM80.8403 25.8068L80.9984 15.0208L82.4468 15.0421L82.3072 24.5646L87.7926 24.645L87.7741 25.9085L80.8403 25.8068ZM89.782 25.938L89.9402 15.152L91.3886 15.1732L91.2304 25.9592L89.782 25.938ZM97.8608 26.2106C96.9979 26.1979 96.2808 26.0538 95.7095 25.7783C95.1484 25.5029 94.7171 25.137 94.4156 24.6805C94.1142 24.2137 93.9162 23.7022 93.8216 23.146L95.27 23.1673C95.3761 23.6414 95.6269 24.051 96.0226 24.3958C96.4184 24.7304 97.0375 24.9039 97.8798 24.9163C98.7427 24.9289 99.3974 24.7741 99.8439 24.4519C100.301 24.1298 100.533 23.7274 100.54 23.2446C100.546 22.8439 100.458 22.5241 100.276 22.2852C100.095 22.0359 99.79 21.8259 99.3609 21.6553C98.9423 21.4744 98.3696 21.2965 97.6426 21.1215C96.8439 20.9351 96.1895 20.72 95.6794 20.4762C95.1692 20.2324 94.7938 19.9084 94.5532 19.5041C94.3125 19.0999 94.197 18.5691 94.2066 17.9116C94.2145 17.3775 94.3704 16.902 94.6745 16.4852C94.989 16.0583 95.4306 15.7206 95.9994 15.472C96.5681 15.2235 97.2428 15.105 98.0235 15.1164C98.794 15.1277 99.4341 15.2655 99.9439 15.5299C100.454 15.7942 100.849 16.1442 101.131 16.5799C101.412 17.0053 101.595 17.4857 101.68 18.0212L100.231 18C100.135 17.5671 99.9195 17.1991 99.5848 16.8963C99.2606 16.5833 98.7339 16.4214 98.0045 16.4107C97.2649 16.3999 96.6874 16.5455 96.272 16.8477C95.867 17.1397 95.6614 17.5014 95.655 17.9329C95.6467 18.4979 95.8512 18.917 96.2685 19.1902C96.6859 19.4532 97.3553 19.6942 98.2768 19.9132C98.9424 20.0668 99.5101 20.2395 99.9799 20.4314C100.46 20.6234 100.847 20.8499 101.141 21.1111C101.446 21.3622 101.662 21.6633 101.791 22.0145C101.929 22.3659 101.995 22.783 101.988 23.2658C101.98 23.8205 101.808 24.3266 101.473 24.784C101.148 25.2313 100.68 25.5841 100.07 25.8423C99.4601 26.1005 98.7237 26.2232 97.8608 26.2106ZM106.69 26.186L106.83 16.6635L103.086 16.6086L103.104 15.3451L112.041 15.4761L112.023 16.7396L108.278 16.6847L108.139 26.2072L106.69 26.186ZM116.971 26.4908C116.108 26.4782 115.391 26.3341 114.82 26.0586C114.259 25.7832 113.827 25.4173 113.526 24.9608C113.224 24.494 113.026 23.9825 112.932 23.4263L114.38 23.4475C114.486 23.9217 114.737 24.3312 115.133 24.6761C115.529 25.0107 116.148 25.1842 116.99 25.1965C117.853 25.2092 118.508 25.0544 118.954 24.7322C119.411 24.4101 119.643 24.0076 119.65 23.5248C119.656 23.1242 119.568 22.8044 119.387 22.5654C119.205 22.3162 118.9 22.1062 118.471 21.9355C118.053 21.7547 117.48 21.5768 116.753 21.4017C115.954 21.2154 115.3 21.0003 114.79 20.7565C114.279 20.5127 113.904 20.1887 113.663 19.7844C113.423 19.3802 113.307 18.8493 113.317 18.1919C113.325 17.6577 113.481 17.1823 113.785 16.7655C114.099 16.3386 114.541 16.0008 115.11 15.7523C115.678 15.5038 116.353 15.3852 117.134 15.3967C117.904 15.408 118.544 15.5458 119.054 15.8102C119.564 16.0745 119.96 16.4245 120.241 16.8602C120.522 17.2855 120.705 17.766 120.79 18.3015L119.342 18.2803C119.245 17.8473 119.03 17.4794 118.695 17.1765C118.371 16.8636 117.844 16.7017 117.115 16.691C116.375 16.6802 115.798 16.8258 115.382 17.128C114.977 17.42 114.772 17.7817 114.765 18.2132C114.757 18.7781 114.961 19.1973 115.379 19.4705C115.796 19.7335 116.466 19.9745 117.387 20.1935C118.053 20.3471 118.62 20.5198 119.09 20.7117C119.57 20.9036 119.957 21.1302 120.251 21.3914C120.556 21.6425 120.773 21.9436 120.901 22.2948C121.04 22.6462 121.105 23.0633 121.098 23.5461C121.09 24.1008 120.918 24.6068 120.583 25.0643C120.258 25.5116 119.79 25.8643 119.18 26.1225C118.57 26.3807 117.834 26.5035 116.971 26.4908Z" fill="black"/>
</g>
<defs>
<clipPath id="clip0_5733_71713">
<rect width="124.352" height="37.8834" fill="white" transform="translate(28.5195 10.0381) rotate(0.840254)"/>
</clipPath>
</defs>
</svg>
