<svg width="167" height="87" viewBox="0 0 167 87" fill="none" xmlns="http://www.w3.org/2000/svg">
<g clip-path="url(#clip0_5733_71726)">
<ellipse cx="83.3786" cy="43.3276" rx="79.375" ry="30" transform="rotate(-10 83.3786 43.3276)" fill="#6395DF"/>
<g clip-path="url(#clip1_5733_71726)">
<path d="M37.0172 58.3565L36.7609 56.9029L39.7213 56.381L38.1115 47.2518L35.5232 49.8832L35.2043 48.0751L37.8251 45.4197L39.4913 45.1259L41.423 56.0809L43.8515 55.6527L44.1078 57.1063L37.0172 58.3565ZM49.8178 56.2822C49.1442 56.401 48.5436 56.4155 48.016 56.3258C47.4884 56.236 47.0262 56.0677 46.6293 55.8209C46.2442 55.572 45.9297 55.2741 45.6858 54.9272C45.4418 54.5802 45.2726 54.208 45.1781 53.8103L46.8444 53.5165C46.9827 53.9552 47.2888 54.3094 47.7629 54.5792C48.2487 54.8469 48.8462 54.9182 49.5553 54.7932C50.3589 54.6515 50.9474 54.2918 51.3207 53.7142C51.692 53.1248 51.7985 52.381 51.6401 51.4829C51.5193 50.7974 51.2983 50.2698 50.9772 49.8999C50.654 49.5183 50.2748 49.2683 49.8397 49.1501C49.4164 49.0297 48.9861 49.0081 48.5488 49.0852C47.9107 49.1978 47.4292 49.4045 47.1046 49.7054C46.7917 50.0043 46.5678 50.324 46.4329 50.6646L44.9439 50.9272L43.7874 44.3684L51.1439 43.0712L51.4002 44.5248L45.71 45.5281L46.3195 48.9848C46.5663 48.5879 46.8761 48.2713 47.2487 48.035C47.6213 47.7987 48.0558 47.6368 48.5522 47.5493C49.3794 47.4035 50.1176 47.4439 50.7669 47.6706C51.4161 47.8973 51.9575 48.3075 52.3912 48.9012C52.8346 49.481 53.1397 50.2436 53.3064 51.189C53.4627 52.0754 53.415 52.8758 53.1632 53.5904C52.9233 54.3029 52.5155 54.8927 51.9399 55.3597C51.3642 55.8268 50.6569 56.1343 49.8178 56.2822Z" fill="black"/>
<path d="M65.1214 52.1229L61.6459 54.6071L58.6695 43.4989L62.145 41.0148M65.1214 52.1229L62.145 41.0148M65.1214 52.1229L70.3392 52.2777M62.145 41.0148L67.3628 41.1696M67.3628 41.1696L70.3392 52.2777M67.3628 41.1696L71.3212 38.556L74.2977 49.6641L70.3392 52.2777" stroke="black" stroke-width="1.2" stroke-linejoin="round"/>
<path d="M86.9917 49.7274C86.07 49.8899 85.1746 49.8224 84.3057 49.5248C83.4369 49.2271 82.673 48.6612 82.0141 47.8269C81.365 46.9787 80.9112 45.822 80.6528 44.3566L80.5903 44.002C80.4028 42.9384 80.3831 41.9976 80.5313 41.1794C80.6794 40.3612 80.952 39.6613 81.349 39.0795C81.746 38.4977 82.2369 38.0334 82.8215 37.6866C83.4159 37.3259 84.0558 37.0852 84.7413 36.9643C85.4149 36.8455 86.045 36.8258 86.6317 36.9051C87.2302 36.9824 87.7714 37.1489 88.2551 37.4048C88.7389 37.6607 89.1535 38.008 89.499 38.4467C89.8562 38.8833 90.1244 39.4026 90.3037 40.0046L88.5311 40.3171C88.2239 39.5427 87.769 39.0015 87.1664 38.6935C86.5637 38.3854 85.8429 38.3054 85.0038 38.4533C84.4248 38.5554 83.8954 38.8011 83.4157 39.1903C82.936 39.5795 82.5911 40.146 82.3811 40.8898C82.1689 41.6217 82.1629 42.555 82.3629 43.6895L82.4255 44.044C82.5838 44.9421 82.8176 45.6808 83.1269 46.2599C83.448 46.8369 83.8132 47.2842 84.2226 47.602C84.6299 47.9079 85.0491 48.1082 85.48 48.2028C85.9228 48.2953 86.3392 48.3071 86.7292 48.2384C87.651 48.0758 88.3323 47.7242 88.7731 47.1834C89.2138 46.6427 89.4249 46.0084 89.4062 45.2806L91.1789 44.968C91.2052 45.6701 91.1203 46.2943 90.9242 46.8407C90.7281 47.387 90.4396 47.8583 90.0586 48.2545C89.6873 48.6368 89.2375 48.9537 88.7092 49.2053C88.1906 49.4429 87.6181 49.617 86.9917 49.7274ZM94.666 48.1915L92.478 35.7829L94.1443 35.4891L96.3323 47.8976L94.666 48.1915ZM102.952 46.7304L101.021 35.7754L96.7131 36.5349L96.4568 35.0813L106.738 33.2684L106.995 34.722L102.687 35.4815L104.619 46.4365L102.952 46.7304ZM111.233 45.2703L109.045 32.8617L110.711 32.5679L112.899 44.9765L111.233 45.2703ZM116.63 44.3187L114.442 31.9101L122.419 30.5036L122.675 31.9571L116.364 33.0699L117.042 36.9165L122.821 35.8976L123.078 37.3511L117.299 38.3701L118.04 42.5713L124.35 41.4586L124.607 42.9121L116.63 44.3187ZM131.38 41.9005C130.387 42.0756 129.533 42.0678 128.817 41.8772C128.113 41.6846 127.538 41.3595 127.092 40.9021C126.643 40.4328 126.304 39.8895 126.073 39.2722L127.739 38.9784C127.965 39.4991 128.343 39.9138 128.873 40.2225C129.4 40.5194 130.149 40.5824 131.118 40.4115C132.11 40.2365 132.827 39.9151 133.269 39.4473C133.722 38.9775 133.9 38.4648 133.802 37.9094C133.721 37.4485 133.55 37.1009 133.289 36.8666C133.026 36.6205 132.63 36.4466 132.1 36.3451C131.58 36.2296 130.884 36.1513 130.012 36.1102C129.055 36.0718 128.257 35.9688 127.618 35.8012C126.979 35.6336 126.477 35.3443 126.112 34.9335C125.747 34.5226 125.498 33.939 125.365 33.1826C125.257 32.5681 125.331 31.9884 125.588 31.4434C125.855 30.8846 126.288 30.4001 126.886 29.9901C127.483 29.58 128.231 29.2958 129.13 29.1374C130.016 28.9812 130.781 28.9986 131.424 29.1899C132.067 29.3811 132.597 29.6958 133.016 30.1338C133.432 30.5599 133.748 31.0709 133.962 31.6667L132.296 31.9605C132.09 31.485 131.762 31.1103 131.312 30.8363C130.871 30.5485 130.231 30.4785 129.392 30.6265C128.541 30.7765 127.911 31.0705 127.501 31.5083C127.1 31.9323 126.944 32.3925 127.031 32.8888C127.146 33.5388 127.472 33.9747 128.011 34.1965C128.548 34.4065 129.369 34.5359 130.474 34.5848C131.271 34.6148 131.961 34.6882 132.542 34.8051C133.135 34.9198 133.628 35.0947 134.023 35.3297C134.428 35.5509 134.742 35.8488 134.967 36.2235C135.203 36.5961 135.37 37.0601 135.468 37.6156C135.581 38.2537 135.495 38.872 135.21 39.4705C134.936 40.0551 134.477 40.5625 133.834 40.9927C133.191 41.4229 132.373 41.7255 131.38 41.9005Z" fill="black"/>
</g>
</g>
<defs>
<clipPath id="clip0_5733_71726">
<rect width="158.75" height="60" fill="white" transform="translate(0 27.5666) rotate(-10)"/>
</clipPath>
<clipPath id="clip1_5733_71726">
<rect width="131.25" height="22" fill="white" transform="translate(16.7969 43.6448) rotate(-10)"/>
</clipPath>
</defs>
</svg>
