<svg width="72" height="72" viewBox="0 0 72 72" fill="none" xmlns="http://www.w3.org/2000/svg">
<circle cx="35.6489" cy="35.6487" r="29.8677" transform="rotate(12.5618 35.6489 35.6487)" fill="black"/>
<path fill-rule="evenodd" clip-rule="evenodd" d="M44.2963 25.641C46.879 28.2237 46.879 32.411 44.2963 34.9937L40.5463 38.7437L39.3426 37.54L43.0926 33.79C45.0104 31.8721 45.0104 28.7627 43.0926 26.8448C41.1747 24.927 38.0653 24.927 36.1474 26.8448L32.3974 30.5948L31.1937 29.391L34.9437 25.641C37.5263 23.0584 41.7137 23.0584 44.2963 25.641Z" fill="#DAFF70"/>
<path fill-rule="evenodd" clip-rule="evenodd" d="M25.0357 44.9C22.453 42.3173 22.453 38.13 25.0357 35.5473L28.7857 31.7973L29.9895 33.0011L26.2395 36.7511C24.3216 38.6689 24.3216 41.7784 26.2395 43.6962C28.1573 45.6141 31.2668 45.6141 33.1846 43.6962L36.9346 39.9462L38.1384 41.15L34.3884 44.9C31.8057 47.4826 27.6184 47.4826 25.0357 44.9Z" fill="#DAFF70"/>
<path fill-rule="evenodd" clip-rule="evenodd" d="M38.7388 32.1218L31.5163 39.3444L30.3125 38.1406L37.5351 30.9181L38.7388 32.1218Z" fill="#DAFF70"/>
</svg>
