<svg width="105" height="105" viewBox="0 0 105 105" fill="none" xmlns="http://www.w3.org/2000/svg">
<g clip-path="url(#clip0_5733_29495)">
<circle cx="52.3513" cy="52.3513" r="43.8617" transform="rotate(12.5618 52.3513 52.3513)" fill="black"/>
<ellipse cx="33.6919" cy="49.6725" rx="5.78396" ry="10.6039" transform="rotate(12.5618 33.6919 49.6725)" fill="white"/>
<ellipse cx="59.563" cy="55.4401" rx="5.78396" ry="10.6039" transform="rotate(12.5618 59.563 55.4401)" fill="white"/>
<path d="M43.4479 31.3537C46.2884 31.9866 48.5527 34.4929 49.8266 38.2759C51.0954 42.0439 51.3286 46.9583 50.1801 52.1127C49.0315 57.2673 46.7337 61.6184 43.9851 64.4913C41.2256 67.3755 38.1115 68.6824 35.2712 68.0495C32.4308 67.4164 30.1661 64.9112 28.8923 61.1283C27.6235 57.3601 27.3904 52.445 28.539 47.2905C29.6876 42.1361 31.9853 37.7857 34.7338 34.9128C37.4932 32.0286 40.6075 30.721 43.4479 31.3537Z" stroke="#DAFF70" stroke-width="1.44599"/>
<path d="M69.3269 37.1223C72.1673 37.7552 74.4316 40.2614 75.7055 44.0444C76.9743 47.8125 77.2075 52.7268 76.059 57.8813C74.9104 63.0358 72.6126 67.3869 69.864 70.2599C67.1045 73.144 63.9904 74.4509 61.1501 73.818C58.3097 73.185 56.045 70.6797 54.7712 66.8968C53.5024 63.1287 53.2693 58.2136 54.4179 53.059C55.5665 47.9047 57.8642 43.5542 60.6127 40.6814C63.3722 37.7971 66.4865 36.4895 69.3269 37.1223Z" stroke="#DAFF70" stroke-width="1.44599"/>
</g>
<defs>
<clipPath id="clip0_5733_29495">
<rect width="87.7234" height="87.7234" fill="white" transform="translate(19.0792) rotate(12.5618)"/>
</clipPath>
</defs>
</svg>
