<svg width="159" height="110" viewBox="0 0 159 110" fill="none" xmlns="http://www.w3.org/2000/svg">
<ellipse cx="79.0393" cy="54.9956" rx="71.7156" ry="37.5653" transform="rotate(-164.857 79.0393 54.9956)" fill="black"/>
<g clip-path="url(#clip0_5733_29471)">
<path d="M85.5417 30.9684C100.722 35.0767 113.655 41.5958 122.296 48.7681C131.016 56.0064 135.044 63.6115 133.328 69.9502C131.613 76.2889 124.299 80.8257 113.119 82.6781C102.04 84.5136 87.5846 83.6195 72.4043 79.5112C57.2242 75.4028 44.2916 68.8849 35.6507 61.7126C26.9302 54.4742 22.9033 46.8684 24.6188 40.5296C26.3343 34.191 33.6474 29.655 44.8279 27.8026C55.9067 25.9671 70.3615 26.8602 85.5417 30.9684Z" stroke="#FFFBF7" stroke-width="2.12491"/>
<mask id="mask0_5733_29471" style="mask-type:alpha" maskUnits="userSpaceOnUse" x="23" y="25" width="112" height="60">
<ellipse cx="78.9733" cy="55.24" rx="57.3725" ry="26.2072" transform="rotate(15.1435 78.9733 55.24)" fill="#D9D9D9"/>
</mask>
<g mask="url(#mask0_5733_29471)">
<path fill-rule="evenodd" clip-rule="evenodd" d="M71.3939 79.566L84.4997 31.1401L86.3457 31.6396L73.2399 80.0656L71.3939 79.566Z" fill="#FFFBF7"/>
<path fill-rule="evenodd" clip-rule="evenodd" d="M133.343 71.5091L23.8135 41.8666L24.4003 39.6982L133.93 69.3408L133.343 71.5091Z" fill="#FFFBF7"/>
<path d="M101.62 34.9973L101.134 46.3986C100.721 56.0587 98.1646 65.506 93.6487 74.0555L88.3188 84.146" stroke="#FFFBF7" stroke-width="2.12491"/>
<path d="M112.079 37.8288C123.513 54.8481 117.234 78.0474 98.7779 86.9775" stroke="#FFFBF7" stroke-width="2.12491"/>
<path d="M59.2292 23.5257C40.7731 32.4559 34.4946 55.6551 45.9279 72.6744" stroke="#FFFBF7" stroke-width="2.12491"/>
<path d="M70.2352 26.5037L64.9053 36.5942C60.3894 45.1437 57.8327 54.591 57.4204 64.2511L56.9339 75.6524" stroke="#FFFBF7" stroke-width="2.12491"/>
<path d="M138.916 50.9102L104.867 46.3773C90.0227 44.401 75.5042 40.4718 61.6889 34.6917L30.0015 21.4341" stroke="#FFFBF7" stroke-width="2.12491"/>
<path d="M128.443 89.6172L96.7559 76.3596C82.9407 70.5795 68.4222 66.6503 53.5775 64.674L19.5289 60.1411" stroke="#FFFBF7" stroke-width="2.12491"/>
</g>
</g>
<defs>
<clipPath id="clip0_5733_29471">
<rect x="30.4394" y="14.9551" width="114.745" height="52.4144" rx="26.2072" transform="rotate(15.1435 30.4394 14.9551)" fill="white"/>
</clipPath>
</defs>
</svg>
