<svg width="120" height="53" viewBox="0 0 120 53" fill="none" xmlns="http://www.w3.org/2000/svg">
<rect width="110" height="52" rx="24" fill="#1169EE"/>
<path d="M21.8 36V16.4H24.432V24.772H34.848V16.4H37.48V36H34.848V27.068H24.432V36H21.8ZM48.3934 36.28C47.1428 36.28 45.9668 36.0093 44.8654 35.468C43.7828 34.9267 42.9054 34.096 42.2334 32.976C41.5801 31.856 41.2534 30.4373 41.2534 28.72V28.16C41.2534 26.5173 41.5708 25.164 42.2054 24.1C42.8401 23.0173 43.6801 22.2147 44.7254 21.692C45.7708 21.1507 46.9001 20.88 48.1134 20.88C50.2974 20.88 51.9868 21.4773 53.1814 22.672C54.3761 23.8667 54.9734 25.556 54.9734 27.74V29.308H43.7174C43.7174 30.4653 43.9508 31.3893 44.4174 32.08C44.9028 32.7707 45.5001 33.2747 46.2094 33.592C46.9374 33.8907 47.6654 34.04 48.3934 34.04C49.5134 34.04 50.3721 33.8533 50.9694 33.48C51.5854 33.1067 52.0241 32.5933 52.2854 31.94H54.6934C54.3948 33.3587 53.6574 34.4413 52.4814 35.188C51.3241 35.916 49.9614 36.28 48.3934 36.28ZM48.2534 23.12C47.4881 23.12 46.7601 23.2693 46.0694 23.568C45.3788 23.848 44.8094 24.296 44.3614 24.912C43.9321 25.528 43.7174 26.3213 43.7174 27.292H52.6494C52.6308 26.2653 52.4161 25.4533 52.0054 24.856C51.6134 24.24 51.0908 23.8013 50.4374 23.54C49.7841 23.26 49.0561 23.12 48.2534 23.12ZM58.1956 36V21.16H60.4916V23.96C60.7156 23.3627 61.0236 22.84 61.4156 22.392C61.8076 21.9253 62.2836 21.5613 62.8436 21.3C63.4223 21.02 64.0663 20.88 64.7756 20.88C65.149 20.88 65.4476 20.8987 65.6716 20.936C65.9143 20.9733 66.129 21.02 66.3156 21.076V23.372C66.073 23.2787 65.8303 23.2133 65.5876 23.176C65.3636 23.1387 65.0463 23.12 64.6356 23.12C63.889 23.12 63.217 23.2973 62.6196 23.652C62.0223 24.0067 61.5463 24.5013 61.1916 25.136C60.837 25.752 60.6596 26.48 60.6596 27.32V36H58.1956ZM74.7123 36.28C73.4617 36.28 72.2857 36.0093 71.1843 35.468C70.1017 34.9267 69.2243 34.096 68.5523 32.976C67.899 31.856 67.5723 30.4373 67.5723 28.72V28.16C67.5723 26.5173 67.8897 25.164 68.5243 24.1C69.159 23.0173 69.999 22.2147 71.0443 21.692C72.0897 21.1507 73.219 20.88 74.4323 20.88C76.6163 20.88 78.3057 21.4773 79.5003 22.672C80.695 23.8667 81.2923 25.556 81.2923 27.74V29.308H70.0363C70.0363 30.4653 70.2697 31.3893 70.7363 32.08C71.2217 32.7707 71.819 33.2747 72.5283 33.592C73.2563 33.8907 73.9843 34.04 74.7123 34.04C75.8323 34.04 76.691 33.8533 77.2883 33.48C77.9043 33.1067 78.343 32.5933 78.6043 31.94H81.0123C80.7137 33.3587 79.9763 34.4413 78.8003 35.188C77.643 35.916 76.2803 36.28 74.7123 36.28ZM74.5723 23.12C73.807 23.12 73.079 23.2693 72.3883 23.568C71.6977 23.848 71.1283 24.296 70.6803 24.912C70.251 25.528 70.0363 26.3213 70.0363 27.292H78.9683C78.9497 26.2653 78.735 25.4533 78.3243 24.856C77.9323 24.24 77.4097 23.8013 76.7563 23.54C76.103 23.26 75.375 23.12 74.5723 23.12ZM85.2425 29.84V16.4H87.7065V29.84H85.2425ZM86.4745 36.28C86.1199 36.28 85.7932 36.1867 85.4945 36C85.1959 35.832 84.9532 35.5987 84.7665 35.3C84.5985 35.0013 84.5145 34.6747 84.5145 34.32C84.5145 33.76 84.7012 33.2933 85.0745 32.92C85.4665 32.5467 85.9332 32.36 86.4745 32.36C87.0159 32.36 87.4732 32.5467 87.8465 32.92C88.2385 33.2933 88.4345 33.76 88.4345 34.32C88.4345 34.6747 88.3412 35.0013 88.1545 35.3C87.9865 35.5987 87.7532 35.832 87.4545 36C87.1745 36.1867 86.8479 36.28 86.4745 36.28Z" fill="#FFFBF7"/>
<path fill-rule="evenodd" clip-rule="evenodd" d="M92.0195 30C92.543 42.791 103.08 53 116 53H118.827C119.475 53 120 52.4748 120 51.8268C120 51.2538 119.584 50.7707 119.029 50.6293C113.838 49.3071 110 44.6018 110 39V30H92.0195Z" fill="#1169EE"/>
</svg>
