<svg width="82" height="28" viewBox="0 0 82 28" fill="none" xmlns="http://www.w3.org/2000/svg">
<path fill-rule="evenodd" clip-rule="evenodd" d="M28.2697 27.202C26.4927 27.202 24.9104 26.8125 23.5229 26.0335C22.1597 25.2302 21.0886 24.1227 20.3097 22.7108C19.5307 21.2989 19.1412 19.6558 19.1412 17.7814C19.1412 15.8827 19.5185 14.2153 20.2732 12.7791C21.0521 11.3429 22.1232 10.2231 23.4864 9.4198C24.8739 8.6165 26.4805 8.21484 28.3062 8.21484C30.0832 8.21484 31.6289 8.6165 32.9434 9.4198C34.2579 10.1988 35.2803 11.2455 36.0106 12.56C36.7408 13.8745 37.106 15.3228 37.106 16.9051C37.106 17.1485 37.0938 17.4163 37.0695 17.7084C37.0695 17.9762 37.0573 18.2805 37.033 18.6213H22.9387C23.0604 20.3739 23.6324 21.7127 24.6548 22.6378C25.7015 23.5384 26.9065 23.9888 28.2697 23.9888C29.3651 23.9888 30.2779 23.7453 31.0082 23.2585C31.7628 22.7473 32.3227 22.0657 32.6878 21.2137L32.7859 21.2249L36.1705 21.762L36.1854 21.7644L36.1725 21.8076C35.6917 23.3993 35.0429 24.3847 33.6372 25.4858C32.201 26.6299 30.4118 27.202 28.2697 27.202ZM28.2725 11.2061C26.9823 11.2061 25.8382 11.5955 24.8402 12.3745C23.8421 13.1291 23.2336 14.2732 23.0145 15.8068H33.2383C33.1653 14.3949 32.6663 13.2752 31.7413 12.4475C30.8162 11.6199 29.66 11.2061 28.2725 11.2061Z" fill="black"/>
<path d="M67.7262 9.87695L72.1699 6.73823L68.3343 3.97428L69.5504 2.80312L73.4328 5.33283L73.3392 0.226562L75.7248 0.601333V4.20852L78.4845 2.24096L81.6185 4.81752L77.4555 7.86255L81.6185 10.5328L80.0749 12.4067L75.7715 9.31479L75.8183 15.0769L73.6667 14.5148L73.5731 10.7202L71.0005 12.594L67.7262 9.87695Z" fill="black"/>
<path fill-rule="evenodd" clip-rule="evenodd" d="M0.596924 0.46582V26.7557H4.46738V17.4082C4.46738 15.5095 4.94206 14.0489 5.89141 13.0265C6.86511 12.0042 8.08223 11.493 9.54278 11.493C12.3422 11.493 13.7419 13.2456 13.7419 16.7509V26.7557H17.5758V16.3493C17.5758 13.6473 16.9551 11.6147 15.7136 10.2515C14.4721 8.88832 12.7682 8.20673 10.6017 8.20673C9.28719 8.20673 8.08223 8.51101 6.98682 9.11957C5.91576 9.70379 5.07594 10.5193 4.46738 11.566V1.08325L0.596924 0.46582ZM39.0761 26.7557V8.64489H42.8735V12.0772C43.5064 10.8844 44.3828 9.94721 45.5025 9.26562C46.6466 8.55969 48.022 8.20673 49.6286 8.20673V12.2598H48.5697C47.4986 12.2598 46.5371 12.4423 45.6851 12.8075C44.8574 13.1482 44.188 13.7446 43.6768 14.5966C43.19 15.4243 42.9466 16.5805 42.9466 18.0654V26.7557H39.0761ZM53.9814 26.0254C55.3689 26.8044 56.9512 27.1939 58.7282 27.1939C60.8703 27.1939 62.6595 26.6218 64.0957 25.4777C65.5014 24.3765 66.1502 23.3912 66.631 21.7995L66.6439 21.7563L66.629 21.7539L63.2444 21.2168L63.1463 21.2056C62.7812 22.0576 62.2213 22.7392 61.4667 23.2504C60.7364 23.7372 59.8236 23.9807 58.7282 23.9807C57.365 23.9807 56.16 23.5303 55.1133 22.6296C54.0909 21.7046 53.5189 20.3658 53.3972 18.6131H67.4915C67.5158 18.2723 67.528 17.9681 67.528 17.7003C67.5523 17.4082 67.5645 17.1404 67.5645 16.897C67.5645 15.3147 67.1994 13.8664 66.4691 12.5519C65.7388 11.2374 64.7164 10.1906 63.4019 9.41168C62.0874 8.60838 60.5417 8.20673 58.7647 8.20673C56.939 8.20673 55.3324 8.60838 53.9449 9.41168C52.5817 10.215 51.5106 11.3347 50.7317 12.7709C49.9771 14.2071 49.5997 15.8746 49.5997 17.7733C49.5997 19.6477 49.9892 21.2908 50.7682 22.7027C51.5471 24.1145 52.6182 25.2221 53.9814 26.0254ZM55.2959 12.5519C56.2939 11.7729 57.438 11.3834 58.7282 11.3834C60.1157 11.3834 61.272 11.7972 62.197 12.6249C63.122 13.4525 63.621 14.5723 63.694 15.9841H53.4702C53.6893 14.4506 54.2979 13.3065 55.2959 12.5519Z" fill="black"/>
</svg>
