<svg width="184" height="75" viewBox="0 0 184 75" fill="none" xmlns="http://www.w3.org/2000/svg">
<g clip-path="url(#clip0_1875_13528)">
<rect width="178.611" height="42.1984" rx="8.43968" transform="matrix(0.983515 0.180826 -0.180823 0.983516 8.20148 0.800781)" fill="#5C89CC"/>
<g clip-path="url(#clip1_1875_13528)">
<g clip-path="url(#clip2_1875_13528)">
<path fill-rule="evenodd" clip-rule="evenodd" d="M34.2271 23.3518L24.0938 30.3375L23.3953 29.3242L33.5285 22.3384L34.2271 23.3518Z" fill="black"/>
<path fill-rule="evenodd" clip-rule="evenodd" d="M33.4143 29.414L34.55 22.3673L33.3447 22.1182L32.209 29.1648L33.4143 29.414Z" fill="black"/>
<path fill-rule="evenodd" clip-rule="evenodd" d="M27.5572 20.9234L34.5538 22.3699L34.358 23.585L27.3613 22.1385L27.5572 20.9234Z" fill="black"/>
</g>
</g>
<path d="M44.7383 35.0719L46.8748 23.4511L48.4353 23.738L46.2988 35.3588L44.7383 35.0719ZM49.7926 36.0011L51.9291 24.3803L53.4564 24.6611L58.035 34.8564L59.6984 25.8088L61.2257 26.0896L59.0892 37.7104L57.5619 37.4296L52.9833 27.2343L51.3199 36.2819L49.7926 36.0011ZM66.0272 39.1576C65.0976 38.9867 64.3493 38.7003 63.7824 38.2986C63.2266 37.899 62.8275 37.4251 62.585 36.8771C62.3445 36.3181 62.2239 35.7295 62.2231 35.1115L63.7836 35.3984C63.8118 35.9299 64.0081 36.418 64.3725 36.8625C64.7391 37.2961 65.3761 37.5962 66.2836 37.7631C67.2133 37.934 67.9486 37.8861 68.4896 37.6195C69.0417 37.3549 69.3656 36.9625 69.4612 36.4423C69.5405 36.0107 69.504 35.6493 69.3516 35.3581C69.2012 35.0558 68.9099 34.7735 68.4776 34.5109C68.0585 34.2393 67.4723 33.9428 66.719 33.6212C65.8904 33.2744 65.2227 32.9228 64.7162 32.5665C64.2096 32.2102 63.8632 31.7918 63.6769 31.3114C63.4907 30.8309 63.4626 30.2365 63.5929 29.5282C63.6987 28.9527 63.9538 28.4676 64.3582 28.0728C64.7756 27.669 65.3142 27.3847 65.9737 27.22C66.6333 27.0552 67.3837 27.0501 68.2248 27.2048C69.0549 27.3574 69.7211 27.6229 70.2236 28.0013C70.7261 28.3798 71.0896 28.8299 71.314 29.3517C71.5405 29.8624 71.6506 30.4147 71.6444 31.0085L70.0839 30.7216C70.0587 30.2364 69.893 29.7998 69.5868 29.4117C69.2936 29.0146 68.7542 28.7437 67.9684 28.5993C67.1716 28.4528 66.5213 28.5048 66.0175 28.7555C65.5269 28.9971 65.2388 29.3503 65.1534 29.8151C65.0415 30.4238 65.1859 30.9138 65.5868 31.2849C65.9897 31.645 66.6688 32.0273 67.6242 32.4318C68.3151 32.719 68.8968 33.009 69.3692 33.3019C69.8528 33.5967 70.2296 33.912 70.4997 34.2477C70.7829 34.5743 70.9618 34.939 71.0365 35.3418C71.1223 35.7466 71.1173 36.209 71.0217 36.7292C70.9118 37.3268 70.634 37.8421 70.1883 38.275C69.7557 38.6989 69.1864 38.9947 68.4805 39.1624C67.7747 39.3301 66.9569 39.3285 66.0272 39.1576ZM75.5682 40.7401L77.4545 30.4807L73.4204 29.739L73.6707 28.3777L83.2993 30.148L83.0491 31.5093L79.015 30.7676L77.1287 41.027L75.5682 40.7401ZM80.4994 41.6468L87.085 30.844L88.6455 31.1309L90.9581 43.5697L89.2648 43.2583L88.6836 40.1652L83.7697 39.2618L82.1263 41.9459L80.4994 41.6468ZM84.5346 37.9951L88.4192 38.7093L87.4658 32.9735L84.5346 37.9951ZM96.9935 44.8509C96.0859 44.6841 95.2825 44.3247 94.583 43.7728C93.8947 43.2229 93.3974 42.4735 93.0913 41.5248C92.7872 40.565 92.7613 39.399 93.0137 38.0266L93.0747 37.6946C93.2578 36.6985 93.5483 35.8652 93.9462 35.1947C94.3441 34.5241 94.8182 33.9992 95.3685 33.6198C95.9298 33.2425 96.5352 32.9991 97.1846 32.8896C97.8361 32.7691 98.5049 32.772 99.191 32.8981C99.7555 33.0019 100.266 33.1816 100.722 33.4371C101.181 33.6816 101.576 33.9888 101.909 34.3589C102.241 34.7289 102.5 35.1542 102.687 35.6346C102.884 36.1171 102.999 36.6417 103.032 37.2085L101.372 36.9032C101.307 36.3878 101.153 35.9476 100.911 35.5828C100.681 35.22 100.39 34.9321 100.04 34.719C99.7017 34.508 99.3331 34.3659 98.9347 34.2926C98.337 34.1827 97.7527 34.2183 97.1816 34.3994C96.6106 34.5804 96.1056 34.9624 95.6666 35.5453C95.2408 36.1192 94.9302 36.9373 94.7348 37.9998L94.6738 38.3318C94.5191 39.173 94.4885 39.8996 94.5819 40.5117C94.6753 41.1238 94.8499 41.6365 95.1058 42.0497C95.3747 42.4538 95.6942 42.77 96.0641 42.9982C96.4451 43.2284 96.8404 43.3811 97.2499 43.4564C97.8696 43.5704 98.4268 43.5584 98.9212 43.4205C99.4288 43.2735 99.8657 42.982 100.232 42.5459C100.611 42.1008 100.901 41.4904 101.101 40.7148L98.1954 40.1807L98.4395 38.8526L102.839 39.6614L102.747 40.1594C102.582 41.0559 102.325 41.8324 101.976 42.489C101.639 43.1365 101.217 43.6595 100.709 44.0581C100.214 44.4476 99.6509 44.7102 99.0196 44.8459C98.3993 44.9835 97.7239 44.9852 96.9935 44.8509ZM104.33 46.0281L106.466 34.4074L110.534 35.1551C111.508 35.3342 112.287 35.6377 112.872 36.0656C113.47 36.4845 113.886 36.9901 114.12 37.5823C114.357 38.1635 114.414 38.7862 114.292 39.4502C114.149 40.2249 113.792 40.8629 113.219 41.364C112.66 41.856 111.91 42.1359 110.971 42.2035L113.128 47.6458L111.286 47.307L109.374 42.1158L106.751 41.6335L105.89 46.315L104.33 46.0281ZM106.995 40.3054L109.336 40.7358C110.409 40.9332 111.214 40.8809 111.75 40.579C112.288 40.2661 112.615 39.7942 112.731 39.1633C112.847 38.5325 112.709 37.9806 112.315 37.5078C111.923 37.0239 111.191 36.6833 110.117 36.4859L107.777 36.0556L106.995 40.3054ZM114.285 47.8585L120.871 37.0557L122.431 37.3426L124.744 49.7814L123.051 49.4701L122.469 46.377L117.556 45.4735L115.912 48.1576L114.285 47.8585ZM118.32 44.2069L122.205 44.9211L121.252 39.1852L118.32 44.2069ZM126.735 50.1474L128.871 38.5267L130.498 38.8258L133.025 46.9275L138.268 40.2542L139.828 40.5411L137.692 52.1619L136.131 51.875L137.749 43.0764L133.252 48.7713L132.09 48.5577L129.913 41.6358L128.295 50.4344L126.735 50.1474Z" fill="black"/>
<g clip-path="url(#clip3_1875_13528)">
<g clip-path="url(#clip4_1875_13528)">
<path fill-rule="evenodd" clip-rule="evenodd" d="M160.369 46.5432L150.236 53.5289L149.537 52.5156L159.67 45.5298L160.369 46.5432Z" fill="black"/>
<path fill-rule="evenodd" clip-rule="evenodd" d="M159.556 52.6054L160.692 45.5587L159.487 45.3096L158.351 52.3562L159.556 52.6054Z" fill="black"/>
<path fill-rule="evenodd" clip-rule="evenodd" d="M153.699 44.1148L160.696 45.5613L160.5 46.7764L153.503 45.3299L153.699 44.1148Z" fill="black"/>
</g>
</g>
</g>
<defs>
<clipPath id="clip0_1875_13528">
<rect width="178.611" height="42.1984" rx="8.43968" transform="matrix(0.983515 0.180826 -0.180823 0.983516 8.20148 0.800781)" fill="white"/>
</clipPath>
<clipPath id="clip1_1875_13528">
<rect width="19.6926" height="19.6926" fill="white" transform="translate(15.4536 23.5869) rotate(-34.5822)"/>
</clipPath>
<clipPath id="clip2_1875_13528">
<rect width="13.1549" height="13.1284" fill="white" transform="translate(20.0187 24.4258) rotate(-34.5822)"/>
</clipPath>
<clipPath id="clip3_1875_13528">
<rect width="19.6926" height="19.6926" fill="white" transform="translate(141.596 46.7793) rotate(-34.5822)"/>
</clipPath>
<clipPath id="clip4_1875_13528">
<rect width="13.1549" height="13.1284" fill="white" transform="translate(146.161 47.6182) rotate(-34.5822)"/>
</clipPath>
</defs>
</svg>
