<svg width="206" height="91" viewBox="0 0 206 91" fill="none" xmlns="http://www.w3.org/2000/svg">
<g clip-path="url(#clip0_1804_20155)">
<ellipse cx="102.503" cy="45.0268" rx="100" ry="37.7953" transform="rotate(4.20539 102.503 45.0268)" fill="#5C89CC"/>
<g clip-path="url(#clip1_1804_20155)">
<path d="M41.2585 49.0467L42.4226 33.2154L44.5033 33.3684L52.1007 46.3195L53.007 33.9937L55.0877 34.1467L53.9236 49.978L51.8429 49.825L44.2455 36.8739L43.3392 49.1997L41.2585 49.0467ZM62.5803 50.6145L63.0409 44.3498L57.5701 34.3292L60.0127 34.5088L64.2426 42.2326L69.2401 35.1873L71.5921 35.3603L65.1668 44.5062L64.7062 50.7708L62.5803 50.6145ZM77.9737 51.9738C76.7977 51.8873 75.7251 51.528 74.7559 50.8958C73.7867 50.2637 73.0288 49.3363 72.482 48.1137C71.9514 46.8772 71.7548 45.3241 71.8923 43.4545L71.9256 43.0021C72.0253 41.6452 72.2922 40.49 72.7261 39.5366C73.16 38.5831 73.7094 37.8125 74.3741 37.2247C75.0388 36.6369 75.7818 36.2216 76.6031 35.9788C77.4406 35.7221 78.2966 35.6258 79.171 35.6901C80.0305 35.7533 80.8062 35.9241 81.4982 36.2023C82.2053 36.4817 82.8147 36.8524 83.3264 37.3145C83.8382 37.7766 84.2372 38.3289 84.5234 38.9715C84.8247 39.6152 84.9918 40.3323 85.0246 41.123L82.763 40.9567C82.6273 39.9159 82.2391 39.1143 81.5983 38.5518C80.9575 37.9892 80.1019 37.6686 79.0314 37.5899C78.2926 37.5356 77.5701 37.6719 76.8639 37.999C76.1577 38.326 75.5613 38.9113 75.0749 39.7547C74.5895 40.5831 74.2936 41.721 74.1872 43.1684L74.1539 43.6208C74.0697 44.7666 74.1269 45.741 74.3255 46.5439C74.5393 47.3479 74.847 48.0072 75.2488 48.5218C75.6517 49.0214 76.1017 49.3955 76.5988 49.6443C77.111 49.8942 77.6158 50.0374 78.1134 50.074C79.2894 50.1605 80.2302 49.9416 80.9358 49.4175C81.6413 48.8933 82.0952 48.1839 82.2974 47.2892L84.559 47.4555C84.3741 48.3212 84.0774 49.0573 83.669 49.6639C83.2606 50.2706 82.7625 50.7569 82.1747 51.123C81.603 51.4751 80.9557 51.7231 80.2327 51.867C79.5258 51.9969 78.7728 52.0325 77.9737 51.9738Z" fill="black"/>
<g clip-path="url(#clip2_1804_20155)">
<path fill-rule="evenodd" clip-rule="evenodd" d="M111.682 46.5895L94.0136 45.2903L94.1436 43.5234L111.812 44.8226L111.682 46.5895Z" fill="black"/>
<path fill-rule="evenodd" clip-rule="evenodd" d="M105.304 52.659L112.932 45.7766L111.805 44.4102L104.176 51.2926L105.304 52.659Z" fill="black"/>
<path fill-rule="evenodd" clip-rule="evenodd" d="M106.388 37.851L112.935 45.7829L111.619 46.9697L105.073 39.0378L106.388 37.851Z" fill="black"/>
</g>
<path d="M122.802 55.0427L123.966 39.2114L126.092 39.3677L125.065 53.3445L133.116 53.9365L132.98 55.791L122.802 55.0427ZM134.576 55.9084L141.801 40.5228L143.927 40.6791L148.824 56.9561L146.517 56.7865L145.291 52.7398L138.597 52.2476L136.792 56.0714L134.576 55.9084ZM139.434 50.4446L144.727 50.8338L142.619 43.3116L139.434 50.4446ZM150.395 57.0716L156.575 49.4084L151.785 41.2569L154.137 41.4299L157.916 47.8698L162.641 42.0551L164.903 42.2214L158.998 49.5411L163.965 58.0694L161.567 57.8931L157.636 51.0554L152.702 57.2412L150.395 57.0716Z" fill="black"/>
</g>
</g>
<defs>
<clipPath id="clip0_1804_20155">
<rect width="200" height="75.5907" fill="white" transform="translate(5.54395) rotate(4.20539)"/>
</clipPath>
<clipPath id="clip1_1804_20155">
<rect width="165.355" height="28.3465" fill="white" transform="translate(21.0889 24.8291) rotate(4.20539)"/>
</clipPath>
<clipPath id="clip2_1804_20155">
<rect width="18.9359" height="18.8977" fill="white" transform="translate(94.7715 34.9834) rotate(4.20539)"/>
</clipPath>
</defs>
</svg>
