<svg width="218" height="218" viewBox="0 0 218 218" fill="none" xmlns="http://www.w3.org/2000/svg">
<g clip-path="url(#clip0_1244_9983)">
<circle cx="108.669" cy="108.671" r="90" transform="rotate(13.627 108.669 108.671)" fill="#5C89CC"/>
<path fill-rule="evenodd" clip-rule="evenodd" d="M91.9703 121.475C89.8453 120.96 88.0661 120.035 86.6327 118.701C85.2354 117.346 84.2757 115.711 83.7535 113.797C83.2313 111.882 83.2419 109.805 83.7852 107.563C84.3357 105.293 85.2703 103.408 86.589 101.909C87.9369 100.418 89.5423 99.389 91.4053 98.8236C93.2975 98.2652 95.3351 98.2507 97.5183 98.78C99.6433 99.2951 101.375 100.224 102.714 101.565C104.06 102.878 104.98 104.426 105.472 106.209C105.964 107.993 105.981 109.831 105.522 111.723C105.452 112.014 105.359 112.331 105.246 112.673C105.168 112.993 105.065 113.354 104.937 113.754L88.0829 109.668C87.7203 111.799 88.0163 113.566 88.9707 114.969C89.9613 116.349 91.2717 117.237 92.9018 117.632C94.2118 117.95 95.3739 117.923 96.3884 117.553C97.4389 117.16 98.3061 116.508 98.9897 115.595L99.1037 115.637L102.995 117.26L103.013 117.267L102.985 117.315C101.948 119.079 100.887 120.069 98.8865 120.979C96.8373 121.93 94.532 122.096 91.9703 121.475ZM96.6123 102.348C95.0695 101.974 93.5884 102.108 92.1691 102.75C90.7569 103.363 89.6974 104.555 88.9909 106.326L101.217 109.289C101.539 107.58 101.267 106.096 100.4 104.838C99.5343 103.58 98.2715 102.75 96.6123 102.348Z" fill="black"/>
<path d="M144.171 112.195L150.395 109.729L146.609 105.312L148.403 104.264L152.313 108.415L153.681 102.282L156.425 103.421L155.379 107.735L159.25 106.182L162.251 110.172L156.39 112.606L160.594 117.006L158.205 118.8L153.955 113.855L152.34 120.759L149.93 119.463L150.919 114.898L147.299 116.393L144.171 112.195Z" fill="black"/>
<path fill-rule="evenodd" clip-rule="evenodd" d="M66.625 81.4805L59.0036 112.919L63.632 114.041L66.3418 102.863C66.8923 100.592 67.8833 98.9832 69.315 98.0359C70.7758 97.0955 72.3794 96.8371 74.126 97.2605C77.4736 98.072 78.6393 100.574 77.6231 104.765L74.7227 116.729L79.3075 117.841L82.3243 105.397C83.1076 102.165 82.9546 99.5548 81.8652 97.5648C80.7758 95.5748 78.9357 94.2657 76.3449 93.6377C74.773 93.2566 73.2439 93.2712 71.7575 93.6813C70.3074 94.0695 69.0667 94.8012 68.0355 95.8765L71.0744 83.3409L66.625 81.4805ZM105.018 124.074L110.269 102.416L114.81 103.517L113.815 107.622C114.917 106.379 116.237 105.512 117.774 105.022C119.346 104.509 121.093 104.486 123.015 104.952L121.84 109.798L120.573 109.491C119.293 109.181 118.09 109.12 116.965 109.31C115.877 109.478 114.903 109.997 114.045 110.867C113.223 111.716 112.596 113.028 112.166 114.804L109.647 125.196L105.018 124.074ZM123.054 127.522C124.488 128.855 126.267 129.78 128.392 130.295C130.953 130.916 133.259 130.751 135.308 129.799C137.308 128.889 138.37 127.899 139.406 126.135L139.434 126.087L139.417 126.08L135.525 124.457L135.411 124.415C134.728 125.328 133.86 125.981 132.81 126.373C131.795 126.744 130.633 126.77 129.323 126.452C127.693 126.057 126.383 125.169 125.392 123.789C124.438 122.386 124.142 120.62 124.504 118.488L141.359 122.574C141.487 122.174 141.589 121.813 141.667 121.493C141.781 121.151 141.873 120.834 141.944 120.543C142.402 118.651 142.386 116.813 141.893 115.03C141.401 113.246 140.482 111.698 139.136 110.385C137.797 109.044 136.065 108.115 133.94 107.6C131.757 107.071 129.719 107.085 127.827 107.644C125.964 108.209 124.358 109.238 123.011 110.729C121.692 112.228 120.757 114.113 120.207 116.383C119.663 118.625 119.653 120.702 120.175 122.617C120.697 124.531 121.657 126.166 123.054 127.522ZM128.532 111.791C129.951 111.148 131.432 111.014 132.975 111.388C134.634 111.791 135.897 112.621 136.763 113.878C137.63 115.136 137.902 116.62 137.58 118.33L125.354 115.366C126.06 113.595 127.12 112.404 128.532 111.791Z" fill="black"/>
</g>
<defs>
<clipPath id="clip0_1244_9983">
<rect width="180" height="180" fill="white" transform="translate(42.4062) rotate(13.627)"/>
</clipPath>
</defs>
</svg>
