<svg width="147" height="62" viewBox="0 0 147 62" fill="none" xmlns="http://www.w3.org/2000/svg">
<g clip-path="url(#clip0_2296_12148)">
<g clip-path="url(#clip1_2296_12148)">
<path fill-rule="evenodd" clip-rule="evenodd" d="M29.4682 25.2896L17.2838 23.5505L17.4578 22.332L29.6421 24.0712L29.4682 25.2896Z" fill="#DAFF70"/>
<path fill-rule="evenodd" clip-rule="evenodd" d="M24.7593 29.1937L30.3731 24.7857L29.6564 23.7852L24.0426 28.1932L24.7593 29.1937Z" fill="#DAFF70"/>
<path fill-rule="evenodd" clip-rule="evenodd" d="M26.2134 18.9824L30.3739 24.7907L29.4059 25.5508L25.2454 19.7425L26.2134 18.9824Z" fill="#DAFF70"/>
</g>
<path d="M35.7672 31.6281L37.4368 19.9311L39.0075 20.1553L37.338 31.8523L35.7672 31.6281ZM40.8547 32.3542L42.5242 20.6572L44.0615 20.8767L49.0446 30.8804L50.3445 21.7735L51.8818 21.9929L50.2123 33.6899L48.6749 33.4705L43.6918 23.4667L42.392 32.5737L40.8547 32.3542ZM57.2027 34.8582C56.2669 34.7246 55.5078 34.4685 54.9253 34.0898C54.3539 33.7127 53.9361 33.2552 53.6719 32.7174C53.4093 32.1684 53.2652 31.5851 53.2396 30.9677L54.8104 31.1919C54.8598 31.7218 55.0755 32.2016 55.4574 32.6312C55.841 33.0497 56.4895 33.3242 57.403 33.4546C58.3388 33.5881 59.0716 33.5108 59.6015 33.2227C60.1426 32.9362 60.4504 32.5312 60.5252 32.0076C60.5872 31.5731 60.5362 31.2135 60.3723 30.9286C60.2099 30.6327 59.9075 30.3622 59.4651 30.1171C59.0354 29.8626 58.4378 29.5897 57.6723 29.2986C56.8304 28.9852 56.1492 28.6606 55.6288 28.3249C55.1084 27.9892 54.7455 27.585 54.5401 27.1124C54.3348 26.6397 54.283 26.0469 54.3847 25.334C54.4674 24.7547 54.7029 24.2598 55.0912 23.8491C55.4921 23.4289 56.0189 23.1233 56.6713 22.9323C57.3238 22.7412 58.0733 22.7061 58.9199 22.827C59.7554 22.9462 60.4318 23.1849 60.9491 23.5429C61.4663 23.9009 61.8475 24.3361 62.0926 24.8485C62.3394 25.3498 62.4715 25.8972 62.4891 26.4908L60.9184 26.2666C60.8737 25.7828 60.6907 25.3531 60.3692 24.9776C60.0604 24.5925 59.5105 24.3435 58.7196 24.2306C57.9175 24.1161 57.2698 24.1942 56.7765 24.4648C56.2959 24.7258 56.0223 25.0903 55.9555 25.5582C55.868 26.1709 56.032 26.6547 56.4474 27.0095C56.8644 27.3532 57.5583 27.708 58.5291 28.0739C59.2309 28.3332 59.8238 28.5997 60.3076 28.8734C60.8025 29.1486 61.1917 29.4485 61.475 29.7732C61.771 30.0882 61.9644 30.4455 62.0552 30.8449C62.1571 31.2459 62.1707 31.7082 62.0959 32.2318C62.0101 32.8334 61.7531 33.3593 61.3251 33.8098C60.9098 34.2506 60.3528 34.569 59.6542 34.7648C58.9556 34.9606 58.1384 34.9918 57.2027 34.8582ZM66.7994 36.0575L68.2734 25.7307L64.2129 25.1511L64.4084 23.7809L74.1002 25.1643L73.9046 26.5345L69.8441 25.9549L68.3701 36.2817L66.7994 36.0575ZM71.7629 36.766L77.9108 25.7082L79.4815 25.9324L82.2902 38.2686L80.5858 38.0253L79.8812 34.958L74.9351 34.252L73.4005 36.9997L71.7629 36.766ZM75.6487 32.9557L79.5588 33.5138L78.3765 27.8207L75.6487 32.9557ZM88.372 39.3072C87.4586 39.1768 86.6413 38.8499 85.9204 38.3264C85.2105 37.8045 84.6837 37.0757 84.3398 36.14C83.9976 35.1931 83.925 34.029 84.1222 32.6477L84.1699 32.3135C84.313 31.3109 84.5699 30.4666 84.9406 29.7807C85.3113 29.0947 85.764 28.5512 86.2987 28.1501C86.8445 27.7506 87.4396 27.4832 88.0841 27.3478C88.7302 27.2013 89.3986 27.1774 90.0893 27.276C90.6574 27.3571 91.1747 27.5162 91.641 27.7532C92.1089 27.9791 92.5163 28.2703 92.8633 28.6268C93.2102 28.9832 93.4864 29.3977 93.6918 29.8703C93.9082 30.3446 94.0444 30.8641 94.1001 31.4291L92.4291 31.1906C92.3431 30.6781 92.172 30.2445 91.9158 29.8896C91.6706 29.5364 91.369 29.2603 91.0109 29.0614C90.664 28.8641 90.29 28.7369 89.889 28.6796C89.2874 28.5938 88.705 28.6527 88.1416 28.8565C87.5783 29.0602 87.089 29.4621 86.6737 30.0621C86.2711 30.6526 85.9935 31.4825 85.8409 32.552L85.7932 32.8862C85.6724 33.7328 85.6709 34.4601 85.7887 35.068C85.9065 35.6759 86.1015 36.1811 86.3737 36.5837C86.6586 36.9768 86.9905 37.2799 87.3692 37.4931C87.7592 37.7079 88.1602 37.8447 88.5724 37.9035C89.1962 37.9926 89.7524 37.9583 90.241 37.8007C90.7422 37.6335 91.1671 37.3248 91.5156 36.8744C91.8768 36.4144 92.1416 35.7929 92.3102 35.0099L89.386 34.5925L89.5768 33.2557L94.0049 33.8878L93.9334 34.3891C93.8046 35.2914 93.5787 36.0776 93.2557 36.7476C92.9455 37.4081 92.5445 37.9476 92.0528 38.3662C91.5739 38.7753 91.0217 39.0602 90.3963 39.221C89.782 39.3834 89.1073 39.4121 88.372 39.3072ZM95.7496 40.1897L97.4192 28.4927L101.513 29.0771C102.493 29.217 103.284 29.489 103.886 29.8932C104.5 30.2878 104.936 30.7763 105.194 31.3587C105.454 31.93 105.536 32.5498 105.44 33.2182C105.329 33.998 104.997 34.6498 104.445 35.1734C103.906 35.6875 103.168 35.9971 102.232 36.1022L104.606 41.4538L102.751 41.1891L100.633 36.0786L97.9929 35.7017L97.3203 40.4139L95.7496 40.1897ZM98.1837 34.3649L100.54 34.7012C101.62 34.8554 102.422 34.771 102.946 34.4479C103.471 34.1136 103.779 33.629 103.87 32.994C103.96 32.3591 103.799 31.8132 103.387 31.3565C102.977 30.8887 102.231 30.5777 101.15 30.4234L98.7943 30.0871L98.1837 34.3649ZM105.77 41.6201L111.918 30.5623L113.489 30.7865L116.298 43.1227L114.593 42.8794L113.889 39.8121L108.943 39.1061L107.408 41.8538L105.77 41.6201ZM109.656 37.8098L113.566 38.3679L112.384 32.6748L109.656 37.8098ZM118.302 43.4087L119.971 31.7117L121.609 31.9454L124.457 39.9395L129.429 33.0617L131 33.2859L129.33 44.9829L127.759 44.7587L129.024 35.9024L124.758 41.7728L123.589 41.6058L121.136 34.7766L119.872 43.6329L118.302 43.4087Z" fill="#DAFF70"/>
</g>
<rect x="0.424332" y="0.565635" width="140.902" height="41.1984" rx="7.93968" transform="matrix(0.989966 0.141304 -0.141302 0.989967 6.04683 -0.0542846)" stroke="#DAFF70"/>
<defs>
<clipPath id="clip0_2296_12148">
<rect width="141.902" height="42.1984" rx="8.43968" transform="matrix(0.989966 0.141304 -0.141302 0.989967 5.96265 0)" fill="white"/>
</clipPath>
<clipPath id="clip1_2296_12148">
<rect width="13.1549" height="13.1284" fill="white" transform="translate(18.2981 16.4434) rotate(8.12331)"/>
</clipPath>
</defs>
</svg>
