<svg width="399" height="400" viewBox="0 0 399 400" fill="none" xmlns="http://www.w3.org/2000/svg">
<circle cx="196.633" cy="197.371" r="168.449" stroke="#638BC6" stroke-width="55.8655"/>
<path d="M356.302 193.396L386.073 195.582L385.827 198.942L373.535 198.039L373.491 198.635C374.094 198.964 374.644 199.432 375.141 200.039C375.665 200.676 376.077 201.462 376.379 202.396C376.679 203.359 376.777 204.549 376.673 205.967C376.559 207.526 376.116 208.89 375.346 210.06C374.603 211.259 373.566 212.181 372.236 212.824C370.934 213.47 369.347 213.724 367.476 213.587L354.887 212.662L355.134 209.302L367.468 210.208C369.537 210.36 371.079 209.946 372.091 208.965C373.102 208.013 373.672 206.658 373.801 204.9C373.949 202.887 373.417 201.195 372.207 199.823C370.994 198.48 369.098 197.714 366.517 197.524L356.055 196.756L356.302 193.396Z" fill="black"/>
<path d="M350.166 228.436C350.639 226.386 351.484 224.684 352.7 223.331C353.944 221.984 355.455 221.063 357.232 220.569C359.009 220.074 360.937 220.066 363.014 220.545L363.513 220.66C365.619 221.146 367.362 222 368.743 223.223C370.124 224.446 371.068 225.918 371.576 227.64C372.111 229.368 372.152 231.215 371.698 233.182C371.257 235.094 370.452 236.688 369.282 237.965C368.14 239.248 366.712 240.129 364.996 240.609C363.281 241.088 361.398 241.092 359.348 240.619L357.852 240.274L361.676 223.694C359.468 223.272 357.587 223.583 356.034 224.625C354.509 225.674 353.516 227.195 353.056 229.19C352.653 230.935 352.745 232.372 353.332 233.499C353.918 234.626 354.707 235.567 355.701 236.321L353.678 238.83C352.915 238.217 352.19 237.437 351.504 236.491C350.811 235.573 350.311 234.451 350.004 233.125C349.691 231.828 349.745 230.265 350.166 228.436ZM364.367 224.358L361.32 237.573C363.229 237.896 364.848 237.584 366.175 236.635C367.496 235.715 368.368 234.34 368.789 232.512C369.217 230.655 369.042 229.01 368.264 227.576C367.486 226.142 366.187 225.07 364.367 224.358Z" fill="black"/>
<path d="M346.202 246.934L365.781 254.114L364.651 257.196L362.248 256.316L362.043 256.876C362.77 257.536 363.201 258.3 363.337 259.168C363.474 260.035 363.326 261.056 362.896 262.231L362.044 264.553L359.161 263.496L360.086 260.973C360.605 259.559 360.625 258.264 360.148 257.09C359.687 255.952 358.629 255.079 356.974 254.472L345.043 250.097L346.202 246.934Z" fill="black"/>
<path d="M338.539 269.155C339.5 267.284 340.736 265.842 342.248 264.828C343.785 263.827 345.475 263.305 347.319 263.262C349.163 263.218 351.034 263.684 352.93 264.658L353.386 264.892C355.308 265.879 356.788 267.135 357.827 268.659C358.866 270.184 359.42 271.843 359.489 273.636C359.584 275.443 359.17 277.244 358.248 279.039C357.352 280.784 356.18 282.132 354.733 283.083C353.311 284.046 351.71 284.55 349.929 284.595C348.148 284.639 346.322 284.18 344.451 283.219L343.085 282.518L350.86 267.382C348.823 266.432 346.924 266.271 345.162 266.9C343.426 267.543 342.09 268.774 341.155 270.595C340.337 272.188 340.074 273.603 340.365 274.84C340.657 276.076 341.192 277.182 341.969 278.157L339.393 280.093C338.804 279.311 338.292 278.378 337.859 277.292C337.413 276.232 337.204 275.022 337.231 273.661C337.246 272.326 337.681 270.824 338.539 269.155ZM353.306 268.686L347.11 280.749C348.882 281.532 350.527 281.626 352.047 281.032C353.553 280.463 354.735 279.345 355.593 277.675C356.463 275.981 356.697 274.343 356.294 272.762C355.892 271.181 354.896 269.823 353.306 268.686Z" fill="black"/>
<path d="M345.98 292.162L347.857 293.496L345.757 296.451L343.739 298.627L343.998 299.072L346.842 298.164L350.444 297.585L350.792 299.82L347.224 300.423L344.25 300.559L344.152 301.065L346.772 302.457L349.727 304.557L348.393 306.434L345.438 304.334L343.262 302.316L342.817 302.575L343.666 305.429L344.269 308.997L342.044 309.403L341.406 305.811L341.33 302.826L340.824 302.728L339.432 305.349L337.332 308.304L335.455 306.97L337.555 304.015L339.538 301.814L339.314 301.393L336.436 302.278L332.868 302.881L332.486 300.621L336.054 300.018L339.063 299.907L339.161 299.401L336.54 298.009L333.585 295.909L334.919 294.032L337.874 296.132L340.05 298.15L340.496 297.891L339.611 295.013L339.008 291.445L341.268 291.063L341.871 294.631L341.982 297.639L342.453 297.713L343.88 295.117L345.98 292.162Z" fill="black"/>
<path d="M317.263 302.519L338.902 323.084L336.581 325.526L327.647 317.035L327.236 317.468C327.493 318.105 327.622 318.816 327.622 319.6C327.623 320.424 327.444 321.294 327.085 322.208C326.707 323.142 326.028 324.125 325.048 325.155C323.971 326.289 322.764 327.064 321.427 327.48C320.092 327.936 318.706 327.991 317.269 327.646C315.853 327.32 314.465 326.511 313.105 325.218L303.955 316.522L306.276 314.08L315.24 322.6C316.745 324.029 318.199 324.686 319.604 324.57C320.989 324.474 322.289 323.788 323.503 322.51C324.894 321.047 325.556 319.401 325.489 317.573C325.403 315.765 324.422 313.97 322.547 312.188L314.942 304.961L317.263 302.519Z" fill="black"/>
<path d="M292.328 325.165C293.992 323.879 295.724 323.097 297.522 322.821C299.338 322.567 301.091 322.811 302.779 323.554C304.467 324.297 305.964 325.512 307.268 327.199L307.581 327.604C308.902 329.314 309.71 331.079 310.004 332.9C310.298 334.721 310.096 336.459 309.397 338.112C308.717 339.788 307.578 341.244 305.981 342.478C304.429 343.678 302.796 344.401 301.082 344.648C299.386 344.917 297.722 344.694 296.091 343.979C294.46 343.263 293.001 342.073 291.714 340.409L290.775 339.194L304.237 328.787C302.796 327.063 301.145 326.111 299.282 325.934C297.438 325.779 295.706 326.327 294.086 327.579C292.669 328.675 291.83 329.844 291.57 331.088C291.309 332.331 291.324 333.559 291.615 334.772L288.46 335.432C288.258 334.474 288.192 333.412 288.26 332.245C288.306 331.095 288.63 329.911 289.232 328.691C289.811 327.488 290.843 326.313 292.328 325.165ZM305.899 331.007L295.17 339.301C296.442 340.761 297.892 341.544 299.52 341.651C301.126 341.776 302.671 341.264 304.155 340.116C305.662 338.951 306.569 337.568 306.875 335.965C307.182 334.363 306.856 332.71 305.899 331.007Z" fill="black"/>
<path d="M281.065 333.823L291.738 351.738L288.917 353.419L287.607 351.22L287.094 351.526C287.242 352.497 287.096 353.362 286.655 354.121C286.213 354.88 285.455 355.58 284.381 356.22L282.256 357.486L280.684 354.848L282.992 353.473C284.287 352.702 285.119 351.71 285.488 350.497C285.848 349.323 285.577 347.979 284.675 346.465L278.171 335.547L281.065 333.823Z" fill="black"/>
<path d="M259.63 344.421C261.558 343.58 263.428 343.245 265.24 343.416C267.063 343.614 268.702 344.279 270.158 345.412C271.614 346.545 272.768 348.088 273.621 350.043L273.825 350.512C274.689 352.492 275.041 354.402 274.881 356.239C274.721 358.077 274.101 359.712 273.02 361.145C271.951 362.605 270.491 363.738 268.641 364.545C266.843 365.329 265.083 365.632 263.361 365.452C261.65 365.299 260.091 364.676 258.684 363.584C257.277 362.492 256.153 360.982 255.312 359.053L254.698 357.646L270.294 350.843C269.318 348.818 267.948 347.492 266.186 346.865C264.435 346.264 262.621 346.373 260.745 347.192C259.104 347.908 258.005 348.837 257.448 349.979C256.892 351.121 256.607 352.316 256.592 353.563L253.371 353.433C253.41 352.454 253.605 351.408 253.956 350.293C254.281 349.19 254.885 348.12 255.766 347.084C256.622 346.059 257.91 345.172 259.63 344.421ZM271.363 353.4L258.933 358.823C259.81 360.549 261.025 361.663 262.578 362.165C264.104 362.678 265.727 362.559 267.447 361.809C269.193 361.047 270.41 359.927 271.099 358.448C271.788 356.969 271.876 355.286 271.363 353.4Z" fill="black"/>
<path d="M253.606 368.566L254.226 370.784L250.734 371.759L247.797 372.18L247.718 372.689L250.499 373.772L253.663 375.59L252.527 377.545L249.374 375.769L246.977 374.003L246.583 374.334L247.744 377.065L248.718 380.557L246.5 381.176L245.526 377.684L245.104 374.747L244.595 374.668L243.459 377.42L241.683 380.572L239.698 379.488L241.463 376.295L243.282 373.928L242.95 373.533L240.219 374.694L236.728 375.669L236.108 373.451L239.6 372.476L242.526 372.013L242.616 371.545L239.823 370.421L236.671 368.645L237.796 366.648L240.948 368.425L243.357 370.232L243.751 369.9L242.59 367.169L241.616 363.678L243.834 363.059L244.808 366.55L245.23 369.487L245.739 369.567L246.863 366.773L248.64 363.621L250.636 364.746L248.86 367.899L247.053 370.307L247.373 370.66L250.115 369.541L253.606 368.566Z" fill="black"/>
<path d="M227.441 355.222L231.226 384.832L227.884 385.26L226.322 373.035L225.729 373.11C225.527 373.767 225.178 374.399 224.682 375.007C224.162 375.647 223.474 376.207 222.619 376.689C221.735 377.175 220.588 377.508 219.178 377.688C217.627 377.887 216.202 377.725 214.903 377.203C213.579 376.713 212.469 375.88 211.574 374.705C210.682 373.558 210.117 372.054 209.879 370.193L208.278 357.671L211.62 357.244L213.188 369.512C213.452 371.57 214.164 372.998 215.327 373.795C216.461 374.596 217.902 374.885 219.651 374.661C221.653 374.405 223.206 373.548 224.309 372.088C225.384 370.632 225.757 368.621 225.429 366.055L224.099 355.649L227.441 355.222Z" fill="black"/>
<path d="M193.189 356.987C195.292 357.044 197.127 357.534 198.695 358.458C200.262 359.41 201.464 360.709 202.301 362.352C203.139 363.996 203.528 365.884 203.471 368.015L203.457 368.527C203.399 370.687 202.907 372.565 201.982 374.161C201.057 375.757 199.802 376.974 198.215 377.813C196.627 378.68 194.824 379.087 192.806 379.032C190.845 378.979 189.123 378.506 187.64 377.613C186.156 376.748 185.009 375.522 184.199 373.936C183.388 372.35 183.012 370.505 183.068 368.402L183.11 366.868L200.119 367.327C200.095 365.08 199.417 363.298 198.088 361.982C196.758 360.695 195.069 360.024 193.023 359.968C191.233 359.92 189.843 360.295 188.854 361.093C187.866 361.891 187.101 362.852 186.558 363.975L183.697 362.489C184.148 361.62 184.768 360.755 185.559 359.895C186.322 359.034 187.322 358.321 188.561 357.758C189.77 357.193 191.313 356.936 193.189 356.987ZM200.002 370.097L186.445 369.731C186.507 371.666 187.134 373.191 188.327 374.304C189.491 375.416 191.011 375.997 192.887 376.048C194.791 376.099 196.369 375.602 197.62 374.555C198.871 373.508 199.665 372.022 200.002 370.097Z" fill="black"/>
<path d="M178.992 356.525L175.872 377.144L172.626 376.653L173.008 374.123L172.418 374.034C171.916 374.878 171.254 375.453 170.432 375.76C169.609 376.067 168.579 376.127 167.342 375.94L164.896 375.569L165.356 372.534L168.012 372.936C169.502 373.161 170.775 372.922 171.83 372.219C172.853 371.54 173.496 370.329 173.76 368.586L175.661 356.021L178.992 356.525Z" fill="black"/>
<path d="M155.759 351.131C157.783 351.704 159.441 352.632 160.733 353.914C162.017 355.223 162.862 356.777 163.268 358.577C163.675 360.376 163.587 362.301 163.006 364.353L162.867 364.845C162.278 366.924 161.339 368.623 160.049 369.942C158.759 371.261 157.242 372.132 155.498 372.554C153.745 373.003 151.898 372.952 149.956 372.402C148.068 371.868 146.516 370.985 145.299 369.753C144.073 368.55 143.264 367.079 142.869 365.342C142.475 363.605 142.564 361.725 143.137 359.701L143.556 358.223L159.927 362.86C160.457 360.676 160.24 358.783 159.276 357.18C158.304 355.604 156.833 354.538 154.863 353.98C153.14 353.492 151.701 353.513 150.546 354.043C149.392 354.572 148.413 355.315 147.611 356.269L145.204 354.125C145.855 353.393 146.669 352.708 147.648 352.069C148.599 351.423 149.745 350.979 151.084 350.737C152.395 350.488 153.954 350.62 155.759 351.131ZM159.131 365.516L146.083 361.82C145.665 363.711 145.898 365.343 146.779 366.716C147.634 368.081 148.964 369.019 150.769 369.53C152.602 370.049 154.254 369.956 155.724 369.249C157.195 368.543 158.33 367.299 159.131 365.516Z" fill="black"/>
<path d="M135.811 365.987L134.882 368.094L131.565 366.632L129.027 365.094L128.643 365.438L130.106 368.04L131.398 371.452L129.279 372.242L127.969 368.869L127.237 365.983L126.722 365.989L125.887 368.837L124.425 372.154L122.317 371.225L123.779 367.908L125.317 365.37L124.974 364.986L122.35 366.393L118.977 367.702L118.13 365.605L121.52 364.256L124.428 363.58L124.422 363.065L121.575 362.23L118.258 360.768L119.186 358.661L122.503 360.122L125.058 361.621L125.425 361.317L123.98 358.676L122.67 355.303L124.806 354.473L126.116 357.846L126.831 360.771L127.346 360.765L128.182 357.918L129.643 354.601L131.751 355.529L130.289 358.846L128.751 361.384L129.094 361.769L131.736 360.323L135.109 359.013L135.938 361.15L132.565 362.459L129.64 363.174L129.663 363.65L132.494 364.525L135.811 365.987Z" fill="black"/>
<path d="M124.076 339.084L108.237 364.387L105.381 362.6L111.921 352.153L111.415 351.836C110.842 352.216 110.171 352.483 109.402 352.64C108.595 352.805 107.707 352.803 106.74 352.633C105.749 352.449 104.65 351.979 103.446 351.225C102.12 350.395 101.12 349.367 100.446 348.14C99.7329 346.922 99.4024 345.575 99.4547 344.098C99.4919 342.645 100.008 341.124 101.004 339.533L107.702 328.834L110.557 330.622L103.995 341.104C102.894 342.863 102.54 344.42 102.934 345.773C103.304 347.111 104.236 348.248 105.73 349.183C107.441 350.254 109.185 350.575 110.964 350.146C112.718 349.701 114.282 348.382 115.654 346.189L121.221 337.297L124.076 339.084Z" fill="black"/>
<path d="M96.9822 319.171C98.574 320.547 99.684 322.089 100.312 323.797C100.922 325.526 101.03 327.292 100.638 329.094C100.245 330.897 99.3512 332.605 97.957 334.218L97.6223 334.605C96.2095 336.24 94.6398 337.382 92.9134 338.032C91.1869 338.682 89.444 338.829 87.6847 338.473C85.9067 338.139 84.2542 337.312 82.7269 335.992C81.2427 334.709 80.2095 333.253 79.6271 331.622C79.0262 330.013 78.9143 328.338 79.2914 326.597C79.6686 324.857 80.545 323.19 81.9207 321.599L82.9245 320.437L95.7984 331.563C97.2025 329.808 97.8066 328 97.6106 326.14C97.3961 324.301 96.5145 322.713 94.9657 321.374C93.6106 320.203 92.2978 319.613 91.0273 319.605C89.7569 319.597 88.5562 319.856 87.4255 320.381L86.1516 317.42C87.0506 317.032 88.0786 316.756 89.2356 316.591C90.3712 316.408 91.5966 316.49 92.912 316.837C94.2058 317.167 95.5625 317.945 96.9822 319.171ZM93.9536 333.633L83.6932 324.765C82.5151 326.302 82.0354 327.879 82.2539 329.496C82.4509 331.094 83.2592 332.507 84.6789 333.734C86.1201 334.979 87.6564 335.593 89.2877 335.575C90.9191 335.557 92.4744 334.909 93.9536 333.633Z" fill="black"/>
<path d="M86.2345 309.829L70.758 323.806L68.5571 321.369L70.4561 319.654L70.0559 319.211C69.133 319.546 68.2561 319.572 67.4251 319.288C66.5942 319.004 65.7595 318.398 64.921 317.47L63.2633 315.634L65.542 313.576L67.3427 315.57C68.3526 316.688 69.4885 317.31 70.7503 317.434C71.9719 317.557 73.2368 317.027 74.545 315.846L83.9765 307.328L86.2345 309.829Z" fill="black"/>
<path d="M71.684 291.047C72.8966 292.766 73.6015 294.53 73.799 296.339C73.9731 298.164 73.6521 299.904 72.8358 301.558C72.0195 303.213 70.7401 304.654 68.9976 305.883L68.5794 306.178C66.8137 307.424 65.0147 308.153 63.1825 308.367C61.3502 308.581 59.6234 308.303 58.0019 307.533C56.3572 306.779 54.9531 305.578 53.7897 303.928C52.659 302.325 52.008 300.662 51.8365 298.939C51.6418 297.233 51.9375 295.58 52.7238 293.982C53.51 292.384 54.7627 290.979 56.482 289.766L57.7365 288.881L67.5437 302.786C69.33 301.422 70.3526 299.813 70.6115 297.961C70.8472 296.125 70.3752 294.37 69.1953 292.697C68.163 291.234 67.0314 290.345 65.8005 290.03C64.5696 289.715 63.342 289.676 62.1178 289.914L61.5964 286.733C62.5624 286.573 63.6268 286.553 64.7894 286.673C65.9357 286.769 67.1051 287.144 68.2976 287.799C69.4737 288.431 70.6025 289.513 71.684 291.047ZM65.2539 304.349L57.4377 293.267C55.9234 294.474 55.0771 295.888 54.8989 297.51C54.7042 299.109 55.1477 300.674 56.2292 302.208C57.327 303.764 58.6697 304.731 60.2572 305.107C61.8446 305.484 63.5102 305.231 65.2539 304.349Z" fill="black"/>
<path d="M46.6949 289.826L44.6426 290.871L42.9983 287.64L42.0056 284.844L41.4908 284.867L40.9779 287.807L39.8202 291.268L37.6789 290.539L38.7986 287.098L40.0571 284.4L39.6542 284.079L37.206 285.755L33.9755 287.4L32.9309 285.347L36.1614 283.703L38.9578 282.71L38.9351 282.196L36.013 281.625L32.572 280.506L33.2431 278.346L36.7221 279.446L39.4016 280.762L39.723 280.359L38.0461 277.911L36.4019 274.68L38.4542 273.636L40.0984 276.866L41.1292 279.643L41.6059 279.64L42.1569 276.68L43.2766 273.239L45.4559 273.948L44.3362 277.389L43.0397 280.106L43.4425 280.428L45.8908 278.751L49.1213 277.107L50.1659 279.159L46.9354 280.803L44.1389 281.796L44.1617 282.311L47.1218 282.862L50.5628 283.981L49.8537 286.161L46.4127 285.041L43.6951 283.745L43.4118 284.128L45.0506 286.596L46.6949 289.826Z" fill="black"/>
<path d="M54.6505 261.776L26.3987 271.418L25.3106 268.229L36.9745 264.249L36.7817 263.684C36.0979 263.616 35.4086 263.401 34.7137 263.037C33.9827 262.656 33.2954 262.095 32.6518 261.353C31.999 260.584 31.443 259.528 30.9838 258.182C30.4788 256.702 30.3517 255.274 30.6026 253.896C30.8174 252.501 31.4108 251.247 32.3829 250.135C33.328 249.031 34.6885 248.176 36.4643 247.57L48.4107 243.493L49.4989 246.681L37.7946 250.676C35.8304 251.346 34.5743 252.331 34.0261 253.629C33.4688 254.901 33.4748 256.371 34.0441 258.039C34.6961 259.949 35.8476 261.299 37.4985 262.087C39.1402 262.849 41.1854 262.811 43.6338 261.976L53.5623 258.587L54.6505 261.776Z" fill="black"/>
<path d="M46.1542 229.127C46.5167 231.199 46.4011 233.096 45.8072 234.816C45.1854 236.541 44.1523 237.977 42.7079 239.125C41.2634 240.272 39.491 241.029 37.3907 241.397L36.8866 241.485C34.7582 241.857 32.8199 241.749 31.0718 241.16C29.3236 240.571 27.8807 239.582 26.7432 238.194C25.5776 236.81 24.8209 235.125 24.473 233.136C24.135 231.204 24.2563 229.422 24.8368 227.791C25.3893 226.164 26.3622 224.797 27.7555 223.687C29.1488 222.577 30.8817 221.841 32.9541 221.479L34.4663 221.214L37.3983 237.975C39.596 237.504 41.2074 236.486 42.2324 234.922C43.2295 233.362 43.5517 231.574 43.199 229.557C42.8904 227.793 42.2467 226.506 41.268 225.696C40.2893 224.886 39.1957 224.327 37.9874 224.018L38.8739 220.919C39.8156 221.188 40.7866 221.624 41.787 222.228C42.7826 222.804 43.6797 223.643 44.4785 224.745C45.2723 225.818 45.8309 227.279 46.1542 229.127ZM34.6604 238.411L32.3237 225.052C30.4389 225.498 29.0698 226.415 28.2163 227.806C27.3578 229.168 27.0903 230.773 27.4136 232.622C27.7418 234.498 28.5433 235.945 29.8182 236.963C31.093 237.981 32.7071 238.464 34.6604 238.411Z" fill="black"/>
<path d="M43.7248 215.109L22.8974 216.155L22.7327 212.875L25.2882 212.747L25.2583 212.15C24.3311 211.827 23.6354 211.292 23.1709 210.547C22.7065 209.802 22.443 208.805 22.3802 207.555L22.2562 205.085L25.3228 204.931L25.4575 207.614C25.5331 209.119 26.0203 210.319 26.9192 211.213C27.7883 212.08 29.103 212.47 30.8635 212.381L43.5558 211.744L43.7248 215.109Z" fill="black"/>
<path d="M44.334 190.89C44.1799 192.989 43.6051 194.799 42.6095 196.323C41.5856 197.844 40.2333 198.985 38.5526 199.745C36.8719 200.505 34.9683 200.807 32.8417 200.651L32.3313 200.614C30.1764 200.455 28.3232 199.878 26.7715 198.88C25.2199 197.882 24.0618 196.571 23.2974 194.947C22.5046 193.321 22.182 191.502 22.3299 189.489C22.4735 187.532 23.0258 185.834 23.9868 184.393C24.9194 182.951 26.1966 181.862 27.8186 181.126C29.4405 180.39 31.3006 180.099 33.3987 180.253L34.9299 180.365L33.6838 197.335C35.9301 197.414 37.7411 196.82 39.1169 195.553C40.4644 194.284 41.2131 192.628 41.363 190.587C41.4942 188.8 41.184 187.395 40.4326 186.371C39.6811 185.346 38.757 184.537 37.6603 183.944L39.2762 181.155C40.1239 181.644 40.9592 182.304 41.7819 183.134C42.6068 183.936 43.2722 184.969 43.7781 186.232C44.2861 187.466 44.4714 189.019 44.334 190.89ZM30.9225 197.089L31.9155 183.565C29.9791 183.536 28.4274 184.092 27.2605 185.233C26.0956 186.344 25.4444 187.836 25.307 189.707C25.1675 191.607 25.5918 193.206 26.5797 194.504C27.5676 195.803 29.0152 196.664 30.9225 197.089Z" fill="black"/>
<path d="M25.7568 174.111L23.507 173.619L24.2811 170.078L25.2844 167.285L24.8716 166.976L22.6119 168.927L19.5241 170.871L18.3287 168.951L21.3748 166.998L24.0577 165.707L23.9496 165.203L20.993 164.95L17.4517 164.176L17.9435 161.926L21.4847 162.7L24.2774 163.704L24.5859 163.291L22.6861 160.999L20.7328 157.952L22.6203 156.706L24.6153 159.761L25.8551 162.477L26.3589 162.369L26.6123 159.412L27.3864 155.871L29.6361 156.363L28.8621 159.904L27.9004 162.706L28.2715 163.005L30.5729 161.064L33.619 159.11L34.8561 161.04L31.81 162.993L29.0854 164.274L29.1935 164.778L32.1501 165.032L35.6914 165.806L35.1996 168.055L31.6584 167.281L28.8657 166.278L28.5572 166.691L30.4987 168.992L32.452 172.038L30.5228 173.275L28.5695 170.229L27.288 167.505L26.8259 167.622L26.5308 170.569L25.7568 174.111Z" fill="black"/>
<path d="M49.6846 157.363L21.7355 146.876L22.9191 143.721L34.458 148.051L34.6678 147.492C34.1821 147.006 33.7862 146.402 33.4802 145.68C33.1576 144.921 32.9831 144.051 32.9566 143.07C32.9402 142.061 33.1817 140.892 33.6811 139.561C34.2304 138.097 35.0392 136.912 36.1075 136.007C37.1592 135.066 38.4138 134.474 39.8713 134.231C41.3022 133.979 42.896 134.182 44.6528 134.841L56.4713 139.276L55.2877 142.43L43.7088 138.085C41.7657 137.356 40.1702 137.319 38.9222 137.975C37.6842 138.603 36.7557 139.743 36.1364 141.393C35.4273 143.283 35.4602 145.057 36.2352 146.714C37.0202 148.344 38.6238 149.614 41.046 150.523L50.8681 154.209L49.6846 157.363Z" fill="black"/>
<path d="M63.5611 127.164C62.5313 128.998 61.2425 130.394 59.6947 131.351C58.1221 132.294 56.4135 132.753 54.569 132.728C52.7245 132.704 50.8725 132.17 49.0131 131.126L48.5669 130.876C46.6827 129.818 45.2497 128.508 44.268 126.947C43.2862 125.385 42.7938 123.706 42.7906 121.912C42.7626 120.103 43.2426 118.318 44.2306 116.558C45.1908 114.847 46.4115 113.544 47.8928 112.647C49.3493 111.737 50.9681 111.292 52.7491 111.314C54.5301 111.336 56.3379 111.861 58.1725 112.891L59.5113 113.642L51.1828 128.48C53.1831 129.505 55.075 129.736 56.8586 129.172C58.6174 128.594 59.9977 127.413 60.9997 125.628C61.8764 124.066 62.1918 122.662 61.9459 121.415C61.7001 120.169 61.2066 119.044 60.4654 118.041L63.112 116.202C63.6718 117.005 64.1481 117.957 64.541 119.058C64.9477 120.134 65.1122 121.351 65.0345 122.709C64.9706 124.042 64.4795 125.527 63.5611 127.164ZM48.7864 127.086L55.4242 115.261C53.6827 114.414 52.0417 114.259 50.5012 114.796C48.9747 115.308 47.7522 116.383 46.8338 118.019C45.9014 119.68 45.6071 121.308 45.9508 122.903C46.2945 124.498 47.2397 125.892 48.7864 127.086Z" fill="black"/>
<path d="M70.7226 114.451L53.9488 102.061L55.8998 99.4193L57.9579 100.94L58.3126 100.459C57.8004 99.6215 57.6009 98.7672 57.7139 97.8963C57.8269 97.0255 58.2551 96.087 58.9983 95.0808L60.4679 93.0913L62.9376 94.9156L61.3414 97.0766C60.4461 98.2886 60.0628 99.5253 60.1915 100.787C60.3141 102.008 61.0843 103.143 62.5022 104.19L72.7243 111.741L70.7226 114.451Z" fill="black"/>
<path d="M86.5357 96.0971C85.0863 97.6221 83.4939 98.6581 81.7582 99.205C80.002 99.7323 78.233 99.7572 76.4512 99.2796C74.6694 98.8021 73.0057 97.8289 71.4601 96.36L71.0891 96.0074C69.5229 94.5189 68.456 92.8971 67.8885 91.1419C67.321 89.3866 67.2565 87.6387 67.6948 85.8981C68.1126 84.138 69.0167 82.5263 70.4073 81.0631C71.7587 79.6412 73.2625 78.6779 74.9188 78.1732C76.5545 77.649 78.2328 77.6163 79.9538 78.0753C81.6748 78.5343 83.2978 79.4884 84.8228 80.9377L85.9356 81.9954L74.2137 94.3292C75.9005 95.8147 77.6776 96.5035 79.5451 96.3956C81.3919 96.2682 83.0204 95.4626 84.4306 93.9788C85.6645 92.6805 86.3156 91.397 86.3838 90.1284C86.4521 88.8597 86.2504 87.6482 85.7786 86.4939L88.7964 85.3613C89.1415 86.2776 89.369 87.3175 89.4791 88.4811C89.6087 89.6241 89.4688 90.8443 89.0594 92.1417C88.6696 93.4185 87.8283 94.737 86.5357 96.0971ZM72.2338 92.3887L81.5761 82.5587C80.0964 81.3093 78.5439 80.7556 76.9186 80.8975C75.3129 81.0188 73.8638 81.7595 72.5711 83.1196C71.2589 84.5003 70.5733 86.0059 70.5142 87.6363C70.4551 89.2667 71.0283 90.8508 72.2338 92.3887Z" fill="black"/>
<path d="M82.2596 71.8092L80.8248 70.008L83.66 67.7495L86.2007 66.2163L86.0752 65.7165L83.0913 65.8035L79.4691 65.3631L79.7535 63.1192L83.3491 63.5263L86.2448 64.2183L86.4789 63.7592L84.3452 61.6968L82.0867 58.8616L83.8879 57.4268L86.1465 60.262L87.6797 62.8027L88.1794 62.6772L88.1523 59.7001L88.5594 56.1044L90.81 56.3289L90.4295 59.9579L89.6776 62.8468L90.1367 63.0809L92.1991 60.9472L95.0343 58.6887L96.4692 60.4899L93.6339 62.7485L91.1198 64.315L91.2187 64.7814L94.2292 64.7277L97.8248 65.1348L97.567 67.412L93.9714 67.005L91.0491 66.2796L90.8151 66.7387L92.9487 68.8011L95.2072 71.6363L93.406 73.0711L91.1475 70.2359L89.6143 67.6952L89.1145 67.8207L89.1682 70.8312L88.7611 74.4268L86.4839 74.169L86.891 70.5734L87.6163 67.6511L87.1838 67.4504L85.0948 69.5507L82.2596 71.8092Z" fill="black"/>
<path d="M111.444 73.8376L96.3556 48.0798L99.2625 46.377L105.492 57.0112L106.007 56.7095C105.936 56.0261 106.01 55.3076 106.227 54.5541C106.455 53.7618 106.868 52.9762 107.466 52.1974C108.089 51.4043 109.014 50.6485 110.24 49.93C111.589 49.1396 112.964 48.7299 114.364 48.7007C115.773 48.6327 117.121 48.9638 118.405 49.6941C119.675 50.3998 120.784 51.5622 121.733 53.1813L128.113 64.0731L125.206 65.776L118.955 55.1049C117.906 53.3141 116.691 52.2798 115.309 52.002C113.952 51.7098 112.512 52.0091 110.991 52.9001C109.25 53.9204 108.157 55.318 107.715 57.0931C107.296 58.8539 107.741 60.8504 109.049 63.0827L114.351 72.1348L111.444 73.8376Z" fill="black"/>
<path d="M142.172 58.7375C140.214 59.5061 138.333 59.771 136.528 59.5321C134.714 59.2668 133.101 58.5409 131.688 57.3544C130.276 56.1678 129.18 54.5821 128.401 52.5972L128.214 52.1208C127.425 50.1094 127.145 48.1885 127.373 46.358C127.601 44.5275 128.282 42.9164 129.416 41.5248C130.539 40.1067 132.04 39.0289 133.919 38.2915C135.746 37.5749 137.516 37.3384 139.23 37.5819C140.934 37.7989 142.468 38.4795 143.834 39.6235C145.199 40.7675 146.266 42.3187 147.034 44.2772L147.595 45.7063L131.755 51.9222C132.655 53.9818 133.974 55.3578 135.712 56.0502C137.439 56.7162 139.256 56.6753 141.161 55.9275C142.828 55.2732 143.961 54.3858 144.56 53.2651C145.159 52.1445 145.488 50.9614 145.549 49.7159L148.763 49.9666C148.688 50.9428 148.454 51.9813 148.061 53.0822C147.695 54.1726 147.052 55.219 146.132 56.2214C145.239 57.2134 143.919 58.0521 142.172 58.7375ZM130.783 49.3263L143.407 44.3722C142.594 42.6141 141.422 41.4555 139.889 40.8964C138.383 40.327 136.757 40.3849 135.01 41.0704C133.237 41.7663 131.979 42.8403 131.235 44.2926C130.492 45.7449 130.341 47.4228 130.783 49.3263Z" fill="black"/>
<path d="M154.367 53.8438L149.142 33.6554L152.321 32.8326L152.962 35.3097L153.54 35.1601C153.67 34.1868 154.053 33.3975 154.689 32.7923C155.325 32.1872 156.249 31.7279 157.46 31.4144L159.855 30.7947L160.624 33.7672L158.023 34.4404C156.564 34.8179 155.488 35.5371 154.793 36.5978C154.119 37.624 154.003 38.9903 154.444 40.6967L157.628 52.9997L154.367 53.8438Z" fill="black"/>
<path d="M178.626 49.46C176.539 49.7268 174.65 49.5241 172.959 48.8517C171.265 48.1512 169.878 47.0531 168.798 45.5574C167.718 44.0618 167.043 42.2564 166.773 40.1413L166.708 39.6337C166.434 37.4905 166.631 35.5592 167.3 33.84C167.969 32.1208 169.023 30.725 170.462 29.6524C171.897 28.5517 173.616 27.8734 175.619 27.6174C177.565 27.3686 179.339 27.5717 180.942 28.2266C182.541 28.8534 183.863 29.8882 184.907 31.331C185.951 32.7739 186.607 34.5388 186.874 36.6256L187.068 38.1485L170.19 40.3063C170.56 42.5234 171.502 44.1799 173.018 45.2758C174.53 46.3436 176.302 46.7477 178.332 46.4881C180.109 46.261 181.424 45.6772 182.279 44.7368C183.133 43.7964 183.742 42.7297 184.105 41.5368L187.16 42.565C186.849 43.4933 186.368 44.4432 185.719 45.4148C185.097 46.3828 184.218 47.2404 183.081 47.9876C181.972 48.7313 180.487 49.2221 178.626 49.46ZM169.881 37.5513L183.333 35.8316C182.975 33.9283 182.121 32.5184 180.771 31.6018C179.45 30.6816 177.859 30.3405 175.997 30.5785C174.108 30.82 172.625 31.5541 171.55 32.7808C170.474 34.0075 169.918 35.5976 169.881 37.5513Z" fill="black"/>
<path d="M191.712 27.8801L191.747 25.5776L195.372 25.6335L198.308 26.0627L198.528 25.597L196.168 23.7692L193.65 21.1286L195.295 19.576L197.814 22.1739L199.611 24.5474L200.083 24.3415L199.745 21.3934L199.801 17.7689L202.103 17.8045L202.047 21.4289L201.618 24.3652L202.084 24.5856L203.954 22.2687L206.552 19.7498L208.148 21.3525L205.549 23.9141L203.134 25.6681L203.34 26.1404L206.288 25.8021L209.912 25.8581L209.877 28.1606L206.252 28.1047L203.315 27.7181L203.095 28.1412L205.455 30.0116L207.974 32.6096L206.328 34.2049L203.81 31.6069L202.013 29.1908L201.541 29.3967L201.879 32.3448L201.823 35.9693L199.52 35.9337L199.576 32.3093L200.006 29.373L199.54 29.1526L197.669 31.5121L195.071 34.031L193.476 32.3857L196.074 29.8668L198.49 28.0701L198.284 27.6404L195.336 27.9361L191.712 27.8801Z" fill="black"/>
<path d="M213.088 47.9913L217.78 18.5106L221.107 19.0402L219.17 31.2115L219.76 31.3054C220.139 30.7324 220.651 30.2238 221.298 29.7798C221.977 29.3121 222.795 28.9672 223.751 28.7453C224.736 28.5277 225.93 28.5307 227.334 28.7542C228.878 29 230.2 29.5559 231.3 30.4219C232.433 31.2643 233.264 32.3754 233.792 33.755C234.326 35.1066 234.445 36.7089 234.15 38.562L232.166 51.0281L228.839 50.4985L230.783 38.2851C231.109 36.2355 230.826 34.6647 229.935 33.5728C229.072 32.4854 227.77 31.8031 226.029 31.526C224.036 31.2087 222.304 31.5953 220.835 32.6857C219.394 33.7806 218.47 35.6055 218.064 38.1605L216.415 48.5209L213.088 47.9913Z" fill="black"/>
<path d="M245.227 55.4667C243.223 54.8248 241.598 53.8413 240.351 52.5163C239.112 51.1641 238.32 49.582 237.975 47.7698C237.631 45.9577 237.783 44.0363 238.434 42.0057L238.59 41.5183C239.249 39.4607 240.246 37.7946 241.58 36.5203C242.913 35.2459 244.459 34.4276 246.217 34.0654C247.984 33.676 249.828 33.7893 251.751 34.4052C253.619 35.0037 255.14 35.9389 256.315 37.2109C257.498 38.4558 258.258 39.9529 258.593 41.7022C258.928 43.4516 258.775 45.328 258.133 47.3315L257.664 48.7936L241.46 43.6021C240.856 45.7671 241.009 47.6669 241.918 49.3016C242.836 50.9092 244.27 52.0253 246.219 52.6499C247.925 53.1963 249.364 53.2244 250.536 52.7342C251.708 52.2439 252.711 51.5354 253.545 50.6085L255.877 52.8335C255.202 53.5427 254.365 54.1998 253.365 54.805C252.392 55.4188 251.233 55.8234 249.886 56.019C248.567 56.2233 247.014 56.0392 245.227 55.4667ZM242.346 40.9754L255.261 45.1129C255.743 43.2371 255.566 41.5983 254.732 40.1965C253.924 38.8033 252.627 37.8205 250.84 37.248C249.026 36.6669 247.372 36.7042 245.878 37.3601C244.384 38.0159 243.207 39.221 242.346 40.9754Z" fill="black"/>
<path d="M259.748 60.1897L268.581 41.2994L271.556 42.6903L270.472 45.0082L271.013 45.2611C271.733 44.5935 272.531 44.2291 273.407 44.168C274.283 44.1069 275.287 44.3412 276.421 44.8711L278.661 45.9188L277.361 48.7002L274.927 47.5622C273.562 46.9239 272.274 46.7924 271.063 47.1676C269.889 47.529 268.929 48.5081 268.183 50.1049L262.799 61.6167L259.748 60.1897Z" fill="black"/>
<path d="M280.191 71.6778C278.407 70.5614 277.075 69.2074 276.193 67.6156C275.326 65.9996 274.949 64.2711 275.062 62.4298C275.175 60.5886 275.797 58.7643 276.928 56.957L277.2 56.5232C278.346 54.6918 279.723 53.3231 281.33 52.4171C282.937 51.5112 284.637 51.0996 286.43 51.1822C288.238 51.2408 289.998 51.8056 291.709 52.8766C293.371 53.9175 294.615 55.1992 295.44 56.7217C296.279 58.22 296.646 59.8582 296.539 61.6362C296.432 63.4141 295.821 65.1947 294.704 66.978L293.89 68.2792L279.467 59.2507C278.348 61.1996 278.027 63.0784 278.505 64.8869C278.998 66.6713 280.112 68.1066 281.847 69.1927C283.365 70.1431 284.752 70.5253 286.009 70.3394C287.266 70.1535 288.413 69.7143 289.45 69.0219L291.162 71.7535C290.332 72.2742 289.359 72.7045 288.24 73.0442C287.146 73.399 285.923 73.5051 284.57 73.3625C283.241 73.235 281.781 72.6734 280.191 71.6778ZM280.974 56.9237L292.469 64.1194C293.398 62.4204 293.632 60.7887 293.169 59.2243C292.73 57.675 291.715 56.4026 290.125 55.4069C288.51 54.3962 286.898 54.0244 285.289 54.2914C283.679 54.5585 282.241 55.4359 280.974 56.9237Z" fill="black"/>
<path d="M303.251 62.708L304.731 60.9439L307.508 63.274L309.515 65.4595L309.98 65.2372L309.302 62.3301L309.014 58.6926L311.27 58.5255L311.585 62.1304L311.482 65.1058L311.979 65.244L313.576 62.7432L315.906 59.9665L317.67 61.4468L315.34 64.2235L313.155 66.2309L313.377 66.6958L316.289 66.0778L319.894 65.7625L320.121 68.0129L316.489 68.3608L313.508 68.1978L313.37 68.6942L315.871 70.2916L318.648 72.6217L317.167 74.3858L314.391 72.0557L312.356 69.9029L311.918 70.0925L312.569 73.0323L312.884 76.6371L310.601 76.8368L310.286 73.232L310.416 70.2239L309.92 70.0857L308.323 72.5865L305.992 75.3632L304.228 73.8829L306.558 71.1062L308.744 69.0988L308.522 68.6339L305.582 69.2846L301.977 69.5999L301.777 67.3168L305.382 67.0015L308.39 67.1319L308.501 66.6682L306.028 65.0381L303.251 62.708Z" fill="black"/>
<path d="M307.046 91.6874L329.273 71.7604L331.522 74.2689L322.346 82.4959L322.744 82.9405C323.4 82.7346 324.118 82.6631 324.9 82.7259C325.722 82.7909 326.574 83.0387 327.457 83.4694C328.358 83.9212 329.283 84.6764 330.232 85.7348C331.276 86.8991 331.952 88.1641 332.26 89.5298C332.608 90.8977 332.553 92.2839 332.094 93.6883C331.656 95.0737 330.738 96.3927 329.341 97.6453L319.942 106.072L317.693 103.563L326.901 95.3076C328.447 93.9222 329.218 92.5247 329.214 91.1152C329.229 89.7269 328.649 88.3765 327.472 87.064C326.125 85.561 324.537 84.7697 322.709 84.6901C320.9 84.6317 319.033 85.466 317.107 87.193L309.295 94.1959L307.046 91.6874Z" fill="black"/>
<path d="M327.798 118.447C326.649 116.685 326.009 114.896 325.878 113.081C325.771 111.251 326.156 109.524 327.032 107.901C327.908 106.277 329.24 104.883 331.026 103.719L331.455 103.44C333.265 102.26 335.089 101.597 336.928 101.45C338.767 101.303 340.482 101.644 342.075 102.473C343.691 103.286 345.05 104.538 346.152 106.229C347.223 107.873 347.813 109.558 347.921 111.286C348.053 112.999 347.697 114.639 346.853 116.208C346.009 117.776 344.706 119.135 342.943 120.284L341.657 121.122L332.365 106.867C330.53 108.165 329.45 109.735 329.123 111.577C328.82 113.403 329.228 115.174 330.346 116.889C331.324 118.389 332.422 119.319 333.641 119.679C334.859 120.038 336.084 120.122 337.317 119.93L337.721 123.128C336.75 123.252 335.686 123.233 334.528 123.071C333.386 122.933 332.231 122.515 331.063 121.817C329.911 121.143 328.823 120.019 327.798 118.447ZM334.711 105.39L342.116 116.75C343.674 115.599 344.571 114.217 344.809 112.603C345.062 111.012 344.676 109.431 343.651 107.859C342.611 106.264 341.305 105.249 339.732 104.815C338.159 104.38 336.486 104.572 334.711 105.39Z" fill="black"/>
<path d="M335.816 130.819L354.573 121.706L356.008 124.66L353.706 125.778L353.967 126.315C354.947 126.25 355.797 126.469 356.516 126.973C357.235 127.477 357.868 128.292 358.414 129.417L359.495 131.642L356.733 132.984L355.559 130.567C354.901 129.212 353.983 128.299 352.806 127.827C351.667 127.369 350.304 127.526 348.719 128.296L337.288 133.85L335.816 130.819Z" fill="black"/>
<path d="M344.566 151.465C343.886 149.474 343.706 147.583 344.026 145.792C344.373 143.991 345.171 142.412 346.42 141.055C347.669 139.697 349.302 138.674 351.32 137.985L351.805 137.82C353.85 137.122 355.781 136.928 357.599 137.239C359.418 137.55 360.997 138.303 362.336 139.498C363.702 140.684 364.711 142.232 365.363 144.142C365.996 145.999 366.153 147.778 365.832 149.479C365.539 151.172 364.79 152.674 363.586 153.986C362.381 155.299 360.783 156.294 358.792 156.974L357.339 157.47L351.843 141.366C349.745 142.173 348.311 143.428 347.541 145.133C346.798 146.828 346.757 148.645 347.418 150.582C347.997 152.277 348.832 153.449 349.925 154.097C351.017 154.746 352.185 155.129 353.426 155.246L353.031 158.445C352.059 158.326 351.032 158.045 349.95 157.604C348.877 157.189 347.861 156.499 346.901 155.535C345.95 154.598 345.172 153.241 344.566 151.465ZM354.481 140.511L358.861 153.346C360.654 152.614 361.864 151.495 362.492 149.989C363.128 148.51 363.144 146.882 362.538 145.107C361.922 143.304 360.906 141.998 359.489 141.19C358.071 140.382 356.402 140.156 354.481 140.511Z" fill="black"/>
<path d="M368.141 160.725L370.403 160.294L371.082 163.854L371.257 166.817L371.757 166.938L373.069 164.257L375.145 161.256L376.999 162.552L374.965 165.545L373.004 167.786L373.302 168.206L376.12 167.278L379.681 166.599L380.112 168.861L376.552 169.54L373.589 169.715L373.468 170.215L376.115 171.577L379.108 173.611L377.862 175.499L374.827 173.473L372.62 171.462L372.199 171.76L373.128 174.578L373.807 178.139L371.545 178.57L370.866 175.01L370.649 172.055L370.191 171.926L368.837 174.615L366.803 177.608L364.907 176.32L366.941 173.327L368.944 171.078L368.646 170.657L365.828 171.586L362.267 172.265L361.836 170.003L365.396 169.324L368.359 169.149L368.48 168.649L365.791 167.295L362.798 165.261L364.086 163.365L367.079 165.399L369.328 167.402L369.707 167.112L368.82 164.286L368.141 160.725Z" fill="black"/>
</svg>
