<svg width="264" height="156" viewBox="0 0 264 156" fill="none" xmlns="http://www.w3.org/2000/svg">
<g clip-path="url(#clip0_1244_9999)">
<ellipse cx="132.076" cy="77.6676" rx="124.076" ry="60.994" transform="rotate(-8 132.076 77.6676)" fill="#DAFF70"/>
<path d="M77.7749 78.7958C76.5906 78.9622 75.5779 78.9177 74.7368 78.662C73.9098 78.4044 73.2412 77.9952 72.7311 77.4343C72.2189 76.8592 71.8388 76.2009 71.5908 75.4594L73.5789 75.18C73.8251 75.8068 74.2559 76.3142 74.8711 76.7022C75.4844 77.0761 76.3691 77.1818 77.5253 77.0193C78.7096 76.8528 79.5732 76.5014 80.1161 75.965C80.6731 75.4267 80.905 74.8261 80.8118 74.1635C80.7346 73.6136 80.5462 73.1943 80.2469 72.9057C79.9455 72.603 79.4829 72.3805 78.859 72.2381C78.2473 72.0797 77.425 71.958 76.3923 71.8731C75.2588 71.788 74.3168 71.6328 73.5663 71.4076C72.8157 71.1824 72.2326 70.8186 71.817 70.3163C71.4013 69.814 71.1301 69.1116 71.0032 68.2093C70.9002 67.4761 71.0125 66.7917 71.3401 66.1562C71.6799 65.5046 72.2127 64.948 72.9387 64.4866C73.6646 64.0251 74.5633 63.7191 75.6349 63.5685C76.6923 63.4199 77.5983 63.4723 78.3528 63.7257C79.1073 63.9791 79.7236 64.3741 80.2016 64.9108C80.6776 65.4334 81.0306 66.0524 81.2605 66.7677L79.2725 67.0471C79.0483 66.4747 78.6748 66.0168 78.1521 65.6733C77.6415 65.3137 76.8856 65.2043 75.8846 65.345C74.8694 65.4877 74.1096 65.8101 73.605 66.3124C73.1126 66.7985 72.908 67.3377 72.9913 67.9299C73.1002 68.7053 73.4695 69.2357 74.0991 69.5211C74.7267 69.7923 75.6948 69.9798 77.0034 70.0834C77.9476 70.152 78.7618 70.2676 79.4461 70.4303C80.1444 70.5909 80.7228 70.8188 81.1812 71.1138C81.6517 71.3927 82.0123 71.759 82.263 72.2126C82.5278 72.6642 82.7067 73.2214 82.7998 73.8841C82.9069 74.6454 82.7793 75.3751 82.4173 76.0729C82.0674 76.7547 81.5023 77.3374 80.722 77.8209C79.9416 78.3044 78.9593 78.6293 77.7749 78.7958ZM89.8612 76.8815L88.0243 63.8114L82.885 64.5337L82.6413 62.7995L94.9078 61.0755L95.1515 62.8097L90.0123 63.532L91.8492 76.6021L89.8612 76.8815ZM96.1433 75.9986L99.7306 60.3977L101.719 60.1183L109.467 74.1261L107.31 74.4293L105.376 70.9485L99.1157 71.8283L98.2159 75.7073L96.1433 75.9986ZM99.5276 70.0019L104.476 69.3064L101.039 62.8018L99.5276 70.0019ZM112.003 73.7696L109.923 58.9653L115.104 58.2371C116.345 58.0627 117.402 58.1154 118.275 58.3953C119.161 58.6591 119.862 59.0996 120.38 59.7169C120.897 60.3202 121.214 61.0448 121.333 61.8907C121.472 62.8777 121.297 63.7864 120.81 64.6169C120.335 65.4313 119.548 66.0668 118.447 66.5234L123.212 72.1943L120.865 72.5242L116.495 67.0566L113.153 67.5262L113.991 73.4902L112.003 73.7696ZM112.915 65.8343L115.897 65.4152C117.265 65.223 118.21 64.8385 118.733 64.2618C119.254 63.671 119.458 62.9738 119.345 62.1701C119.232 61.3664 118.845 60.7595 118.183 60.3492C117.52 59.9249 116.504 59.8088 115.137 60.001L112.155 60.4201L112.915 65.8343ZM129.619 71.2939L127.782 58.2238L122.643 58.9461L122.399 57.2119L134.666 55.4879L134.909 57.2221L129.77 57.9444L131.607 71.0145L129.619 71.2939ZM148.444 68.6482L147.621 62.7899L140.59 54.6553L142.874 54.3343L148.305 60.6018L151.503 53.1216L153.702 52.8125L149.609 62.5105L150.432 68.3688L148.444 68.6482ZM163.201 66.7899C162.356 66.9088 161.518 66.8827 160.689 66.7117C159.872 66.5246 159.11 66.1715 158.405 65.6524C157.699 65.1333 157.097 64.4272 156.597 63.5341C156.112 62.639 155.776 61.5287 155.59 60.2034L155.531 59.7804C155.352 58.5115 155.375 57.394 155.599 56.428C155.836 55.46 156.224 54.6363 156.761 53.957C157.296 53.2635 157.932 52.7213 158.668 52.3303C159.417 51.9374 160.215 51.6815 161.061 51.5626C161.907 51.4437 162.738 51.4707 163.553 51.6437C164.382 51.8147 165.15 52.1598 165.855 52.6789C166.559 53.1839 167.151 53.8698 167.632 54.7367C168.128 55.6017 168.465 56.6686 168.643 57.9376L168.703 58.3606C168.889 59.6859 168.865 60.8467 168.631 61.8428C168.411 62.837 168.034 63.6809 167.499 64.3743C166.964 65.0678 166.322 65.618 165.574 66.0251C164.838 66.4161 164.047 66.671 163.201 66.7899ZM162.952 65.0134C163.727 64.9044 164.42 64.613 165.029 64.1392C165.652 63.6634 166.116 62.9728 166.42 62.0674C166.724 61.1619 166.78 60.0254 166.588 58.6578L166.528 58.2348C166.346 56.9377 165.987 55.917 165.451 55.1728C164.913 54.4144 164.279 53.8925 163.549 53.6069C162.832 53.3194 162.087 53.2301 161.311 53.3391C160.55 53.4461 159.857 53.7375 159.234 54.2133C158.611 54.6891 158.145 55.3656 157.837 56.2428C157.527 57.1059 157.463 58.186 157.646 59.4832L157.705 59.9062C157.897 61.2738 158.264 62.3509 158.806 63.1374C159.348 63.9239 159.984 64.4599 160.714 64.7455C161.445 65.0311 162.19 65.1204 162.952 65.0134ZM178.751 64.6045C177.581 64.769 176.527 64.6871 175.589 64.3588C174.65 64.0163 173.875 63.4135 173.265 62.5503C172.653 61.6731 172.245 60.5153 172.043 59.0772L170.825 50.4061L172.813 50.1267L174.031 58.7978C174.257 60.4051 174.759 61.5208 175.537 62.1447C176.315 62.7687 177.303 62.9965 178.501 62.828C179.7 62.6596 180.587 62.1683 181.163 61.3541C181.738 60.5399 181.913 59.3292 181.687 57.7218L180.469 49.0507L182.457 48.7713L183.675 57.4424C183.877 58.8806 183.805 60.1057 183.459 61.1177C183.11 62.1156 182.531 62.9087 181.722 63.4968C180.926 64.0688 179.935 64.4381 178.751 64.6045ZM188.565 63.0095L186.485 48.2052L191.666 47.477C192.907 47.3026 193.964 47.3553 194.837 47.6352C195.723 47.899 196.424 48.3395 196.943 48.9568C197.459 49.5601 197.776 50.2847 197.895 51.1306C198.034 52.1176 197.86 53.0263 197.372 53.8568C196.897 54.6712 196.11 55.3067 195.009 55.7633L199.774 61.4342L197.427 61.7641L193.057 56.2965L189.715 56.7661L190.553 62.7301L188.565 63.0095ZM189.478 55.0742L192.46 54.6551C193.827 54.4629 194.772 54.0784 195.295 53.5017C195.816 52.9109 196.02 52.2137 195.907 51.41C195.794 50.6064 195.407 49.9994 194.745 49.5891C194.082 49.1648 193.066 49.0487 191.699 49.2409L188.717 49.66L189.478 55.0742Z" fill="black"/>
<path d="M91.606 105.708L89.5254 90.9039L94.6012 90.1905C95.9124 90.0062 97.0117 90.053 97.899 90.3309C98.7985 90.5927 99.5012 91.0403 100.007 91.6737C100.511 92.293 100.826 93.0468 100.95 93.9351C101.073 94.8092 100.979 95.6205 100.667 96.3688C100.355 97.1171 99.8041 97.7481 99.0136 98.2618C98.2353 98.7594 97.1905 99.1003 95.8792 99.2846L92.7915 99.7186L93.594 105.429L91.606 105.708ZM92.5478 97.9844L95.5298 97.5653C96.9397 97.3671 97.891 96.9746 98.3836 96.3878C98.8904 95.799 99.0833 95.0745 98.9624 94.2145C98.8416 93.3544 98.4564 92.7112 97.807 92.2849C97.1717 91.8565 96.1491 91.7415 94.7391 91.9396L91.7571 92.3587L92.5478 97.9844ZM105.464 103.761L103.384 88.9562L105.372 88.6768L107.209 101.747L114.738 100.689L114.981 102.423L105.464 103.761ZM116.474 102.213L120.062 86.6123L122.05 86.3329L129.798 100.341L127.641 100.644L125.707 97.163L119.447 98.0428L118.547 101.922L116.474 102.213ZM119.859 96.2165L124.808 95.521L121.37 89.0164L119.859 96.2165ZM134.098 99.7364L133.275 93.8781L126.244 85.7434L128.528 85.4224L133.959 91.6899L137.157 84.2097L139.356 83.9006L135.263 93.5987L136.086 99.457L134.098 99.7364ZM143.756 98.3791L141.675 83.5747L143.663 83.2953L145.5 96.3654L153.029 95.3073L153.273 97.0415L143.756 98.3791ZM156.029 96.6542L153.948 81.8498L155.936 81.5704L158.017 96.3748L156.029 96.6542ZM167.15 95.3068C165.966 95.4733 164.953 95.4287 164.112 95.1731C163.285 94.9155 162.617 94.5062 162.106 93.9453C161.594 93.3703 161.214 92.712 160.966 91.9704L162.954 91.691C163.2 92.3178 163.631 92.8252 164.246 93.2132C164.86 93.5871 165.744 93.6928 166.901 93.5303C168.085 93.3639 168.949 93.0125 169.491 92.4761C170.048 91.9377 170.28 91.3372 170.187 90.6745C170.11 90.1246 169.922 89.7054 169.622 89.4168C169.321 89.1141 168.858 88.8915 168.234 88.7491C167.623 88.5907 166.8 88.469 165.768 88.3841C164.634 88.299 163.692 88.1438 162.942 87.9186C162.191 87.6934 161.608 87.3296 161.192 86.8273C160.777 86.325 160.505 85.6227 160.379 84.7203C160.276 83.9871 160.388 83.3028 160.715 82.6672C161.055 82.0156 161.588 81.4591 162.314 80.9976C163.04 80.5361 163.939 80.2301 165.01 80.0795C166.068 79.9309 166.974 79.9833 167.728 80.2367C168.483 80.4901 169.099 80.8852 169.577 81.4219C170.053 81.9444 170.406 82.5634 170.636 83.2787L168.648 83.5581C168.424 82.9858 168.05 82.5279 167.527 82.1844C167.017 81.8248 166.261 81.7153 165.26 81.856C164.245 81.9987 163.485 82.3212 162.98 82.8234C162.488 83.3096 162.283 83.8487 162.367 84.4409C162.476 85.2164 162.845 85.7468 163.474 86.0321C164.102 86.3034 165.07 86.4908 166.379 86.5945C167.323 86.663 168.137 86.7787 168.821 86.9413C169.52 87.102 170.098 87.3298 170.557 87.6248C171.027 87.9038 171.388 88.27 171.638 88.7237C171.903 89.1753 172.082 89.7324 172.175 90.3951C172.282 91.1565 172.155 91.8861 171.793 92.584C171.443 93.2658 170.878 93.8484 170.097 94.3319C169.317 94.8154 168.335 95.1404 167.15 95.3068ZM179.236 93.3926L177.4 80.3224L172.26 81.0447L172.017 79.3105L184.283 77.5866L184.527 79.3208L179.388 80.043L181.224 93.1132L179.236 93.3926Z" fill="black"/>
<path d="M206.686 88.9873L205.882 82.2766L201.452 86.4646L200.277 84.7301L204.91 80.8205L199.379 78.3394L200.03 76.3483L205.443 79.1529L204.367 72.4804L206.217 72.2203L207.021 78.931L211.452 74.7431L212.626 76.4776L207.993 80.3871L213.524 82.8683L212.873 84.8593L207.46 82.0547L208.537 88.7273L206.686 88.9873Z" fill="black"/>
<path d="M62.288 109.28L61.4832 102.57L57.0531 106.758L55.8786 105.023L60.5113 101.113L54.9804 98.6323L55.6314 96.6413L61.0442 99.4459L59.9681 92.7733L61.8182 92.5133L62.623 99.224L67.0531 95.0361L68.2277 96.7706L63.5949 100.68L69.1258 103.161L68.4749 105.152L63.062 102.348L64.1381 109.02L62.288 109.28Z" fill="black"/>
</g>
<defs>
<clipPath id="clip0_1244_9999">
<rect width="248.151" height="121.988" fill="white" transform="translate(0.71875 34.5352) rotate(-8)"/>
</clipPath>
</defs>
</svg>
