<svg width="407" height="408" viewBox="0 0 407 408" fill="none" xmlns="http://www.w3.org/2000/svg">
<g clip-path="url(#clip0_1004_4279)">
<circle cx="203.25" cy="204.249" r="165.953" transform="rotate(-15 203.25 204.249)" fill="#F6F0E8"/>
<path fill-rule="evenodd" clip-rule="evenodd" d="M187.245 236.307C183.779 237.235 180.489 237.303 177.375 236.509C174.297 235.654 171.629 234.054 169.371 231.707C167.114 229.36 165.496 226.359 164.516 222.703C163.524 218.999 163.388 215.55 164.109 212.354C164.878 209.145 166.382 206.402 168.621 204.122C170.908 201.83 173.831 200.207 177.392 199.253C180.858 198.324 184.083 198.3 187.067 199.18C190.038 200.012 192.579 201.519 194.691 203.702C196.802 205.884 198.271 208.518 199.098 211.604C199.226 212.079 199.342 212.608 199.447 213.19C199.587 213.713 199.722 214.312 199.853 214.99L172.362 222.356C173.515 225.711 175.331 228.024 177.808 229.293C180.321 230.503 182.906 230.752 185.565 230.039C187.702 229.467 189.355 228.515 190.525 227.184C191.73 225.792 192.466 224.17 192.733 222.317L192.93 222.288L199.812 221.567L199.842 221.564L199.84 221.655C199.734 225.01 198.983 227.272 196.817 230.154C194.614 233.136 191.423 235.187 187.245 236.307ZM178.891 205.106C176.375 205.78 174.347 207.138 172.807 209.179C171.255 211.172 170.666 213.722 171.04 216.827L190.982 211.484C190.101 208.768 188.543 206.845 186.306 205.714C184.069 204.583 181.598 204.38 178.891 205.106Z" fill="black"/>
<path d="M255.355 182.659L262.669 173.869L253.378 170.344L255.21 167.305L264.468 170.329L261.501 160.013L266.548 159.476L268.51 166.799L273.042 161.304L280.806 164.83L274.011 173.276L283.915 176.433L281.801 181.077L271.383 177.141L274.612 188.813L269.938 188.843L267.684 181.19L263.48 186.394L255.355 182.659Z" fill="black"/>
<path fill-rule="evenodd" clip-rule="evenodd" d="M119.295 198.613L133.035 249.892L140.585 247.869L135.699 229.637C134.707 225.933 134.87 222.836 136.187 220.346C137.552 217.843 139.659 216.21 142.508 215.446C147.968 213.983 151.614 216.67 153.446 223.508L158.675 243.022L166.153 241.018L160.714 220.72C159.302 215.45 157.029 211.81 153.895 209.8C150.761 207.79 147.081 207.351 142.855 208.483C140.292 209.17 138.1 210.393 136.282 212.153C134.498 213.852 133.286 215.882 132.646 218.241L127.167 197.795L119.295 198.613ZM208.09 229.781L198.624 194.456L206.031 192.471L207.825 199.166C208.436 196.509 209.655 194.223 211.483 192.308C213.346 190.333 215.844 188.926 218.978 188.086L221.096 195.992L219.031 196.545C216.942 197.105 215.162 197.964 213.691 199.121C212.254 200.218 211.26 201.731 210.709 203.66C210.191 205.529 210.321 207.912 211.097 210.808L215.639 227.758L208.09 229.781ZM236.781 220.567C239.894 221.361 243.184 221.294 246.65 220.365C250.828 219.245 254.019 217.195 256.223 214.212C258.389 211.33 259.139 209.069 259.245 205.713L259.248 205.622L259.218 205.625L252.335 206.346L252.138 206.376C251.871 208.228 251.135 209.85 249.931 211.242C248.761 212.573 247.107 213.525 244.971 214.098C242.312 214.81 239.726 214.561 237.214 213.352C234.736 212.082 232.921 209.769 231.767 206.414L259.258 199.048C259.128 198.371 258.992 197.771 258.853 197.249C258.747 196.666 258.631 196.137 258.504 195.663C257.677 192.576 256.208 189.942 254.096 187.76C251.985 185.578 249.444 184.07 246.473 183.238C243.489 182.358 240.264 182.383 236.798 183.311C233.237 184.266 230.313 185.889 228.027 188.181C225.788 190.46 224.284 193.204 223.515 196.412C222.794 199.608 222.929 203.058 223.921 206.761C224.901 210.417 226.52 213.418 228.777 215.765C231.034 218.112 233.702 219.712 236.781 220.567ZM232.303 193.599C233.843 191.559 235.871 190.201 238.387 189.527C241.093 188.801 243.565 189.004 245.802 190.135C248.039 191.266 249.597 193.189 250.477 195.905L230.536 201.248C230.162 198.143 230.751 195.593 232.303 193.599Z" fill="black"/>
</g>
<defs>
<clipPath id="clip0_1004_4279">
<rect width="331.907" height="331.907" fill="white" transform="translate(-0.000488281 86.4609) rotate(-15)"/>
</clipPath>
</defs>
</svg>
