<svg width="254" height="112" viewBox="0 0 254 112" fill="none" xmlns="http://www.w3.org/2000/svg">
<g clip-path="url(#clip0_1804_20154)">
<rect x="0.919922" y="52.6997" width="245" height="60" rx="12" transform="rotate(-12.4215 0.919922 52.6997)" fill="#FFFBF7"/>
<path d="M38.3492 83.0595L37.1464 76.9319L32.7687 81.2361L31.4528 79.7465L36.0564 75.6799L30.1703 73.9239L30.7385 72.0192L36.5195 74.0859L35.0366 68.02L36.9462 67.5994L38.149 73.727L42.5268 69.4228L43.8426 70.9124L39.239 74.979L45.1251 76.735L44.5569 78.6397L38.7759 76.573L40.2588 82.6389L38.3492 83.0595Z" fill="black"/>
<path d="M60.781 79.9615L57.1673 63.5547L59.3705 63.0695L62.5609 77.5543L70.9049 75.7164L71.3282 77.6384L60.781 79.9615ZM79.5896 76.0645C78.6521 76.271 77.7114 76.3143 76.7675 76.1946C75.8358 76.0557 74.9522 75.7261 74.1167 75.2056C73.2812 74.6851 72.545 73.9462 71.9082 72.9888C71.287 72.0279 70.8146 70.8131 70.4911 69.3443L70.3878 68.8755C70.0781 67.4692 70.0067 66.2152 70.1736 65.1135C70.3562 64.0084 70.7189 63.052 71.2619 62.2443C71.8014 61.421 72.4665 60.7584 73.257 60.2566C74.0632 59.7513 74.9351 59.3955 75.8726 59.189C76.8102 58.9825 77.743 58.9408 78.6713 59.0641C79.6151 59.1838 80.5048 59.504 81.3403 60.0244C82.1724 60.5293 82.8956 61.2465 83.5099 62.1761C84.1399 63.1023 84.6098 64.2685 84.9195 65.6748L85.0228 66.1436C85.3463 67.6123 85.4202 68.9149 85.2445 70.0513C85.0845 71.1843 84.7347 72.1624 84.1952 72.9857C83.6556 73.8091 82.9845 74.4812 82.1817 75.002C81.3912 75.5038 80.5271 75.858 79.5896 76.0645ZM79.156 74.0957C80.0154 73.9064 80.7658 73.5199 81.4073 72.9363C82.0644 72.3492 82.524 71.5353 82.7863 70.4945C83.0486 69.4537 83.0128 68.1755 82.6789 66.6598L82.5757 66.191C82.2591 64.7535 81.7683 63.641 81.1033 62.8536C80.435 62.0506 79.6793 61.5207 78.8364 61.264C78.009 61.0039 77.1657 60.9685 76.3063 61.1578C75.4625 61.3436 74.7121 61.7301 74.055 62.3172C73.3979 62.9043 72.9347 63.7026 72.6656 64.7121C72.393 65.706 72.415 66.9217 72.7317 68.3593L72.8349 68.828C73.1687 70.3437 73.6733 71.5187 74.3486 72.353C75.0238 73.1872 75.7829 73.7327 76.6259 73.9894C77.4688 74.2461 78.3122 74.2815 79.156 74.0957ZM96.5878 72.3205C95.369 72.5889 94.1725 72.5494 92.9982 72.2018C91.824 71.8543 90.7745 71.1434 89.8498 70.0691C88.9373 68.9758 88.2676 67.4604 87.8408 65.5229L87.7376 65.0541C87.4278 63.6478 87.3486 62.3955 87.4999 61.2973C87.6512 60.199 87.9749 59.2512 88.471 58.4538C88.9671 57.6564 89.5948 57.0103 90.3541 56.5154C91.1256 56.0014 91.9645 55.6446 92.8708 55.445C93.7615 55.2488 94.5998 55.187 95.3858 55.2597C96.1875 55.3288 96.9177 55.5202 97.5766 55.8339C98.2355 56.1475 98.8074 56.5867 99.2922 57.1517C99.7927 57.7132 100.179 58.3898 100.452 59.1817L98.1082 59.698C97.6554 58.6836 97.019 57.9882 96.1988 57.6118C95.3786 57.2355 94.4139 57.1694 93.3045 57.4138C92.5388 57.5824 91.8474 57.9395 91.2303 58.485C90.6132 59.0305 90.1857 59.8046 89.9478 60.8072C89.7065 61.7943 89.751 63.0378 90.0814 64.5378L90.1847 65.0066C90.4462 66.1941 90.7993 67.1649 91.2439 67.9189C91.7041 68.6695 92.2159 69.2449 92.7791 69.6451C93.339 70.0297 93.9086 70.2728 94.4881 70.3746C95.0831 70.4729 95.6385 70.4652 96.1541 70.3517C97.3729 70.0832 98.2607 69.5764 98.8174 68.8312C99.3742 68.086 99.6196 67.2292 99.5537 66.2606L101.898 65.7444C101.972 66.6782 101.894 67.5146 101.664 68.2534C101.433 68.9923 101.075 69.6363 100.59 70.1856C100.117 70.7157 99.5359 71.1633 98.8462 71.5281C98.1687 71.874 97.4159 72.1381 96.5878 72.3205ZM104.157 70.4075L106.825 52.6172L109.028 52.1319L118.923 67.1551L116.533 67.6817L114.064 63.9494L107.126 65.4774L106.454 69.9016L104.157 70.4075ZM107.43 63.3955L112.914 62.1875L108.499 55.1975L107.43 63.3955ZM121.734 66.5361L118.12 50.1293L120.324 49.644L123.514 64.1288L131.858 62.291L132.281 64.2129L121.734 66.5361ZM140.961 62.3012L137.347 45.8945L143.089 44.6297C144.464 44.3268 145.653 44.2943 146.656 44.5322C147.671 44.7511 148.495 45.1839 149.129 45.8306C149.76 46.4618 150.178 47.2461 150.385 48.1836C150.625 49.2774 150.509 50.3107 150.035 51.2834C149.573 52.237 148.746 53.0173 147.553 53.6242L153.383 59.5651L150.781 60.1381L145.411 54.3907L141.708 55.2064L143.164 61.8159L140.961 62.3012ZM141.295 53.3313L144.6 52.6034C146.116 52.2696 147.141 51.7569 147.677 51.0655C148.209 50.3584 148.378 49.5596 148.181 48.6689C147.985 47.7783 147.499 47.1318 146.722 46.7294C145.942 46.3115 144.794 46.2694 143.278 46.6032L139.973 47.3311L141.295 53.3313ZM156.891 58.7924L153.278 42.3856L163.825 40.0625L164.248 41.9844L155.904 43.8223L157.024 48.9084L164.665 47.2254L165.089 49.1473L157.448 50.8303L158.671 56.3852L167.015 54.5473L167.439 56.4692L156.891 58.7924ZM177.111 54.5846C175.892 54.853 174.695 54.8135 173.521 54.4659C172.347 54.1184 171.298 53.4075 170.373 52.3333C169.46 51.24 168.791 49.7245 168.364 47.787L168.261 47.3182C167.951 45.9119 167.872 44.6596 168.023 43.5614C168.174 42.4631 168.498 41.5153 168.994 40.7179C169.49 39.9206 170.118 39.2744 170.877 38.7795C171.649 38.2655 172.488 37.9087 173.394 37.7091C174.284 37.5129 175.123 37.4512 175.909 37.5238C176.71 37.593 177.441 37.7844 178.1 38.098C178.759 38.4116 179.33 38.8509 179.815 39.4158C180.316 39.9773 180.702 40.6539 180.975 41.4458L178.631 41.9621C178.178 40.9477 177.542 40.2524 176.722 39.876C175.902 39.4996 174.937 39.4336 173.827 39.6779C173.062 39.8465 172.37 40.2036 171.753 40.7491C171.136 41.2946 170.709 42.0687 170.471 43.0714C170.23 44.0584 170.274 45.3019 170.604 46.802L170.708 47.2707C170.969 48.4583 171.322 49.429 171.767 50.183C172.227 50.9336 172.739 51.509 173.302 51.9092C173.862 52.2938 174.432 52.537 175.011 52.6387C175.606 52.737 176.162 52.7294 176.677 52.6158C177.896 52.3473 178.784 51.8405 179.34 51.0953C179.897 50.3501 180.143 49.4933 180.077 48.5248L182.421 48.0085C182.495 48.9423 182.417 49.7787 182.187 50.5175C181.956 51.2564 181.598 51.9005 181.113 52.4497C180.64 52.9798 180.059 53.4274 179.369 53.7923C178.692 54.1381 177.939 54.4022 177.111 54.5846ZM192.221 51.2564C190.909 51.5455 189.77 51.5833 188.806 51.3698C187.857 51.1528 187.072 50.7522 186.452 50.1679C185.828 49.568 185.345 48.8634 185.003 48.054L187.207 47.5688C187.537 48.2497 188.063 48.7808 188.786 49.1623C189.506 49.528 190.506 49.5698 191.787 49.2876C193.1 48.9985 194.037 48.53 194.599 47.882C195.176 47.2305 195.384 46.5376 195.222 45.8032C195.088 45.1938 194.841 44.7404 194.48 44.443C194.117 44.1299 193.579 43.9206 192.868 43.8152C192.168 43.6906 191.237 43.6256 190.072 43.6199C188.795 43.6227 187.726 43.5305 186.866 43.3432C186.005 43.1559 185.32 42.7988 184.811 42.272C184.302 41.7452 183.937 40.9818 183.717 39.9818C183.538 39.1693 183.604 38.3928 183.916 37.6523C184.241 36.8928 184.789 36.2231 185.563 35.6432C186.336 35.0632 187.317 34.6425 188.504 34.3809C189.676 34.1228 190.696 34.103 191.563 34.3216C192.43 34.5401 193.155 34.9294 193.737 35.4893C194.316 36.0335 194.765 36.6964 195.084 37.478L192.881 37.9633C192.58 37.3414 192.122 36.8607 191.507 36.5211C190.904 36.1625 190.047 36.1054 188.938 36.3497C187.813 36.5975 186.989 37.0246 186.468 37.6311C185.958 38.2184 185.775 38.8403 185.92 39.4965C186.109 40.3559 186.569 40.9182 187.299 41.1834C188.026 41.4329 189.127 41.559 190.602 41.5618C191.666 41.5568 192.588 41.6158 193.369 41.7388C194.165 41.8583 194.833 42.0634 195.372 42.3543C195.923 42.626 196.359 43.0052 196.679 43.4917C197.015 43.9748 197.264 44.5835 197.426 45.3179C197.611 46.1617 197.532 46.9902 197.187 47.8035C196.854 48.5977 196.271 49.2995 195.439 49.9088C194.606 50.5181 193.534 50.9673 192.221 51.2564Z" fill="black"/>
<path d="M217.065 43.6957L215.862 37.5681L211.484 41.8724L210.169 40.3827L214.772 36.3162L208.886 34.5601L209.454 32.6555L215.235 34.7221L213.752 28.6562L215.662 28.2356L216.865 34.3632L221.243 30.059L222.558 31.5487L217.955 35.6152L223.841 37.3713L223.273 39.2759L217.492 37.2092L218.975 43.2751L217.065 43.6957Z" fill="black"/>
</g>
<defs>
<clipPath id="clip0_1804_20154">
<rect x="0.919922" y="52.6997" width="245" height="60" rx="12" transform="rotate(-12.4215 0.919922 52.6997)" fill="white"/>
</clipPath>
</defs>
</svg>
