<svg width="92" height="92" viewBox="0 0 92 92" fill="none" xmlns="http://www.w3.org/2000/svg">
<ellipse cx="45.5505" cy="45.5508" rx="45.5505" ry="45.5508" transform="matrix(1 -8.77549e-10 2.34208e-06 1 0 0)" fill="#FFFBF7"/>
<path d="M25.6836 43L25.6836 32.6853L32.3145 32.6853L32.3145 33.8936L27.0687 33.8936L27.0687 37.0912L31.8724 37.0912L31.8724 38.2995L27.0687 38.2995L27.0687 41.7917L32.3145 41.7917L32.3145 43L25.6836 43ZM34.6773 43L34.6773 32.6853L36.1213 32.6853L39.5694 39.2425L43.0174 32.6853L44.4025 32.6853L44.4026 43L43.0175 43L43.0174 35.1903L40.0557 40.7897L39.0242 40.7897L36.0624 35.1903L36.0624 43L34.6773 43ZM46.176 43L50.125 32.6853L51.5101 32.6853L55.4592 43L53.9562 43L52.9689 40.4361L48.6073 40.4361L47.62 43L46.176 43ZM49.0641 39.2278L52.5121 39.2278L50.7881 34.4536L49.0641 39.2278ZM57.3736 43L57.3736 32.6853L58.7587 32.6853L58.7587 43L57.3736 43ZM61.8598 43L61.8598 32.6853L63.2449 32.6853L63.2449 41.7917L68.4906 41.7917L68.4907 43L61.8598 43ZM41.7839 61.1474C40.9686 61.1474 40.2564 60.9902 39.6473 60.6758C39.0383 60.3516 38.5667 59.8654 38.2327 59.217C37.8987 58.5589 37.7317 57.7288 37.7317 56.7268L37.7317 50.6853L39.1168 50.6853L39.1169 56.7268C39.1169 57.8467 39.3526 58.6571 39.8241 59.1581C40.2957 59.6591 40.9489 59.9096 41.7839 59.9096C42.6189 59.9096 43.2722 59.6591 43.7437 59.1581C44.2152 58.6571 44.451 57.8467 44.451 56.7268L44.451 50.6853L45.8361 50.6853L45.8361 56.7268C45.8361 57.7288 45.6691 58.5589 45.3351 59.217C45.0011 59.8654 44.5296 60.3516 43.9206 60.6758C43.3213 60.9902 42.6091 61.1474 41.7839 61.1474ZM51.8845 61.1474C51.0593 61.1474 50.3717 61.0196 49.8216 60.7642C49.2813 60.5088 48.8638 60.165 48.5691 59.7328C48.2743 59.2907 48.0779 58.8044 47.9796 58.274L49.3648 58.274C49.4728 58.7259 49.7184 59.1139 50.1015 59.4381C50.4846 59.7524 51.079 59.9096 51.8845 59.9096C52.7097 59.9096 53.3334 59.7524 53.7559 59.4381C54.1881 59.1237 54.4042 58.7357 54.4042 58.274C54.4042 57.8909 54.3158 57.5863 54.139 57.3604C53.9621 57.1246 53.6674 56.9282 53.2549 56.771C52.8521 56.604 52.302 56.4419 51.6045 56.2847C50.8383 56.1177 50.2096 55.9213 49.7184 55.6953C49.2272 55.4694 48.8637 55.1648 48.628 54.7817C48.3922 54.3986 48.2743 53.8927 48.2743 53.264C48.2743 52.7532 48.4168 52.2964 48.7017 51.8936C48.9964 51.481 49.4139 51.1519 49.9541 50.9064C50.4944 50.6608 51.1379 50.538 51.8845 50.538C52.6212 50.538 53.2352 50.6608 53.7264 50.9064C54.2175 51.1519 54.6007 51.481 54.8757 51.8936C55.1508 52.2964 55.3325 52.7532 55.4209 53.264L54.0358 53.264C53.9376 52.8514 53.7264 52.5027 53.4022 52.2178C53.0878 51.9231 52.5819 51.7757 51.8845 51.7757C51.1772 51.7757 50.6271 51.9231 50.2341 52.2178C49.851 52.5027 49.6594 52.8514 49.6594 53.264C49.6594 53.8043 49.8608 54.2021 50.2636 54.4576C50.6664 54.7031 51.3098 54.9242 52.1939 55.1206C52.8324 55.2582 53.3776 55.4153 53.8295 55.5922C54.2912 55.769 54.6645 55.9802 54.9494 56.2258C55.2441 56.4615 55.4553 56.7464 55.583 57.0804C55.7205 57.4144 55.7893 57.8123 55.7893 58.274C55.7893 58.8044 55.6321 59.2907 55.3178 59.7328C55.0133 60.165 54.5712 60.5088 53.9916 60.7642C53.412 61.0196 52.7097 61.1474 51.8845 61.1474Z" fill="black"/>
</svg>
