<svg width="485" height="234" viewBox="0 0 485 234" fill="none" xmlns="http://www.w3.org/2000/svg">
<g clip-path="url(#clip0_1004_4337)">
<rect x="22.3374" y="0.929688" width="465.851" height="175.572" rx="34.9154" transform="rotate(7.26452 22.3374 0.929688)" fill="#DAFF70"/>
<path d="M301.728 112.39L302.373 107.328L317.981 96.9477C319.699 95.7801 321.087 94.7711 322.144 93.9207C323.205 93.0344 324.007 92.1878 324.547 91.381C325.093 90.5383 325.429 89.6143 325.557 88.6089C325.791 86.7778 325.424 85.2168 324.458 83.9259C323.527 82.6397 322.092 81.873 320.153 81.6258C317.855 81.3329 315.98 81.7324 314.527 82.8243C313.115 83.8849 312.246 85.6898 311.921 88.239L305.459 87.4152C305.797 84.7582 306.649 82.5133 308.014 80.6804C309.419 78.8162 311.214 77.4759 313.397 76.6597C315.586 75.8075 318.08 75.5599 320.881 75.9169C323.61 76.2648 325.841 77.0783 327.576 78.3576C329.351 79.6055 330.608 81.1888 331.349 83.1077C332.089 85.0265 332.313 87.1349 332.02 89.4328C331.805 91.1203 331.242 92.6723 330.332 94.0888C329.426 95.4693 328.258 96.7617 326.828 97.9659C325.437 99.1388 323.834 100.266 322.018 101.348L311.436 107.936L329.909 110.29L329.195 115.892L301.728 112.39ZM347.422 118.817C345.196 118.533 343.312 118.001 341.77 117.221C340.263 116.445 339.051 115.506 338.133 114.404C337.215 113.302 336.565 112.106 336.182 110.816C335.84 109.496 335.715 108.184 335.808 106.883L342.271 107.707C342.286 109.022 342.774 110.197 343.737 111.232C344.74 112.236 346.211 112.861 348.15 113.108C350.34 113.387 352.128 112.959 353.514 111.822C354.935 110.689 355.804 108.884 356.12 106.407C356.358 104.54 356.204 103.024 355.659 101.86C355.119 100.66 354.34 99.7581 353.322 99.154C352.309 98.514 351.228 98.1208 350.079 97.9743C348.535 97.7775 347.209 97.8821 346.099 98.2879C345.025 98.6983 344.123 99.3314 343.394 100.187L337.577 99.4456L340.186 78.9798L363.614 81.9663L362.9 87.5675L345.827 85.3911L344.708 94.1699C345.634 93.4852 346.684 92.9805 347.856 92.6556C349.034 92.2948 350.466 92.222 352.153 92.4371C354.595 92.7483 356.649 93.521 358.316 94.7552C360.019 95.994 361.248 97.6648 362.001 99.7677C362.76 101.835 362.956 104.304 362.589 107.177C362.242 109.906 361.365 112.202 359.96 114.066C358.595 115.899 356.836 117.244 354.684 118.101C352.536 118.922 350.115 119.16 347.422 118.817ZM227.554 168.461L228.199 163.398L243.808 153.019C245.526 151.851 246.913 150.842 247.97 149.992C249.032 149.105 249.833 148.259 250.374 147.452C250.919 146.609 251.256 145.685 251.384 144.68C251.617 142.849 251.251 141.288 250.284 139.997C249.353 138.71 247.919 137.944 245.98 137.697C243.682 137.404 241.807 137.803 240.354 138.895C238.941 139.956 238.073 141.761 237.748 144.31L231.285 143.486C231.624 140.829 232.475 138.584 233.84 136.751C235.245 134.887 237.04 133.547 239.224 132.73C241.412 131.878 243.907 131.631 246.708 131.988C249.436 132.336 251.668 133.149 253.402 134.428C255.177 135.676 256.435 137.26 257.175 139.178C257.916 141.097 258.14 143.206 257.847 145.504C257.632 147.191 257.069 148.743 256.159 150.16C255.253 151.54 254.085 152.833 252.654 154.037C251.264 155.21 249.661 156.337 247.844 157.419L237.262 164.006L255.735 166.361L255.021 171.962L227.554 168.461ZM274.326 175.025C272.351 174.774 270.541 174.233 268.895 173.403C267.29 172.541 265.933 171.31 264.823 169.709C263.754 168.077 263.021 165.958 262.623 163.353C262.262 160.753 262.321 157.568 262.802 153.798L262.939 152.721C263.383 149.238 264.095 146.373 265.074 144.126C266.094 141.848 267.322 140.089 268.757 138.849C270.233 137.577 271.853 136.744 273.619 136.349C275.42 135.958 277.308 135.889 279.283 136.14C281.258 136.392 283.05 136.931 284.66 137.756C286.305 138.586 287.665 139.799 288.738 141.396C289.852 142.961 290.6 144.972 290.98 147.428C291.4 149.854 291.389 152.808 290.945 156.291L290.807 157.368C290.327 161.138 289.567 164.234 288.529 166.655C287.526 169.082 286.285 170.949 284.805 172.256C283.365 173.532 281.742 174.383 279.936 174.81C278.171 175.205 276.301 175.277 274.326 175.025ZM275.04 169.424C276.045 169.552 277.022 169.476 277.97 169.196C278.918 168.915 279.797 168.316 280.607 167.397C281.458 166.447 282.196 165.1 282.819 163.355C283.479 161.615 283.987 159.344 284.344 156.544L284.482 155.467C284.912 152.092 284.885 149.443 284.4 147.52C283.956 145.566 283.205 144.157 282.148 143.292C281.09 142.428 279.897 141.911 278.569 141.741C277.24 141.572 275.956 141.773 274.715 142.345C273.475 142.916 272.377 144.09 271.42 145.866C270.505 147.61 269.832 150.169 269.402 153.544L269.264 154.622C268.907 157.422 268.812 159.745 268.978 161.591C269.18 163.441 269.556 164.93 270.105 166.058C270.695 167.155 271.414 167.958 272.261 168.468C273.108 168.977 274.035 169.296 275.04 169.424ZM293.245 176.835L293.891 171.772L309.499 161.392C311.217 160.225 312.604 159.216 313.661 158.365C314.723 157.479 315.524 156.633 316.065 155.826C316.61 154.983 316.947 154.059 317.075 153.054C317.309 151.223 316.942 149.662 315.975 148.371C315.045 147.084 313.61 146.318 311.671 146.071C309.373 145.778 307.498 146.177 306.045 147.269C304.633 148.33 303.764 150.134 303.439 152.684L296.976 151.86C297.315 149.203 298.167 146.958 299.532 145.125C300.937 143.261 302.731 141.921 304.915 141.104C307.104 140.252 309.598 140.005 312.399 140.362C315.128 140.709 317.359 141.523 319.093 142.802C320.868 144.05 322.126 145.634 322.867 147.552C323.607 149.471 323.831 151.58 323.538 153.878C323.323 155.565 322.76 157.117 321.85 158.534C320.944 159.914 319.776 161.206 318.345 162.411C316.955 163.584 315.352 164.711 313.536 165.793L302.953 172.38L321.427 174.735L320.713 180.336L293.245 176.835ZM338.671 183.228C335.763 182.857 333.365 182.059 331.478 180.833C329.627 179.612 328.288 178.091 327.462 176.271C326.64 174.415 326.371 172.373 326.655 170.147L333.118 170.971C332.889 172.766 333.267 174.238 334.252 175.385C335.277 176.501 336.993 177.212 339.399 177.519C341.732 177.816 343.536 177.553 344.808 176.73C346.121 175.876 346.892 174.551 347.121 172.756C347.354 170.925 346.999 169.42 346.054 168.242C345.115 167.027 343.388 166.26 340.875 165.939L337.105 165.459L337.791 160.073L341.561 160.554C343.715 160.828 345.388 160.585 346.58 159.825C347.776 159.029 348.484 157.769 348.704 156.046C348.923 154.322 348.568 152.963 347.636 151.969C346.741 150.979 345.162 150.34 342.9 150.051C340.674 149.768 338.965 150.006 337.773 150.766C336.618 151.531 335.937 152.721 335.731 154.337L329.268 153.513C329.547 151.323 330.275 149.482 331.45 147.99C332.661 146.502 334.294 145.433 336.347 144.783C338.4 144.132 340.827 143.986 343.628 144.343C346.464 144.704 348.774 145.473 350.558 146.649C352.347 147.789 353.627 149.193 354.4 150.861C355.213 152.497 355.501 154.248 355.263 156.115C354.988 158.27 354.183 160.01 352.846 161.335C351.514 162.625 349.804 163.447 347.715 163.801C349.823 164.726 351.389 166.039 352.413 167.739C353.477 169.407 353.845 171.533 353.515 174.119C353.259 176.129 352.505 177.894 351.253 179.413C350.037 180.936 348.362 182.055 346.228 182.768C344.134 183.45 341.615 183.603 338.671 183.228Z" fill="black"/>
<path d="M111.718 88.169L116.523 50.4688L123.202 51.3201L132.363 75.2019L147.222 54.3821L153.685 55.206L148.879 92.9061L142.416 92.0823L145.78 65.6922L133.448 83.0029L129.14 82.4536L121.544 62.6027L118.18 88.9929L111.718 88.169ZM154.54 93.6278L173.618 57.747L180.081 58.5708L189.548 98.0903L182.654 97.2115L180.561 88.297L165.266 86.3472L161.003 94.4517L154.54 93.6278ZM168.08 81.0138L179.175 82.4281L175.659 66.2169L168.08 81.0138ZM200.58 99.4967L202.434 84.9552L190.844 59.9428L198.492 60.9177L206.597 78.9179L218.204 63.4304L225.313 64.3367L208.897 85.779L207.043 100.32L200.58 99.4967ZM237.969 91.7837L238.683 86.1826L274.229 90.7137L273.515 96.3149L237.969 91.7837Z" fill="black"/>
<path d="M100.56 137.055L112.621 130.762L103.924 122.757L107.322 120.269L116.21 127.713L117.575 115.147L123.522 115.905L122.276 125.681L129.772 121.728L136.779 129.049L125.447 135.202L134.99 143.08L130.556 147.19L120.794 138.232L119.108 152.393L113.743 151.709L114.874 140.984L107.873 144.766L100.56 137.055Z" fill="black"/>
</g>
<defs>
<clipPath id="clip0_1004_4337">
<rect width="465.851" height="175.572" fill="white" transform="translate(22.3374 0.929688) rotate(7.26452)"/>
</clipPath>
</defs>
</svg>
